<svg xmlns="http://www.w3.org/2000/svg" xmlns:xlink="http://www.w3.org/1999/xlink" version="1.1" x="0px" y="0px" viewBox="0 0 100 125" enable-background="new 0 0 100 100" xml:space="preserve"><g><g><path fill="none" d="M84.928,45.428c-2.004-3.72-4.077-7.567-5.447-11.622c-1.563-4.62,1.249-7.737,4.132-9.001    c0.309-0.13,0.516-0.374,0.584-0.668c0.069-0.295-0.008-0.605-0.206-0.832L71.687,9.154c-0.235-0.271-0.572-0.317-0.83-0.313    c-0.229,0.015-0.5,0.169-0.666,0.412c-0.389,0.553-3.795,5.171-9.158,5.171c-3.349,0-6.838-1.789-10.367-5.317    c-0.241-0.241-0.521-0.278-0.667-0.278c-0.145,0-0.425,0.036-0.666,0.277c-3.528,3.529-7.016,5.317-10.367,5.317    c-5.537,0-8.998-4.942-9.143-5.152c-0.177-0.264-0.448-0.421-0.74-0.439c-0.022-0.002-0.045-0.003-0.067-0.003    c-0.271,0-0.525,0.118-0.702,0.323L16.011,23.304c-0.191,0.219-0.264,0.528-0.196,0.829c0.065,0.292,0.272,0.539,0.551,0.661    c2.894,1.271,5.717,4.393,4.155,9.012c-1.368,4.047-3.442,7.899-5.448,11.624C9.72,55.374,4.185,65.656,16.064,76.399    c4.43,4.007,10.89,5.525,17.137,6.993c6.686,1.572,13,3.056,16.026,7.376c0.353,0.506,1.193,0.503,1.54,0.003    c3.031-4.324,9.345-5.807,16.029-7.377c6.254-1.471,12.711-2.989,17.136-6.994C95.816,65.655,90.281,55.372,84.928,45.428z"/><path d="M88.3,43.612c-1.929-3.581-3.924-7.284-5.192-11.033c-0.864-2.554,0.909-3.771,2.011-4.254    c1.41-0.589,2.46-1.829,2.807-3.317s-0.044-3.066-1.047-4.217L74.578,6.642c-0.935-1.075-2.318-1.644-3.884-1.627    c-1.467,0.086-2.838,0.864-3.653,2.06c-0.025,0.035-2.518,3.519-6.009,3.519c-2.297,0-4.875-1.412-7.66-4.195    C52.471,5.497,51.273,5,49.998,5c-1.274,0-2.473,0.497-3.374,1.399c-2.783,2.784-5.36,4.195-7.658,4.195    c-3.487,0-5.969-3.467-5.973-3.472c-0.821-1.228-2.191-2.018-3.649-2.111c-1.479-0.1-2.944,0.504-3.921,1.63l-12.302,14.15    c-0.987,1.134-1.377,2.698-1.043,4.182c0.331,1.475,1.36,2.72,2.75,3.329c1.142,0.501,2.928,1.724,2.065,4.278    c-1.265,3.742-3.262,7.449-5.193,11.037C6.215,53.804-0.61,66.484,13.495,79.239c5.161,4.669,12.11,6.302,18.831,7.881    c5.953,1.4,11.575,2.721,13.762,5.842C46.979,94.239,48.441,95,49.998,95c1.559,0,3.021-0.762,3.908-2.035    c2.19-3.125,7.813-4.445,13.777-5.846c6.717-1.58,13.662-3.214,18.819-7.88C100.611,66.484,93.785,53.802,88.3,43.612z     M83.932,76.4c-4.424,4.005-10.882,5.523-17.136,6.994c-6.684,1.57-12.998,3.053-16.029,7.377c-0.348,0.5-1.188,0.503-1.54-0.003    c-3.027-4.321-9.34-5.805-16.026-7.376c-6.247-1.468-12.707-2.986-17.137-6.993C4.185,65.656,9.72,55.374,15.072,45.43    c2.006-3.725,4.08-7.577,5.448-11.624c1.562-4.619-1.26-7.741-4.155-9.012c-0.28-0.122-0.486-0.369-0.551-0.661    c-0.067-0.301,0.006-0.611,0.196-0.829L28.315,9.152c0.177-0.205,0.432-0.323,0.702-0.323c0.022,0,0.044,0.001,0.067,0.003    c0.291,0.019,0.562,0.176,0.74,0.439c0.144,0.21,3.605,5.152,9.143,5.152c3.351,0,6.838-1.789,10.367-5.317    c0.24-0.24,0.52-0.277,0.666-0.277c0.145,0,0.425,0.036,0.667,0.278c3.53,3.528,7.018,5.317,10.367,5.317    c5.363,0,8.77-4.618,9.158-5.171c0.165-0.243,0.437-0.397,0.666-0.412c0.259-0.004,0.596,0.042,0.83,0.313L83.99,23.305    c0.198,0.227,0.275,0.538,0.206,0.832c-0.068,0.294-0.275,0.538-0.584,0.668c-2.883,1.264-5.695,4.381-4.132,9.001    c1.371,4.055,3.444,7.902,5.447,11.622C90.281,55.372,95.816,65.655,83.932,76.4z"/></g></g><text x="0" y="115" fill="#000000" font-size="5px" font-weight="bold" font-family="'Helvetica Neue', Helvetica, Arial-Unicode, Arial, Sans-serif">Created by Vladimir Belochkin</text><text x="0" y="120" fill="#000000" font-size="5px" font-weight="bold" font-family="'Helvetica Neue', Helvetica, Arial-Unicode, Arial, Sans-serif">from the Noun Project</text></svg>