<?xml version="1.0" encoding="UTF-8"?>
<!DOCTYPE svg PUBLIC "-//W3C//DTD SVG 1.1//EN" "http://www.w3.org/Graphics/SVG/1.1/DTD/svg11.dtd">
<!-- Creator: CorelDRAW X8 -->
<svg xmlns="http://www.w3.org/2000/svg" xml:space="preserve" width="39.8639mm" height="62.5556mm" version="1.1" style="shape-rendering:geometricPrecision; text-rendering:geometricPrecision; image-rendering:optimizeQuality; fill-rule:evenodd; clip-rule:evenodd"
viewBox="0 0 300 470"
 xmlns:xlink="http://www.w3.org/1999/xlink">
 <defs>
  <style type="text/css">
   <![CDATA[
    .fil0 {fill:#2B2A29}
    .fil1 {fill:#FEFEFE;fill-rule:nonzero}
   ]]>
  </style>
 </defs>
 <g id="BS_x0020_Inner_x0020_Circle">
  <metadata id="CorelCorpID_0Corel-Layer"/>
  <polygon class="fil0" points="262,0 300,470 150,470 0,470 37,0 "/>
  <path class="fil1" d="M94 410l0 5 -30 0c0,-1 0,-2 1,-4 0,-2 2,-4 3,-6 2,-2 4,-4 8,-6 4,-5 8,-8 10,-10 1,-2 2,-5 2,-7 0,-2 -1,-4 -2,-5 -2,-2 -4,-3 -6,-3 -3,0 -5,1 -7,3 -2,1 -2,3 -2,6l-6 0c0,-5 2,-8 4,-10 3,-2 6,-3 11,-3 4,0 8,1 10,3 3,3 4,6 4,9 0,2 0,4 -1,6 -1,1 -2,3 -4,5 -2,2 -4,5 -9,8 -3,3 -5,5 -6,6 -1,1 -2,2 -2,3l22 0zm24 5l0 -11 -20 0 0 -5 21 -29 5 0 0 29 6 0 0 5 -6 0 0 11 -6 0zm0 -16l0 -20 -14 20 14 0zm47 11l0 5 -30 0c0,-1 0,-2 0,-4 1,-2 2,-4 4,-6 2,-2 4,-4 7,-6 5,-5 9,-8 10,-10 2,-2 3,-5 3,-7 0,-2 -1,-4 -2,-5 -2,-2 -4,-3 -7,-3 -2,0 -4,1 -6,3 -2,1 -2,3 -3,6l-5 0c0,-5 2,-8 4,-10 3,-2 6,-3 11,-3 4,0 7,1 10,3 3,3 4,6 4,9 0,2 -1,4 -1,6 -1,1 -2,3 -4,5 -2,2 -5,5 -9,8 -3,3 -5,5 -6,6 -1,1 -2,2 -3,3l23 0zm6 -7l6 0c0,3 1,5 3,6 1,2 3,2 5,2 3,0 5,0 7,-2 2,-2 3,-4 3,-7 0,-3 -1,-5 -3,-6 -1,-2 -3,-3 -6,-3 -1,0 -2,0 -4,1l1 -5c0,0 0,0 0,0 3,0 5,-1 7,-2 2,-1 3,-3 3,-6 0,-2 -1,-3 -2,-5 -2,-1 -3,-2 -6,-2 -2,0 -4,1 -5,2 -2,2 -2,4 -3,6l-6 -1c1,-3 3,-6 5,-8 3,-2 6,-3 9,-3 3,0 5,0 7,1 2,1 4,3 5,5 1,1 2,3 2,5 0,2 -1,4 -2,6 -1,1 -3,3 -5,4 3,0 5,2 7,3 1,2 2,5 2,8 0,4 -2,7 -5,10 -2,3 -6,4 -11,4 -4,0 -7,-1 -10,-3 -2,-3 -4,-6 -4,-10zm53 12l0 -11 -20 0 0 -5 21 -29 5 0 0 29 6 0 0 5 -6 0 0 11 -6 0zm0 -16l0 -20 -14 20 14 0z"/>
 </g>
</svg>
