<?xml version="1.0" encoding="UTF-8"?>
<!DOCTYPE svg PUBLIC "-//W3C//DTD SVG 1.1//EN" "http://www.w3.org/Graphics/SVG/1.1/DTD/svg11.dtd">
<!-- Creator: CorelDRAW X8 -->
<svg xmlns="http://www.w3.org/2000/svg" xml:space="preserve" width="39.8639mm" height="62.5556mm" version="1.1" style="shape-rendering:geometricPrecision; text-rendering:geometricPrecision; image-rendering:optimizeQuality; fill-rule:evenodd; clip-rule:evenodd"
viewBox="0 0 579 909"
 xmlns:xlink="http://www.w3.org/1999/xlink">
 <defs>
  <style type="text/css">
   <![CDATA[
    .fil6 {fill:none}
    .fil8 {fill:#EBECEC}
    .fil4 {fill:#D9DADA}
    .fil1 {fill:#C5C6C6}
    .fil2 {fill:#B2B3B3}
    .fil7 {fill:#9D9E9E}
    .fil3 {fill:#898989}
    .fil0 {fill:#2B2A29}
    .fil5 {fill:#EBECEC;fill-rule:nonzero}
   ]]>
  </style>
 </defs>
 <g id="BS_x0020_Inner_x0020_Circle">
  <metadata id="CorelCorpID_0Corel-Layer"/>
  <polygon class="fil0" points="507,0 579,909 290,909 0,909 72,0 "/>
  <g id="_1651531387760">
   <g>
    <path class="fil1" d="M290 419c2,0 4,2 6,4 1,-2 2,-4 4,-5 2,0 4,0 5,1 0,-2 1,-4 3,-5 2,-2 4,-2 8,-1 -2,-3 -1,-5 0,-7 1,-2 4,-3 8,-3 -2,-2 -2,-4 -2,-6 1,-2 2,-4 5,-4 -3,-2 -5,-4 -5,-7 0,-2 2,-4 5,-6 -3,0 -5,-2 -5,-4 -1,-2 -1,-3 0,-5 -2,0 -4,-1 -5,-3 -2,-2 -2,-4 -1,-7 -3,1 -5,1 -7,-1 -2,-1 -3,-4 -2,-8 -3,2 -5,3 -7,2 -2,-1 -3,-2 -4,-4 -2,2 -4,4 -6,4 -3,0 -5,-2 -7,-4 0,2 -2,4 -4,5 -1,0 -3,0 -5,-1 0,2 -1,4 -3,5 -2,2 -4,2 -7,1 1,3 1,5 -1,7 -1,2 -4,3 -8,3 2,2 3,4 2,6 -1,2 -2,4 -4,4 2,2 4,4 4,6 0,3 -2,5 -4,7 2,0 4,2 5,4 0,2 0,3 -1,5 2,0 4,1 5,3 2,2 2,4 1,7 3,-1 5,-1 7,1 2,1 3,4 3,8 2,-2 4,-3 6,-2 2,1 4,2 5,4 1,-2 3,-4 6,-4zm29 -90c7,-6 15,-8 17,-6 2,1 2,10 -1,19 8,-4 17,-4 18,-2 2,2 0,9 -5,16 13,-3 24,1 24,4 1,2 -3,8 -10,13 20,1 36,10 36,13 0,4 -15,13 -35,14 7,5 11,10 10,13 -1,3 -13,6 -26,3 6,7 8,15 6,17 -1,2 -10,2 -19,-2 4,9 4,18 2,19 -2,1 -9,0 -16,-5 3,13 -1,23 -3,24 -3,1 -9,-3 -14,-10 -1,20 -10,36 -13,36 -4,0 -13,-15 -14,-35 -5,7 -10,11 -12,10 -3,-1 -7,-13 -4,-26 -7,6 -15,7 -17,6 -2,-1 -2,-10 2,-19 -9,4 -17,4 -19,2 -1,-2 0,-9 5,-16 -12,3 -23,-1 -24,-4 -1,-2 3,-8 10,-13 -20,-1 -36,-10 -36,-14 0,-3 16,-12 35,-13 -7,-5 -11,-10 -10,-13 1,-3 13,-6 26,-3 -5,-7 -7,-15 -6,-17 1,-2 10,-2 19,2 -4,-9 -4,-18 -2,-19 2,-1 9,0 16,5 -3,-13 1,-23 4,-24 2,-1 8,3 13,10 1,-20 10,-36 14,-36 3,0 12,15 13,35 5,-7 11,-11 13,-10 3,1 7,13 3,26z"/>
    <path class="fil2" d="M333 372c-1,-3 4,-8 12,-10 8,-3 17,-2 21,0 -2,4 -9,9 -17,12 -8,2 -15,2 -16,-2zm6 14c0,-4 10,-7 21,-7 12,0 24,4 28,7 -4,4 -16,8 -28,8 -11,0 -21,-3 -21,-8zm-5 14c1,-3 8,-4 16,-1 7,2 15,8 17,11 -4,2 -13,3 -21,1 -8,-3 -13,-7 -12,-11zm-10 12c2,-3 8,-2 14,2 6,5 10,11 10,15 -3,1 -11,-1 -17,-5 -6,-4 -9,-9 -7,-12zm-10 10c3,-2 8,1 13,6 4,6 6,14 5,17 -4,0 -11,-4 -15,-10 -4,-5 -6,-11 -3,-13zm-10 8c3,-1 8,4 10,12 3,8 2,17 0,21 -3,-2 -9,-9 -12,-17 -2,-8 -2,-15 2,-16zm-14 6c4,0 7,10 7,21 0,11 -4,24 -7,28 -4,-4 -8,-17 -8,-28 0,-11 4,-21 8,-21zm-14 -5c3,1 4,8 2,16 -3,7 -9,15 -12,16 -2,-3 -3,-12 -1,-20 3,-8 8,-13 11,-12zm-12 -10c3,2 2,8 -2,14 -4,6 -11,10 -15,10 -1,-4 1,-11 5,-17 4,-6 9,-9 12,-7zm-10 -10c2,3 -1,8 -6,12 -6,5 -13,7 -17,6 0,-4 4,-11 10,-15 5,-4 11,-6 13,-3zm-8 -10c1,3 -4,8 -12,10 -8,3 -17,2 -21,0 2,-4 9,-9 17,-12 8,-2 15,-2 16,2zm-6 -15c0,5 -9,8 -21,8 -11,0 -24,-4 -28,-8 4,-3 17,-7 28,-7 12,0 21,3 21,7zm6 -13c-2,3 -9,4 -16,1 -8,-2 -15,-8 -17,-11 3,-2 13,-3 20,-1 8,3 14,7 13,11zm9 -12c-2,3 -8,2 -14,-3 -5,-4 -10,-10 -10,-14 4,-1 11,1 17,5 6,4 9,9 7,12zm10 -10c-3,2 -8,-1 -12,-6 -5,-6 -7,-14 -6,-17 4,0 11,4 15,10 4,5 6,11 3,13zm10 -8c-3,1 -8,-4 -10,-12 -3,-8 -2,-17 0,-21 4,2 9,9 12,17 2,8 2,15 -2,16zm15 -6c-4,0 -8,-10 -8,-21 0,-11 4,-24 8,-28 3,4 7,17 7,28 0,11 -3,21 -7,21zm13 5c-3,-1 -4,-8 -1,-16 2,-7 8,-15 12,-16 2,3 2,12 0,20 -3,8 -7,13 -11,12zm12 10c-3,-2 -1,-8 3,-14 4,-6 10,-10 14,-10 1,4 -1,11 -5,17 -4,6 -9,9 -12,7zm10 10c-2,-3 1,-8 6,-12 6,-5 14,-7 17,-6 0,4 -4,11 -9,15 -6,4 -12,6 -14,3z"/>
    <path class="fil3" d="M286 390l-69 25 -1 -2c-2,-9 -3,-18 -3,-27 0,-8 1,-17 3,-26l1 -2 69 25 -25 -69 2 -1c9,-2 18,-3 27,-3 8,0 17,1 26,3l2 1 -25 69 69 -25 1 2c2,9 3,18 3,26 0,9 -1,18 -3,27l-1 2 -69 -25 25 69 -2 1c-9,2 -18,3 -26,3 -9,0 -18,-1 -27,-3l-2 -1 25 -69z"/>
    <path class="fil4" d="M267 456c8,1 15,2 23,2 7,0 15,-1 22,-2l-22 -62 -23 62zm30 -70l62 23c1,-8 2,-15 2,-23 0,-7 -1,-14 -2,-22l-62 22zm-7 -7l22 -62c-7,-1 -15,-2 -22,-2 -8,0 -15,1 -23,2l23 62zm-8 7l-61 -22c-2,8 -3,15 -3,22 0,8 1,15 3,23l61 -23z"/>
    <circle class="fil2" cx="290" cy="386" r="53"/>
    <circle class="fil1" cx="290" cy="386" r="34"/>
    <path class="fil5" d="M273 412l2 -2 0 0c0,1 0,1 0,1 0,1 1,1 1,1l0 0 2 -4c0,0 0,0 0,0 0,-1 0,-1 0,-1 0,0 0,0 0,0 0,0 0,0 -1,0l1 -1 4 2 -1 1c0,0 0,-1 0,-1 0,0 0,0 -1,0 0,0 0,0 0,0 0,0 0,1 0,1l0 0 -2 4 0 0c1,0 1,0 1,0 1,0 1,0 1,-1l1 1 -1 2 -7 -3z"/>
    <path id="1" class="fil5" d="M271 406l-1 -1c0,0 -1,-1 -1,-1 0,0 0,1 -1,1 0,0 0,0 0,1 0,0 0,0 0,1l1 0 2 -1zm2 -2c0,0 0,-1 0,-1 0,0 0,0 0,0l-1 0 1 -1 3 3 -1 1 0 -1c0,0 0,0 0,0 -1,0 -1,0 -1,0l-3 3c0,0 0,1 0,1 0,0 0,0 0,0l0 0 0 1 -4 -3c0,-1 -1,-2 -1,-2 0,-1 0,-1 1,-2 0,0 0,0 1,0 0,0 1,0 1,0 0,0 0,0 0,-1 0,0 0,0 0,-1l1 0c0,0 0,0 0,-1 0,0 0,0 0,0 0,0 0,0 0,0 0,0 -1,0 -1,1l0 -1c0,0 0,0 0,0 0,0 0,0 0,0 0,-1 1,-1 1,-1 1,0 1,0 1,1 1,0 1,1 1,1 0,1 0,1 -1,1l0 1c-1,0 -1,0 -1,1 0,0 0,0 1,0l0 1 2 -1z"/>
    <path id="2" class="fil5" d="M270 398l-1 1 0 -1c0,0 0,0 0,0 0,0 -1,0 -1,0l-4 2c0,0 0,0 0,0 0,0 0,0 0,1l0 0 -1 0 -2 -4 1 0 0 0c1,1 1,1 1,1 0,0 0,0 0,0l4 -2c0,0 1,0 1,0 0,-1 0,-1 0,-1l-1 0 1 -1 2 4z"/>
    <path id="3" class="fil5" d="M264 390l-2 1 2 1 0 -2zm4 4l-1 0 0 0c0,0 0,0 0,0 0,-1 -1,-1 -1,-1l-6 -1 0 -2 5 -3c0,0 1,0 1,0 0,0 0,0 0,0l0 -1 1 0 0 4 -1 0 0 0c0,0 0,-1 0,-1 0,0 0,0 0,0 0,0 0,0 0,0 0,0 0,0 0,0l-1 1 0 2 1 0c0,0 0,0 0,0 0,0 0,0 0,0 0,0 1,0 1,0 0,0 0,0 0,-1l-1 0 1 0 1 3z"/>
    <path id="4" class="fil5" d="M263 377c-1,0 -1,0 -1,0 0,0 0,0 0,1l0 0 -1 0 1 -4 1 0 0 0c0,1 0,1 0,1 0,0 0,0 0,0l3 1c1,1 2,1 2,2 1,0 1,1 0,2 0,1 0,1 -1,1 -1,1 -1,1 -2,1 0,0 0,-1 -1,-1 0,0 0,-1 0,-1 0,0 1,0 1,-1 0,0 0,0 1,0 0,0 0,1 0,1 0,0 0,0 0,0 0,1 0,1 0,1 0,0 0,0 0,0 0,0 1,0 1,0 0,-1 0,-1 0,-1 0,0 0,-1 0,-1 0,0 -1,0 -1,-1l-3 -1z"/>
    <path id="5" class="fil5" d="M264 372l-1 -1 3 -3 1 0c0,0 0,0 0,0 0,0 0,0 0,1 -1,0 -1,0 -1,0 0,0 1,1 1,1l2 2c1,0 1,0 1,0 1,0 1,0 1,0 1,-1 1,-1 1,-1 0,-1 0,-1 -1,-1l-2 -2c-1,-1 -1,-1 -1,-1 0,0 0,0 -1,1 0,0 0,0 0,0 0,0 0,0 0,0l-1 -1 3 -2 0 0c0,0 0,1 0,1 0,0 0,0 0,0 0,0 0,0 0,0 0,0 0,0 1,1l2 2c1,0 1,1 1,1 0,1 0,2 -1,3 -1,0 -1,1 -2,1 0,0 -1,0 -2,0l-2 -3c-1,0 -1,0 -1,0 0,0 0,0 -1,0 0,0 0,0 0,1 0,0 0,0 0,0z"/>
    <path id="6" class="fil5" d="M273 363c0,0 0,0 -1,0 0,0 0,0 0,0l0 0 -1 -1 3 -1 5 3 -1 -3c-1,-1 -1,-1 -1,-1 0,0 0,0 0,0l-1 1 0 -1 3 -2 0 1 0 0c0,0 0,0 -1,0 0,1 0,1 1,1l3 5 -2 1 -6 -3 2 3c0,1 0,1 0,1 1,0 1,0 1,0l0 -1 1 1 -3 2 -1 -1 1 0c0,0 0,0 0,-1 0,0 0,0 0,0l-2 -4z"/>
    <path id="7" class="fil5" d="M289 361l1 0c0,1 0,2 -1,2 0,1 -1,1 -2,1 -1,0 -2,0 -3,0 -1,-1 -1,-2 -1,-3 0,-1 0,-1 0,-2 0,0 0,-1 0,-1 1,-1 1,-1 2,-1 0,0 0,-1 1,-1 0,0 1,0 1,0 1,0 1,1 1,1l0 -1 1 0 1 3 -1 0c0,0 -1,-1 -1,-1 0,-1 -1,-1 -1,-1 -1,0 -1,1 -2,1 0,1 0,2 0,2 0,1 0,2 1,3 0,0 1,0 1,0 1,0 1,0 2,-1 0,0 0,-1 0,-1z"/>
    <path id="8" class="fil5" d="M300 358l-1 3 -1 0c1,-1 1,-1 0,-2 0,0 0,0 -1,-1l0 0 -1 5c0,0 0,0 0,1 0,0 0,0 0,0 0,0 0,0 1,0 0,0 0,0 0,0l0 1 -4 -1 0 -1c0,0 0,0 0,0 1,0 1,0 1,0 0,0 0,0 0,0 0,0 0,0 0,0l0 -1 1 -4 0 0c0,0 -1,0 -1,0 0,0 -1,1 -1,1l-1 0 1 -3 7 2z"/>
    <path id="9" class="fil5" d="M304 365l0 -3 -2 2 2 1zm-6 0l1 -1 0 0c0,1 0,1 0,1 0,0 1,-1 1,-1l5 -4 2 2 -2 5c0,1 0,1 0,1 0,0 0,0 0,0l1 1 -1 1 -3 -3 0 -1 0 1c1,0 1,0 1,0 0,0 0,0 0,0 0,0 0,0 0,0 0,0 0,0 0,0l0 -1 -1 -2 -1 1c0,0 0,0 0,0 0,0 0,0 0,0 0,0 0,0 0,0 0,1 0,1 0,1l0 0 0 1 -3 -2z"/>
    <path id="10" class="fil5" d="M307 372l1 0 0 0c1,1 1,1 1,1 0,0 0,0 0,0l4 -3c0,0 0,0 0,0 0,0 0,0 0,-1l0 0 1 -1 2 4 -1 1 0 -1c0,0 0,0 0,0 0,0 -1,0 -1,0l-3 2c-1,0 -1,1 -1,1 0,0 0,0 0,0l1 1 -1 0 -3 -4z"/>
    <path id="11" class="fil5" d="M316 376c0,0 1,0 1,0 0,0 0,-1 0,-1l0 0 0 -1 1 4 -4 4 4 -1c0,0 0,0 0,0 0,0 0,0 0,-1l0 0 1 0 1 3 -1 0 0 0c0,0 0,-1 0,-1 -1,0 -1,0 -1,0l-6 2 0 -2 4 -5 -4 1c0,0 0,0 0,1 0,0 0,0 0,0l0 1 -1 0 -1 -4 1 0 0 1c0,0 0,0 1,0 0,0 0,0 0,0l4 -1z"/>
    <path id="12" class="fil5" d="M319 391l1 0 -2 4 0 0c0,0 0,0 0,0 0,0 0,0 0,0 0,-1 0,-1 0,-1 0,0 -1,0 -1,0l-3 -1c-1,0 -1,0 -1,0 -1,0 -1,0 -1,1 0,0 0,0 0,1 0,0 0,0 1,0l3 1c0,0 1,0 1,0 0,0 0,0 0,0 0,0 0,0 0,0 0,0 0,0 0,-1l1 1 -1 3 -1 0c1,-1 1,-1 1,-1 0,0 0,0 0,0 -1,0 -1,0 -1,0 0,0 0,0 0,-1l-3 0c-1,-1 -2,-1 -2,-2 0,0 0,-1 0,-2 0,-1 1,-2 1,-2 1,0 1,-1 2,0l3 1c1,0 1,0 1,0 0,0 1,-1 1,-1 0,0 0,0 0,0 0,0 0,0 0,0z"/>
    <path id="13" class="fil5" d="M314 402c0,0 0,0 0,0 0,0 0,0 1,0l0 -1 1 1 -3 3 -5 -1 2 2c1,0 1,0 1,0 0,0 0,0 0,0l1 0 0 0 -2 3 -1 -1 1 0c0,0 0,0 0,0 0,-1 0,-1 0,-1l-5 -4 1 -1 7 1 -3 -3c-1,0 -1,0 -1,0 0,0 0,0 0,0l-1 1 0 -1 2 -3 1 1 -1 0c0,1 0,1 0,1 0,0 0,0 0,0l4 3z"/>
    <path id="14" class="fil5" d="M303 409c0,-1 -1,-1 -1,-2 -1,0 -1,0 -2,0 0,1 0,1 -1,2 0,0 1,1 1,2 1,1 1,1 2,2 0,0 1,0 1,0 1,-1 1,-1 1,-2 0,0 0,-1 -1,-2zm2 -1c1,1 1,2 1,3 -1,1 -1,2 -2,2 -2,1 -3,1 -4,1 -1,0 -1,-1 -2,-2 -1,-1 -1,-2 0,-3 0,-1 1,-2 2,-3 1,0 2,0 3,0 1,0 2,1 2,2z"/>
    <circle class="fil6" cx="290" cy="386" r="23"/>
    <circle class="fil7" cx="290" cy="386" r="21"/>
    <circle class="fil1" cx="290" cy="386" r="19"/>
    <path class="fil8" d="M291 390c1,0 5,2 6,5l-3 6c-3,0 -6,0 -9,0l-3 -6c1,-3 5,-5 7,-5 0,0 0,0 0,0 0,-1 0,-1 1,-1 0,0 1,0 1,1 0,0 0,0 0,0z"/>
    <circle class="fil8" cx="290" cy="413" r="3"/>
    <path class="fil8" d="M282 375c2,1 6,2 7,5l-3 7c-3,-1 -6,-1 -10,0l-2 -7c1,-3 4,-4 6,-5 0,0 0,0 0,0 0,0 1,-1 1,-1 1,0 1,1 1,1 0,0 0,0 0,0z"/>
    <path class="fil8" d="M299 375c2,1 6,2 6,5l-2 7c-4,-1 -7,-1 -10,0l-2 -7c0,-3 4,-4 6,-5 0,0 0,0 0,0 0,0 0,-1 1,-1 0,0 1,1 1,1 0,0 0,0 0,0z"/>
    <g>
     <g>
      <path id="path2856" class="fil8" d="M273 348c6,5 11,2 16,-1 -5,-3 -12,-4 -16,1zm1 0c2,2 4,2 6,2 2,0 5,-1 8,-3 -3,-1 -7,-2 -9,-1 -2,0 -3,1 -5,2z" />
      <path id="path2874" class="fil8" d="M271 344c6,3 11,-1 15,-6 -6,-1 -13,-1 -15,6zm1 -1c2,1 4,1 5,1 3,-1 5,-3 7,-5 -3,-1 -6,-1 -9,1 -1,1 -2,2 -3,3z" />
      <path id="path2856_0" class="fil8" d="M260 358c7,2 11,-3 14,-8 -6,0 -12,1 -14,8zm1 -1c2,1 4,1 5,0 3,-1 5,-4 6,-6 -3,0 -6,1 -8,2 -2,1 -3,3 -3,4z" />
      <path id="path2874_1" class="fil8" d="M256 355c7,0 10,-6 12,-12 -6,2 -12,5 -12,12zm1 -1c2,0 3,-1 5,-2 2,-2 3,-5 4,-7 -3,0 -6,2 -8,4 -1,1 -1,3 -1,5z" />
      <path id="path2856_2" class="fil8" d="M250 372c8,0 10,-7 11,-13 -6,3 -11,6 -11,13zm1 -1c2,0 4,-1 5,-2 2,-2 3,-5 4,-8 -3,1 -6,3 -8,5 -1,1 -1,3 -1,5z" />
      <path id="path2874_3" class="fil8" d="M245 370c8,-2 8,-8 7,-15 -5,4 -9,9 -7,15zm1 -1c2,-1 3,-2 4,-4 2,-2 2,-5 1,-8 -2,2 -4,4 -5,7 -1,2 -1,3 0,5z" />
      <path id="path2856_4" class="fil8" d="M248 387c7,-4 6,-10 5,-16 -4,5 -8,10 -5,16zm1 -1c1,-1 3,-3 3,-5 1,-2 1,-5 0,-8 -2,2 -4,5 -4,8 0,1 0,3 1,5z" />
      <path id="path2874_5" class="fil8" d="M243 387c6,-5 3,-11 0,-16 -3,5 -5,12 0,16zm0 -1c2,-1 2,-3 3,-5 0,-3 -1,-6 -3,-8 -1,3 -2,6 -2,9 0,1 1,3 2,4z" />
      <path id="path2856_6" class="fil8" d="M251 402c6,-5 3,-11 1,-16 -3,5 -6,11 -1,16zm0 -1c1,-1 2,-3 3,-5 0,-3 -1,-6 -2,-8 -2,2 -3,5 -3,8 0,2 1,4 2,5z" />
      <path id="path2874_7" class="fil8" d="M245 403c5,-5 2,-11 -2,-16 -2,6 -3,13 2,16zm0 -1c1,-1 2,-3 2,-5 -1,-3 -2,-6 -4,-8 -1,3 -1,6 -1,9 1,2 2,3 3,4z" />
      <path id="path2856_8" class="fil8" d="M258 414c4,-6 -1,-11 -5,-15 -1,6 -1,12 5,15zm-1 -1c1,-2 2,-4 1,-6 0,-2 -3,-5 -5,-7 0,3 0,7 1,9 1,2 2,3 3,4z" />
      <path id="path2874_9" class="fil8" d="M255 418c1,-8 -5,-11 -10,-14 1,7 3,13 10,14zm-1 -1c0,-2 0,-4 -1,-6 -2,-2 -5,-4 -7,-5 0,3 1,6 3,8 2,1 3,2 5,3z" />
      <path id="path2856_10" class="fil8" d="M267 423c2,-7 -3,-11 -8,-14 0,6 1,13 8,14zm0 -1c0,-2 0,-4 -1,-5 -1,-3 -4,-5 -6,-6 0,3 1,6 3,8 1,2 2,3 4,3z" />
      <path id="path2874_11" class="fil8" d="M266 427c-1,-7 -7,-9 -14,-9 3,5 7,11 14,9zm-1 -1c-1,-2 -1,-3 -3,-4 -2,-2 -5,-3 -8,-3 1,2 3,5 6,7 1,0 3,1 5,0z" />
      <path id="path2856_12" class="fil8" d="M282 429c-2,-8 -8,-8 -15,-8 4,5 8,10 15,8zm-1 -1c-1,-2 -2,-4 -4,-5 -2,-1 -5,-1 -8,-2 2,3 4,6 7,7 1,0 3,0 5,0z" />
      <path id="path2874_13" class="fil8" d="M280 434c-3,-7 -9,-6 -15,-5 4,4 9,9 15,5zm-1 0c-1,-2 -2,-3 -4,-4 -3,-1 -6,-1 -9,-1 2,3 5,5 8,5 2,1 3,1 5,0z" />
     </g>
     <g>
      <path id="path2856_14" class="fil8" d="M306 348c-6,5 -11,2 -16,-1 6,-3 12,-4 16,1zm-1 0c-2,2 -3,2 -5,2 -3,0 -6,-1 -8,-3 2,-1 6,-2 9,-1 1,0 3,1 4,2z" />
      <path id="path2874_15" class="fil8" d="M308 344c-6,3 -11,-1 -15,-6 6,-1 13,-1 15,6zm-1 -1c-1,1 -3,1 -5,1 -3,-1 -5,-3 -7,-5 3,-1 6,-1 9,1 1,1 3,2 3,3z" />
      <path id="path2856_16" class="fil8" d="M319 358c-7,2 -11,-3 -14,-8 6,0 13,1 14,8zm-1 -1c-2,1 -3,1 -5,0 -3,-1 -5,-4 -6,-6 3,0 6,1 8,2 2,1 3,3 3,4z" />
      <path id="path2874_17" class="fil8" d="M323 355c-7,0 -10,-6 -11,-12 6,2 12,5 11,12zm0 -1c-2,0 -4,-1 -6,-2 -2,-2 -3,-5 -4,-7 3,0 6,2 8,4 1,1 1,3 2,5z" />
      <path id="path2856_18" class="fil8" d="M329 372c-8,0 -10,-7 -11,-13 6,3 12,6 11,13zm-1 -1c-2,0 -4,-1 -5,-2 -2,-2 -3,-5 -4,-8 3,1 6,3 8,5 1,1 1,3 1,5z" />
      <path id="path2874_19" class="fil8" d="M334 370c-7,-2 -8,-8 -7,-15 5,4 9,9 7,15zm-1 -1c-2,-1 -3,-2 -4,-4 -1,-2 -1,-5 -1,-8 2,2 4,4 5,7 1,2 1,3 0,5z" />
      <path id="path2856_20" class="fil8" d="M331 387c-7,-4 -6,-10 -5,-16 5,5 8,10 5,16zm-1 -1c-1,-1 -3,-3 -3,-5 -1,-2 -1,-5 0,-8 2,2 4,5 4,8 1,1 0,3 -1,5z" />
      <path id="path2874_21" class="fil8" d="M336 387c-6,-5 -3,-11 0,-16 3,5 5,12 0,16zm0 -1c-1,-1 -2,-3 -2,-5 -1,-3 1,-6 2,-8 1,3 2,6 2,9 0,1 -1,3 -2,4z" />
      <path id="path2856_22" class="fil8" d="M328 402c-6,-5 -3,-11 -1,-16 4,5 6,11 1,16zm0 -1c-1,-1 -2,-3 -2,-5 -1,-3 0,-6 2,-8 1,2 2,5 2,8 0,2 -1,4 -2,5z" />
      <path id="path2874_23" class="fil8" d="M334 403c-5,-5 -2,-11 2,-16 2,6 4,13 -2,16zm0 -1c-1,-1 -2,-3 -2,-5 1,-3 2,-6 4,-8 1,3 2,6 1,9 -1,2 -2,3 -3,4z" />
      <path id="path2856_24" class="fil8" d="M321 414c-3,-6 1,-11 5,-15 1,6 2,12 -5,15zm1 -1c-1,-2 -2,-4 -1,-6 1,-2 3,-5 5,-7 0,3 0,7 -1,9 -1,2 -2,3 -3,4z" />
      <path id="path2874_25" class="fil8" d="M325 418c-2,-8 4,-11 9,-14 0,7 -2,13 -9,14zm0 -1c0,-2 0,-4 2,-6 1,-2 4,-4 6,-5 0,3 -1,6 -3,8 -1,1 -3,2 -5,3z" />
      <path id="path2856_26" class="fil8" d="M312 423c-2,-7 3,-11 8,-14 0,6 -1,13 -8,14zm1 -1c-1,-2 -1,-4 0,-5 1,-3 4,-5 6,-6 0,3 -1,6 -2,8 -1,2 -3,3 -4,3z" />
      <path id="path2874_27" class="fil8" d="M313 427c1,-7 7,-9 14,-9 -3,5 -7,11 -14,9zm1 -1c1,-2 2,-3 3,-4 2,-2 5,-3 8,-3 -1,2 -3,5 -6,7 -1,0 -3,1 -5,0z" />
      <path id="path2856_28" class="fil8" d="M297 429c2,-8 8,-8 15,-8 -4,5 -8,10 -15,8zm1 -1c1,-2 2,-4 4,-5 2,-1 5,-1 8,-2 -2,3 -4,6 -7,7 -1,0 -3,0 -5,0z" />
      <path id="path2874_29" class="fil8" d="M299 434c3,-7 9,-6 16,-5 -5,4 -9,9 -16,5zm1 0c1,-2 2,-3 4,-4 3,-1 6,-1 9,-1 -2,3 -5,5 -8,5 -1,1 -3,1 -5,0z" />
     </g>
    </g>
    <path class="fil8" d="M289 434c0,0 -1,0 -1,0 -2,1 -4,2 -6,2l0 0 0 -1 0 0c2,0 4,-1 5,-2 0,0 1,0 1,0 -2,-1 -3,-3 -3,-5 0,-2 2,-4 4,-4 2,0 3,2 4,4 0,2 -1,4 -3,5 0,0 0,0 0,0 2,1 4,2 5,2l1 0 0 1 -1 0c-2,0 -4,-1 -5,-2 -1,0 -1,0 -1,0zm0 -2c1,-1 3,-3 2,-4 0,-1 -1,-3 -2,-3 -2,0 -3,2 -3,3 0,1 1,3 3,4z"/>
   </g>
   <g>
    <path class="fil1" d="M290 659c2,0 4,2 6,5 1,-3 2,-5 4,-6 2,0 4,0 5,1 0,-2 1,-4 3,-5 2,-2 4,-2 8,-1 -2,-3 -1,-5 0,-7 1,-2 4,-3 8,-3 -2,-2 -2,-4 -2,-6 1,-2 2,-3 5,-4 -3,-2 -5,-4 -5,-6 0,-3 2,-5 5,-7 -3,0 -5,-2 -5,-4 -1,-2 -1,-3 0,-5 -2,0 -4,-1 -5,-3 -2,-2 -2,-4 -1,-7 -3,1 -5,1 -7,-1 -2,-1 -3,-4 -2,-8 -3,2 -5,3 -7,2 -2,-1 -3,-2 -4,-4 -2,2 -4,4 -6,4 -3,0 -5,-2 -7,-4 0,2 -2,4 -4,5 -1,0 -3,0 -5,-1 0,2 -1,4 -3,5 -2,2 -4,2 -7,1 1,3 1,5 -1,7 -1,2 -4,3 -8,3 2,2 3,4 2,6 -1,2 -2,4 -4,4 2,2 4,4 4,7 0,2 -2,4 -4,6 2,1 4,2 5,4 0,2 0,3 -1,5 2,0 4,1 5,3 2,2 2,4 1,7 3,-1 5,-1 7,1 2,1 3,4 3,8 2,-2 4,-2 6,-2 2,1 4,2 5,4 1,-2 3,-4 6,-4zm29 -90c7,-5 15,-7 17,-6 2,1 2,10 -1,19 8,-4 17,-4 18,-2 2,2 0,9 -5,16 13,-3 24,1 24,4 1,2 -3,8 -10,13 20,1 36,10 36,14 0,3 -15,12 -35,13 7,5 11,10 10,13 -1,3 -13,6 -26,3 6,7 8,15 6,17 -1,2 -10,2 -19,-2 4,9 4,18 2,19 -2,2 -9,0 -16,-5 3,13 -1,23 -3,24 -3,1 -9,-3 -14,-10 -1,20 -10,36 -13,36 -4,0 -13,-15 -14,-35 -5,7 -10,11 -12,10 -3,-1 -7,-13 -4,-26 -7,6 -15,8 -17,6 -2,-1 -2,-10 2,-19 -9,4 -17,4 -19,2 -1,-2 0,-9 5,-16 -12,3 -23,-1 -24,-4 -1,-2 3,-8 10,-13 -20,-1 -36,-10 -36,-13 0,-4 16,-13 35,-14 -7,-5 -11,-10 -10,-13 1,-3 13,-6 26,-3 -5,-7 -7,-15 -6,-17 1,-2 10,-2 19,2 -4,-9 -4,-18 -2,-19 2,-1 9,0 16,5 -3,-12 1,-23 4,-24 2,-1 8,3 13,10 1,-20 10,-36 14,-36 3,0 12,16 13,35 5,-7 11,-11 13,-10 3,1 7,13 3,26z"/>
    <path class="fil2" d="M333 612c-1,-3 4,-8 12,-10 8,-3 17,-2 21,0 -2,4 -9,9 -17,12 -8,2 -15,2 -16,-2zm6 15c0,-5 10,-8 21,-8 12,0 24,4 28,8 -4,3 -16,7 -28,7 -11,0 -21,-3 -21,-7zm-5 13c1,-3 8,-4 16,-1 7,2 15,8 17,11 -4,2 -13,3 -21,1 -8,-3 -13,-7 -12,-11zm-10 12c2,-3 8,-2 14,3 6,4 10,10 10,14 -3,1 -11,-1 -17,-5 -6,-4 -9,-9 -7,-12zm-10 10c3,-2 8,1 13,6 4,6 6,14 5,17 -4,0 -11,-4 -15,-9 -4,-6 -6,-12 -3,-14zm-10 8c3,-1 8,4 10,12 3,8 2,17 0,21 -3,-2 -9,-9 -12,-17 -2,-8 -2,-15 2,-16zm-14 6c4,0 7,10 7,21 0,12 -4,24 -7,28 -4,-4 -8,-16 -8,-28 0,-11 4,-21 8,-21zm-14 -5c3,1 4,8 2,16 -3,7 -9,15 -12,16 -2,-3 -3,-12 -1,-20 3,-8 8,-13 11,-12zm-12 -10c3,2 2,8 -2,14 -4,6 -11,10 -15,10 -1,-3 1,-11 5,-17 4,-6 9,-9 12,-7zm-10 -10c2,3 -1,8 -6,12 -6,5 -13,7 -17,6 0,-4 4,-11 10,-15 5,-4 11,-6 13,-3zm-8 -10c1,3 -4,8 -12,10 -8,3 -17,2 -21,0 2,-3 9,-9 17,-12 8,-2 15,-2 16,2zm-6 -14c0,4 -9,7 -21,7 -11,0 -24,-4 -28,-7 4,-4 17,-8 28,-8 12,0 21,3 21,8zm6 -14c-2,3 -9,4 -16,1 -8,-2 -15,-8 -17,-11 3,-2 13,-3 20,-1 8,3 14,7 13,11zm9 -12c-2,3 -8,2 -14,-2 -5,-5 -10,-11 -10,-15 4,-1 11,1 17,5 6,4 9,9 7,12zm10 -10c-3,2 -8,-1 -12,-6 -5,-6 -7,-14 -6,-17 4,0 11,4 15,10 4,5 6,11 3,13zm10 -8c-3,1 -8,-4 -10,-12 -3,-8 -2,-17 0,-21 4,2 9,9 12,17 2,8 2,15 -2,16zm15 -6c-4,0 -8,-9 -8,-21 0,-11 4,-24 8,-28 3,4 7,17 7,28 0,12 -3,21 -7,21zm13 5c-3,-1 -4,-8 -1,-16 2,-7 8,-15 12,-16 2,3 2,12 0,20 -3,8 -7,14 -11,12zm12 10c-3,-2 -1,-8 3,-14 4,-6 10,-10 14,-10 1,4 -1,11 -5,17 -4,6 -9,9 -12,7zm10 10c-2,-3 1,-8 6,-12 6,-5 14,-7 17,-6 0,4 -4,11 -9,15 -6,4 -12,6 -14,3z"/>
    <path class="fil3" d="M286 630l-69 25 -1 -2c-2,-9 -3,-18 -3,-26 0,-9 1,-18 3,-27l1 -2 69 25 -25 -69 2 -1c9,-2 18,-3 27,-3 8,0 17,1 26,3l2 1 -25 69 69 -25 1 2c2,9 3,18 3,27 0,8 -1,17 -3,26l-1 2 -69 -25 25 69 -2 1c-9,2 -18,3 -26,3 -9,0 -18,-1 -27,-3l-2 -1 25 -69z"/>
    <path class="fil4" d="M267 696c8,1 15,2 23,2 7,0 15,-1 22,-2l-22 -62 -23 62zm30 -69l62 22c1,-8 2,-15 2,-22 0,-8 -1,-15 -2,-23l-62 23zm-7 -8l22 -62c-7,-1 -15,-2 -22,-2 -8,0 -15,1 -23,2l23 62zm-8 8l-61 -23c-2,8 -3,15 -3,23 0,7 1,14 3,22l61 -22z"/>
    <circle class="fil2" cx="290" cy="627" r="53"/>
    <circle class="fil1" cx="290" cy="627" r="34"/>
    <path class="fil5" d="M273 652l2 -2 0 0c0,1 0,1 0,1 0,1 1,1 1,1l0 0 2 -4c0,0 0,0 0,0 0,-1 0,-1 0,-1 0,0 0,0 0,0 0,0 0,0 -1,0l1 -1 4 2 -1 1c0,0 0,0 0,-1 0,0 0,0 -1,0 0,0 0,0 0,0 0,0 0,1 0,1l0 0 -2 4 0 0c1,0 1,0 1,0 1,0 1,0 1,-1l1 1 -1 2 -7 -3z"/>
    <path id="1" class="fil5" d="M271 646l-1 -1c0,0 -1,0 -1,-1 0,0 0,1 -1,1 0,0 0,0 0,1 0,0 0,0 0,1l1 0 2 -1zm2 -2c0,0 0,0 0,-1 0,0 0,0 0,0l-1 0 1 -1 3 3 -1 1 0 -1c0,0 0,0 0,0 -1,0 -1,0 -1,0l-3 3c0,0 0,1 0,1 0,0 0,0 0,0l0 1 0 0 -4 -3c0,-1 -1,-2 -1,-2 0,-1 0,-1 1,-2 0,0 0,0 1,0 0,0 1,0 1,0 0,0 0,0 0,-1 0,0 0,0 0,-1l1 0c0,0 0,0 0,-1 0,0 0,0 0,0 0,0 0,0 0,0 0,0 -1,0 -1,1l0 -1c0,0 0,0 0,0 0,0 0,0 0,0 0,-1 1,-1 1,-1 1,0 1,0 1,1 1,0 1,1 1,1 0,1 0,1 -1,1l0 1c-1,0 -1,0 -1,1 0,0 0,0 1,0l0 1 2 -1z"/>
    <path id="2" class="fil5" d="M270 638l-1 1 0 -1c0,0 0,0 0,0 0,0 -1,0 -1,0l-4 2c0,0 0,0 0,0 0,0 0,0 0,1l0 0 -1 0 -2 -4 1 0 0 0c1,1 1,1 1,1 0,0 0,0 0,0l4 -2c0,0 1,0 1,0 0,0 0,-1 0,-1l-1 0 1 -1 2 4z"/>
    <path id="3" class="fil5" d="M264 630l-2 2 2 0 0 -2zm4 4l-1 0 0 0c0,0 0,0 0,0 0,-1 -1,-1 -1,-1l-6 -1 0 -2 5 -3c0,0 1,0 1,0 0,0 0,0 0,0l0 -1 1 0 0 4 -1 0 0 0c0,0 0,0 0,-1 0,0 0,0 0,0 0,0 0,0 0,0 0,0 0,0 0,0l-1 1 0 2 1 0c0,0 0,0 0,0 0,0 0,0 0,0 0,0 1,0 1,0 0,0 0,0 0,-1l-1 0 1 0 1 3z"/>
    <path id="4" class="fil5" d="M263 617c-1,0 -1,0 -1,0 0,0 0,0 0,1l0 0 -1 0 1 -4 1 0 0 0c0,1 0,1 0,1 0,0 0,0 0,0l3 1c1,1 2,1 2,2 1,0 1,1 0,2 0,1 0,1 -1,1 -1,1 -1,1 -2,1 0,0 0,-1 -1,-1 0,0 0,-1 0,-1 0,0 1,0 1,-1 0,0 0,0 1,0 0,0 0,1 0,1 0,0 0,0 0,1 0,0 0,0 0,0 0,0 0,0 0,0 0,0 1,0 1,0 0,-1 0,-1 0,-1 0,0 0,-1 0,-1 0,0 -1,0 -1,-1l-3 -1z"/>
    <path id="5" class="fil5" d="M264 612l-1 -1 3 -3 1 0c0,0 0,0 0,0 0,0 0,1 0,1 -1,0 -1,0 -1,0 0,0 1,1 1,1l2 2c1,0 1,0 1,0 1,0 1,0 1,0 1,-1 1,-1 1,-1 0,-1 0,-1 -1,-1l-2 -2c-1,-1 -1,-1 -1,-1 0,0 0,0 -1,1 0,0 0,0 0,0 0,0 0,0 0,0l-1 -1 3 -2 0 0c0,0 0,1 0,1 0,0 0,0 0,0 0,0 0,0 0,0 0,0 0,1 1,1l2 2c1,0 1,1 1,1 0,1 0,2 -1,3 -1,0 -1,1 -2,1 0,0 -1,0 -2,0l-2 -2c-1,-1 -1,-1 -1,-1 0,0 0,0 -1,0 0,0 0,1 0,1 0,0 0,0 0,0z"/>
    <path id="6" class="fil5" d="M273 603c0,0 0,0 0,0 -1,0 -1,0 -1,0l0 0 -1 -1 3 -1 5 3 -1 -3c-1,-1 -1,-1 -1,-1 0,0 0,0 0,0l-1 1 0 -1 3 -2 0 1 0 0c0,0 0,0 -1,0 0,1 1,1 1,1l3 5 -2 1 -6 -3 2 3c0,1 0,1 0,1 1,0 1,0 1,0l0 -1 1 1 -3 2 -1 -1 1 0c0,0 0,0 0,0 0,-1 0,-1 0,-1l-2 -4z"/>
    <path id="7" class="fil5" d="M289 601l1 0c0,1 0,2 -1,2 0,1 -1,1 -2,1 -1,0 -2,0 -3,0 -1,-1 -1,-2 -1,-3 0,-1 0,-1 0,-2 0,0 0,-1 0,-1 1,-1 1,-1 2,-1 0,0 0,-1 1,-1 0,0 1,0 1,0 1,1 1,1 1,1l0 -1 1 0 1 3 -1 0c0,0 -1,-1 -1,-1 0,-1 -1,-1 -1,-1 -1,1 -1,1 -2,1 0,1 0,2 0,3 0,0 0,1 1,2 0,0 1,0 1,0 1,0 1,0 2,-1 0,0 0,0 0,-1z"/>
    <path id="8" class="fil5" d="M300 598l-1 3 -1 0c1,-1 1,-1 0,-2 0,0 0,0 -1,-1l0 0 -1 5c0,0 0,1 0,1 0,0 0,0 0,0 0,0 0,0 1,0 0,0 0,0 0,0l0 1 -4 -1 0 -1c0,0 0,0 0,0 1,0 1,0 1,0 0,0 0,0 0,0 0,0 0,0 0,0l0 0 1 -5 0 0c0,0 -1,0 -1,0 0,0 -1,1 -1,1l-1 0 1 -3 7 2z"/>
    <path id="9" class="fil5" d="M304 605l0 -3 -2 2 2 1zm-6 0l1 -1 0 0c0,1 0,1 0,1 0,0 1,-1 1,-1l5 -4 2 2 -2 6c0,0 0,0 0,0 0,0 0,0 0,1l1 0 -1 1 -3 -3 0 -1 0 1c1,0 1,0 1,0 0,0 0,0 0,0 0,0 0,0 0,0 0,0 0,0 0,0l0 -1 -1 -2 -1 1c0,0 0,0 0,0 0,0 0,0 0,0 0,0 0,0 0,1 0,0 0,0 0,0l0 0 0 1 -3 -2z"/>
    <path id="10" class="fil5" d="M307 612l1 0 0 0c1,1 1,1 1,1 0,0 0,0 0,0l4 -3c0,0 0,0 0,0 0,0 0,0 0,-1l0 0 1 -1 2 4 -1 1 0 -1c0,0 0,0 0,0 0,0 -1,0 -1,0l-3 2c-1,1 -1,1 -1,1 0,0 0,0 0,0l1 1 -1 0 -3 -4z"/>
    <path id="11" class="fil5" d="M316 616c0,0 1,0 1,0 0,0 0,-1 0,-1l0 0 0 0 1 3 -4 4 4 -1c0,0 0,0 0,0 0,0 0,0 0,-1l0 0 1 0 1 3 -1 0 0 0c0,0 0,-1 0,-1 -1,0 -1,0 -1,0l-6 2 0 -2 4 -5 -4 1c0,0 0,1 0,1 0,0 0,0 0,0l0 1 -1 0 -1 -3 1 -1 0 1c0,0 0,0 1,0 0,0 0,0 0,0l4 -1z"/>
    <path id="12" class="fil5" d="M319 631l1 0 -2 4 0 0c0,0 0,0 0,0 0,0 0,0 0,0 0,-1 0,-1 0,-1 0,0 -1,0 -1,0l-3 -1c-1,0 -1,0 -1,0 -1,0 -1,0 -1,1 0,0 0,1 0,1 0,0 0,0 1,0l3 1c0,0 1,0 1,0 0,0 0,0 0,0 0,0 0,0 0,0 0,0 0,0 0,0l1 0 -1 3 -1 0c1,-1 1,-1 1,-1 0,0 0,0 0,0 -1,0 -1,0 -1,0 0,0 0,0 0,-1l-3 0c-1,-1 -2,-1 -2,-2 0,0 0,-1 0,-2 0,-1 1,-2 1,-2 1,0 1,-1 2,0l3 1c1,0 1,0 1,0 0,0 1,-1 1,-1 0,0 0,0 0,0 0,0 0,0 0,0z"/>
    <path id="13" class="fil5" d="M314 642c0,0 0,0 0,0 0,0 0,0 1,0l0 -1 1 1 -3 3 -5 -1 2 2c1,0 1,0 1,0 0,0 0,0 0,0l1 0 0 0 -2 3 -1 -1 1 0c0,0 0,0 0,0 0,-1 0,-1 0,-1l-5 -4 1 -1 7 1 -3 -3c-1,0 -1,0 -1,0 0,0 0,0 0,0l-1 1 0 -1 2 -3 1 1 -1 0c0,1 0,1 0,1 0,0 0,0 0,0l4 3z"/>
    <path id="14" class="fil5" d="M303 649c0,-1 -1,-1 -1,-2 -1,0 -1,0 -2,0 0,1 0,1 -1,2 0,0 1,1 1,2 1,1 1,1 2,2 0,0 0,0 1,0 1,-1 1,-1 1,-2 0,0 0,-1 -1,-2zm2 -1c1,1 1,2 1,3 -1,1 -1,2 -2,2 -2,1 -3,1 -4,1 -1,0 -1,-1 -2,-2 -1,-1 -1,-2 0,-3 0,-1 1,-2 2,-3 1,0 2,0 3,0 1,0 2,1 2,2z"/>
    <circle class="fil6" cx="290" cy="627" r="23"/>
    <circle class="fil7" cx="290" cy="627" r="21"/>
    <circle class="fil1" cx="290" cy="627" r="19"/>
    <path class="fil8" d="M291 630c1,0 5,2 6,5l-3 6c-3,0 -6,0 -9,0l-3 -6c1,-3 5,-5 7,-5 0,0 0,0 0,0 0,-1 0,-1 1,-1 0,0 1,0 1,1 0,0 0,0 0,0z"/>
    <circle class="fil8" cx="290" cy="653" r="3"/>
    <path class="fil8" d="M282 616c2,0 6,1 7,4l-3 7c-3,-1 -6,-1 -10,0l-2 -7c1,-2 4,-4 6,-4 0,-1 0,-1 0,-1 0,0 1,-1 1,-1 1,0 1,1 1,1 0,0 0,0 0,1z"/>
    <path class="fil8" d="M299 616c2,0 6,1 6,4l-2 7c-4,-1 -7,-1 -10,0l-2 -7c0,-2 4,-4 6,-4 0,-1 0,-1 0,-1 0,0 0,-1 1,-1 0,0 1,1 1,1 0,0 0,0 0,1z"/>
    <g>
     <g>
      <path id="path2856_30" class="fil8" d="M273 589c6,4 11,1 16,-2 -5,-3 -12,-4 -16,2zm1 -1c2,2 4,2 6,2 2,0 5,-1 8,-3 -3,-1 -7,-2 -9,-1 -2,0 -3,1 -5,2z" />
      <path id="path2874_31" class="fil8" d="M271 584c6,3 11,-1 15,-6 -6,-1 -13,-1 -15,6zm1 0c2,0 4,0 5,0 3,-1 5,-3 7,-5 -3,-1 -6,-1 -9,1 -1,1 -2,2 -3,4z" />
      <path id="path2856_32" class="fil8" d="M260 598c7,2 11,-2 14,-8 -6,0 -12,1 -14,8zm1 -1c2,1 4,1 5,0 3,-1 5,-4 6,-6 -3,0 -6,1 -8,2 -2,1 -3,3 -3,4z" />
      <path id="path2874_33" class="fil8" d="M256 595c7,0 10,-6 12,-12 -6,2 -12,5 -12,12zm1 -1c2,0 3,-1 5,-2 2,-2 3,-5 4,-7 -3,1 -6,2 -8,4 -1,1 -1,3 -1,5z" />
      <path id="path2856_34" class="fil8" d="M250 612c8,0 10,-6 11,-13 -6,3 -11,6 -11,13zm1 -1c2,0 4,-1 5,-2 2,-2 3,-5 4,-8 -3,1 -6,3 -8,5 -1,2 -1,3 -1,5z" />
      <path id="path2874_35" class="fil8" d="M245 610c8,-2 8,-8 7,-15 -5,4 -9,9 -7,15zm1 -1c2,-1 3,-2 4,-4 2,-2 2,-5 1,-8 -2,2 -4,4 -5,7 -1,2 -1,3 0,5z" />
      <path id="path2856_36" class="fil8" d="M248 627c7,-4 6,-10 5,-16 -4,5 -8,10 -5,16zm1 -1c1,-1 3,-3 3,-5 1,-2 1,-5 0,-8 -2,2 -4,5 -4,8 0,1 0,3 1,5z" />
      <path id="path2874_37" class="fil8" d="M243 627c6,-5 3,-10 0,-16 -3,6 -5,12 0,16zm0 -1c2,-1 2,-3 3,-5 0,-3 -1,-6 -3,-8 -1,3 -2,6 -2,9 0,1 1,3 2,4z" />
      <path id="path2856_38" class="fil8" d="M251 642c6,-5 3,-11 1,-16 -3,5 -6,11 -1,16zm0 -1c1,-1 2,-3 3,-5 0,-3 -1,-6 -2,-8 -2,2 -3,5 -3,8 0,2 1,4 2,5z" />
      <path id="path2874_39" class="fil8" d="M245 644c5,-6 2,-12 -2,-17 -2,6 -3,13 2,17zm0 -2c1,-1 2,-3 2,-5 -1,-3 -2,-5 -4,-8 -1,3 -1,6 -1,9 1,2 2,3 3,4z" />
      <path id="path2856_40" class="fil8" d="M258 654c4,-6 -1,-11 -5,-15 -1,6 -1,12 5,15zm-1 -1c1,-2 2,-4 1,-6 0,-2 -3,-5 -5,-7 0,3 0,7 1,9 1,2 2,3 3,4z" />
      <path id="path2874_41" class="fil8" d="M255 658c1,-8 -5,-11 -10,-14 1,7 3,13 10,14zm-1 -1c0,-2 0,-4 -1,-6 -2,-2 -5,-4 -7,-5 0,3 1,6 3,8 2,2 3,2 5,3z" />
      <path id="path2856_42" class="fil8" d="M267 663c2,-7 -3,-11 -8,-14 0,6 1,13 8,14zm0 -1c0,-2 0,-4 -1,-5 -1,-3 -4,-5 -6,-6 0,3 1,6 3,8 1,2 2,3 4,3z" />
      <path id="path2874_43" class="fil8" d="M266 667c-1,-7 -7,-9 -14,-9 3,5 7,11 14,9zm-1 -1c-1,-2 -1,-3 -3,-4 -2,-2 -5,-3 -8,-3 1,2 3,5 6,7 1,0 3,1 5,0z" />
      <path id="path2856_44" class="fil8" d="M282 669c-2,-8 -8,-8 -15,-8 4,5 8,10 15,8zm-1 -1c-1,-2 -2,-3 -4,-5 -2,-1 -5,-1 -8,-1 2,2 4,5 7,6 1,0 3,0 5,0z" />
      <path id="path2874_45" class="fil8" d="M280 674c-3,-6 -9,-6 -15,-5 4,4 9,9 15,5zm-1 0c-1,-2 -2,-3 -4,-4 -3,-1 -6,-1 -9,-1 2,3 5,5 8,5 2,1 3,1 5,0z" />
     </g>
     <g>
      <path id="path2856_46" class="fil8" d="M306 589c-6,4 -11,1 -16,-2 6,-3 12,-4 16,2zm-1 -1c-2,2 -3,2 -5,2 -3,0 -6,-1 -8,-3 2,-1 6,-2 9,-1 1,0 3,1 4,2z" />
      <path id="path2874_47" class="fil8" d="M308 584c-6,3 -11,-1 -15,-6 6,-1 13,-1 15,6zm-1 0c-1,0 -3,0 -5,0 -3,-1 -5,-3 -7,-5 3,-1 6,-1 9,1 1,1 3,2 3,4z" />
      <path id="path2856_48" class="fil8" d="M319 598c-7,2 -11,-2 -14,-8 6,0 13,1 14,8zm-1 -1c-2,1 -3,1 -5,0 -3,-1 -5,-4 -6,-6 3,0 6,1 8,2 2,1 3,3 3,4z" />
      <path id="path2874_49" class="fil8" d="M323 595c-7,0 -10,-6 -11,-12 6,2 12,5 11,12zm0 -1c-2,0 -4,-1 -6,-2 -2,-2 -3,-5 -4,-7 3,1 6,2 8,4 1,1 1,3 2,5z" />
      <path id="path2856_50" class="fil8" d="M329 612c-8,0 -10,-6 -11,-13 6,3 12,6 11,13zm-1 -1c-2,0 -4,-1 -5,-2 -2,-2 -3,-5 -4,-8 3,1 6,3 8,5 1,2 1,3 1,5z" />
      <path id="path2874_51" class="fil8" d="M334 610c-7,-2 -8,-8 -7,-15 5,4 9,9 7,15zm-1 -1c-2,-1 -3,-2 -4,-4 -1,-2 -1,-5 -1,-8 2,2 4,4 5,7 1,2 1,3 0,5z" />
      <path id="path2856_52" class="fil8" d="M331 627c-7,-4 -6,-10 -5,-16 5,5 8,10 5,16zm-1 -1c-1,-1 -3,-3 -3,-5 -1,-2 -1,-5 0,-8 2,2 4,5 4,8 1,1 0,3 -1,5z" />
      <path id="path2874_53" class="fil8" d="M336 627c-6,-5 -3,-10 0,-16 3,6 5,12 0,16zm0 -1c-1,-1 -2,-3 -2,-5 -1,-3 1,-6 2,-8 1,3 2,6 2,9 0,1 -1,3 -2,4z" />
      <path id="path2856_54" class="fil8" d="M328 642c-6,-5 -3,-11 -1,-16 4,5 6,11 1,16zm0 -1c-1,-1 -2,-3 -2,-5 -1,-3 0,-6 2,-8 1,2 2,5 2,8 0,2 -1,4 -2,5z" />
      <path id="path2874_55" class="fil8" d="M334 644c-5,-6 -2,-12 2,-17 2,6 4,13 -2,17zm0 -2c-1,-1 -2,-3 -2,-5 1,-3 2,-5 4,-8 1,3 2,6 1,9 -1,2 -2,3 -3,4z" />
      <path id="path2856_56" class="fil8" d="M321 654c-3,-6 1,-11 5,-15 1,6 2,12 -5,15zm1 -1c-1,-2 -2,-4 -1,-6 1,-2 3,-5 5,-7 0,3 0,7 -1,9 -1,2 -2,3 -3,4z" />
      <path id="path2874_57" class="fil8" d="M325 658c-2,-8 4,-11 9,-14 0,7 -2,13 -9,14zm0 -1c0,-2 0,-4 2,-6 1,-2 4,-4 6,-5 0,3 -1,6 -3,8 -1,2 -3,2 -5,3z" />
      <path id="path2856_58" class="fil8" d="M312 663c-2,-7 3,-11 8,-14 0,6 -1,13 -8,14zm1 -1c-1,-2 -1,-4 0,-5 1,-3 4,-5 6,-6 0,3 -1,6 -2,8 -1,2 -3,3 -4,3z" />
      <path id="path2874_59" class="fil8" d="M313 667c1,-7 7,-9 14,-9 -3,5 -7,11 -14,9zm1 -1c1,-2 2,-3 3,-4 2,-2 5,-3 8,-3 -1,2 -3,5 -6,7 -1,0 -3,1 -5,0z" />
      <path id="path2856_60" class="fil8" d="M297 669c2,-8 8,-8 15,-8 -4,5 -8,10 -15,8zm1 -1c1,-2 2,-3 4,-5 2,-1 5,-1 8,-1 -2,2 -4,5 -7,6 -1,0 -3,0 -5,0z" />
      <path id="path2874_61" class="fil8" d="M299 674c3,-6 9,-6 16,-5 -5,4 -9,9 -16,5zm1 0c1,-2 2,-3 4,-4 3,-1 6,-1 9,-1 -2,3 -5,5 -8,5 -1,1 -3,1 -5,0z" />
     </g>
    </g>
    <path class="fil8" d="M289 674c0,0 -1,0 -1,0 -2,1 -4,2 -6,2l0 0 0 -1 0 0c2,0 4,-1 5,-2 0,0 1,0 1,0 -2,-1 -3,-3 -3,-5 0,-2 2,-4 4,-4 2,0 3,2 4,4 0,2 -1,4 -3,5 0,0 0,0 0,0 2,1 4,2 5,2l1 0 0 1 -1 0c-2,0 -4,-1 -5,-2 -1,0 -1,0 -1,0zm0 -2c1,-1 3,-3 2,-4 0,-1 -1,-3 -2,-3 -2,0 -3,2 -3,3 0,1 1,3 3,4z"/>
   </g>
  </g>
 </g>
</svg>
