<?xml version="1.0" encoding="UTF-8"?>
<!DOCTYPE svg PUBLIC "-//W3C//DTD SVG 1.1//EN" "http://www.w3.org/Graphics/SVG/1.1/DTD/svg11.dtd">
<!-- Creator: CorelDRAW X8 -->
<svg xmlns="http://www.w3.org/2000/svg" xml:space="preserve" width="39.8639mm" height="62.5556mm" version="1.1" style="shape-rendering:geometricPrecision; text-rendering:geometricPrecision; image-rendering:optimizeQuality; fill-rule:evenodd; clip-rule:evenodd"
viewBox="0 0 403 632"
 xmlns:xlink="http://www.w3.org/1999/xlink">
 <defs>
  <style type="text/css">
   <![CDATA[
    .fil1 {fill:#EBECEC}
    .fil0 {fill:#2B2A29}
    .fil2 {fill:#FEFEFE;fill-rule:nonzero}
   ]]>
  </style>
 </defs>
 <g id="BS_x0020_Inner_x0020_Circle">
  <metadata id="CorelCorpID_0Corel-Layer"/>
  <polygon class="fil0" points="353,0 403,632 201,632 0,632 50,0 "/>
  <g id="_1651531383024">
   <path class="fil1" d="M201 515c23,-31 47,-60 98,-60l0 21c-38,0 -70,25 -89,57l-9 16 -9 -16c-18,-32 -50,-57 -88,-57l0 -21c50,0 74,29 97,60z"/>
   <path class="fil1" d="M201 474c23,-31 47,-61 98,-61l0 21c-38,0 -70,26 -89,57l-9 16 -9 -16c-18,-31 -50,-57 -88,-57l0 -21c50,0 74,30 97,61z"/>
   <path class="fil1" d="M201 433c23,-32 47,-61 98,-61l0 21c-38,0 -70,25 -89,57l-9 16 -9 -16c-18,-32 -50,-57 -88,-57l0 -21c50,0 74,29 97,61z"/>
  </g>
  <path class="fil2" d="M134 338l0 6 -37 0c0,-2 0,-3 1,-5 1,-2 2,-5 4,-7 2,-2 5,-5 9,-8 6,-5 10,-9 12,-12 2,-3 4,-6 4,-8 0,-3 -1,-5 -3,-7 -2,-2 -5,-3 -8,-3 -3,0 -6,1 -8,3 -2,2 -3,5 -3,8l-7 0c1,-6 3,-10 6,-12 3,-3 7,-4 12,-4 6,0 10,1 13,4 3,3 5,7 5,11 0,2 -1,4 -2,6 -1,3 -2,5 -4,7 -2,3 -6,6 -11,10 -4,3 -7,6 -8,7 -1,1 -2,2 -3,4l28 0zm7 -21c0,-7 1,-12 2,-16 1,-4 3,-7 6,-9 3,-2 6,-3 10,-3 3,0 5,0 8,1 2,2 4,3 5,6 2,2 3,5 4,8 1,3 1,7 1,13 0,6 -1,12 -2,16 -1,4 -3,7 -6,9 -3,2 -6,3 -10,3 -5,0 -10,-2 -13,-6 -3,-4 -5,-12 -5,-22zm7 0c0,9 1,15 3,18 2,3 5,4 8,4 3,0 6,-1 8,-4 2,-3 3,-9 3,-18 0,-9 -1,-15 -3,-18 -2,-3 -5,-5 -8,-5 -3,0 -6,2 -8,4 -2,4 -3,10 -3,19zm36 12l7 0c0,3 2,6 4,8 2,2 4,2 7,2 3,0 5,-1 8,-3 2,-2 3,-5 3,-8 0,-3 -1,-6 -3,-8 -2,-2 -5,-3 -8,-3 -1,0 -3,0 -5,1l1 -6c1,0 1,0 1,0 3,0 6,-1 8,-2 2,-2 3,-4 3,-7 0,-3 0,-5 -2,-6 -2,-2 -4,-3 -7,-3 -2,0 -4,1 -6,3 -2,1 -3,4 -4,7l-6 -1c0,-5 2,-8 5,-11 3,-2 7,-3 11,-3 3,0 6,0 9,2 2,1 4,3 5,5 2,2 2,4 2,7 0,2 0,4 -2,6 -1,2 -3,4 -5,5 3,1 6,2 7,5 2,2 3,5 3,9 0,5 -2,9 -5,12 -4,3 -8,5 -14,5 -4,0 -8,-1 -12,-4 -3,-3 -5,-7 -5,-12zm43 -12c0,-7 1,-12 2,-16 1,-4 3,-7 6,-9 2,-2 6,-3 10,-3 3,0 5,0 8,1 2,2 4,3 5,6 2,2 3,5 4,8 0,3 1,7 1,13 0,6 -1,12 -2,16 -1,4 -3,7 -6,9 -3,2 -6,3 -10,3 -5,0 -10,-2 -13,-6 -3,-4 -5,-12 -5,-22zm7 0c0,9 1,15 3,18 2,3 5,4 8,4 3,0 6,-1 8,-4 2,-3 3,-9 3,-18 0,-9 -1,-15 -3,-18 -2,-3 -5,-5 -8,-5 -3,0 -6,2 -8,4 -2,4 -3,10 -3,19zm36 0c0,-7 0,-12 2,-16 1,-4 3,-7 6,-9 2,-2 6,-3 10,-3 3,0 5,0 8,1 2,2 4,3 5,6 2,2 3,5 4,8 0,3 1,7 1,13 0,6 -1,12 -2,16 -2,4 -4,7 -6,9 -3,2 -6,3 -10,3 -6,0 -10,-2 -13,-6 -3,-4 -5,-12 -5,-22zm7 0c0,9 1,15 3,18 2,3 5,4 8,4 3,0 6,-1 8,-4 2,-3 3,-9 3,-18 0,-9 -1,-15 -3,-18 -2,-3 -5,-5 -8,-5 -3,0 -6,2 -8,4 -2,4 -3,10 -3,19z"/>
 </g>
</svg>
