<?xml version="1.0" encoding="UTF-8"?>
<!DOCTYPE svg PUBLIC "-//W3C//DTD SVG 1.1//EN" "http://www.w3.org/Graphics/SVG/1.1/DTD/svg11.dtd">
<!-- Creator: CorelDRAW X8 -->
<svg xmlns="http://www.w3.org/2000/svg" xml:space="preserve" width="39.8639mm" height="62.5556mm" version="1.1" style="shape-rendering:geometricPrecision; text-rendering:geometricPrecision; image-rendering:optimizeQuality; fill-rule:evenodd; clip-rule:evenodd"
viewBox="0 0 726161 1139513"
 xmlns:xlink="http://www.w3.org/1999/xlink">
 <defs>
  <style type="text/css">
   <![CDATA[
    .str0 {stroke:#666766;stroke-width:939.946}
    .str2 {stroke:#806729;stroke-width:939.946}
    .str3 {stroke:gray;stroke-width:1413.56}
    .str6 {stroke:#806729;stroke-width:519.156}
    .str7 {stroke:#806729;stroke-width:996.415}
    .str1 {stroke:#772121;stroke-width:1932.72}
    .str10 {stroke:#806729;stroke-width:1063.81}
    .str18 {stroke:#806729;stroke-width:1087.5}
    .str20 {stroke:#A38C31;stroke-width:1087.5}
    .str19 {stroke:#F4D6D6;stroke-width:1087.5}
    .str11 {stroke:#806729;stroke-width:1102.07}
    .str16 {stroke:#806729;stroke-width:1142.14}
    .str17 {stroke:#A08930;stroke-width:1142.14}
    .str5 {stroke:gray;stroke-width:1167.65}
    .str21 {stroke:gray;stroke-width:2579.39}
    .str12 {stroke:#806729;stroke-width:2125.81}
    .str13 {stroke:#A08930;stroke-width:2125.81}
    .str15 {stroke:#AFC6E7;stroke-width:2125.81}
    .str14 {stroke:#D6E2F3;stroke-width:2125.81}
    .str4 {stroke:#806729;stroke-width:777.823}
    .str9 {stroke:gray;stroke-width:1284.23}
    .str8 {stroke:#806729;stroke-width:921.73}
    .fil4 {fill:none}
    .fil0 {fill:#2B2A29}
    .fil24 {fill:#1F51A4}
    .fil23 {fill:#2656A6}
    .fil26 {fill:#2F6A47}
    .fil25 {fill:#3260AD}
    .fil27 {fill:#34A364}
    .fil20 {fill:#4869B2}
    .fil21 {fill:#4D8DCB}
    .fil22 {fill:#5B7BBD}
    .fil5 {fill:dimgray}
    .fil8 {fill:#90191C}
    .fil28 {fill:#AFDBBF}
    .fil30 {fill:#BC202C}
    .fil7 {fill:#C22026}
    .fil19 {fill:#C4A942}
    .fil3 {fill:#C4C4C4}
    .fil12 {fill:#CCCCCB}
    .fil16 {fill:#CEB62C}
    .fil13 {fill:#D1B846}
    .fil15 {fill:#DCC35D}
    .fil6 {fill:#E61E25}
    .fil11 {fill:#E7CD54}
    .fil2 {fill:#EBEBEB}
    .fil29 {fill:#EE2143}
    .fil14 {fill:#F5D80B}
    .fil9 {fill:#F6DF78}
    .fil10 {fill:#F6EAA7}
    .fil18 {fill:#FEE7A7}
    .fil17 {fill:#FFEFA7}
    .fil1 {fill:white}
   ]]>
  </style>
 </defs>
 <g id="svg2">
  <metadata id="CorelCorpID_0Corel-Layer"/>
  <polygon class="fil0" points="635644,0 726161,1139513 363081,1139513 0,1139513 90517,0 "/>
  <g id="_1651536746672">
   <path class="fil1" d="M300522 1024983c0,0 0,0 0,0 0,0 0,0 0,0 -11611,645 -26442,7094 -38049,9028 -2580,1290 -3871,2580 -4516,3871 -1288,1937 -1935,3871 -1288,5804 0,1936 645,3871 3224,5803 1290,647 3224,1937 5804,2580 49014,-7740 122537,-12254 196059,0 2577,-647 4514,-1290 5803,-2580 1935,-1289 3224,-3224 3224,-5160 0,-1935 0,-5159 -1934,-7093 -1290,-1288 -2579,-2578 -5161,-3225 0,0 -19994,-7738 -38049,-9028 -18058,-1289 -38052,-1289 -47081,-1289 -9675,0 -19994,0 -29669,0 0,0 0,0 0,0 0,0 0,0 0,0 -16764,0 -34178,-5804 -48367,1289z"/>
   <path class="fil2" d="M256669 1043686c0,1936 645,3871 3224,5803 1290,647 3224,1937 5804,2580 49014,-7740 122537,-12254 196059,0 2577,-647 4514,-1290 5803,-2580 1935,-1289 3224,-3224 3224,-5160 2582,-14185 -217985,-11607 -214114,-643z"/>
   <path class="fil3" d="M259247 1049489c1289,647 3226,1937 5803,2580 49014,-7740 122537,-12254 196059,0 2579,-647 4514,-1290 5804,-2580 -32246,-7093 -73524,-9674 -104480,-9674 -36758,647 -76744,3226 -103186,9674z"/>
   <path class="fil4 str0" d="M300522 1024983c0,0 0,0 0,0 0,0 0,0 0,0 -11611,645 -26442,7094 -38049,9028 -2580,1290 -3871,2580 -4516,3871 -1288,1937 -1935,3871 -1288,5804 0,1936 645,3871 3224,5803 1290,647 3224,1937 5804,2580 49014,-7740 122537,-12254 196059,0 2577,-647 4514,-1290 5803,-2580 1935,-1289 3224,-3224 3224,-5160 0,-1935 0,-5159 -1934,-7093 -1290,-1288 -2579,-2578 -5161,-3225 0,0 -19994,-7738 -38049,-9028 -18058,-1289 -38052,-1289 -47081,-1289 -9675,0 -19994,0 -29669,0 0,0 0,0 0,0 0,0 0,0 0,0 -16764,0 -34178,-5804 -48367,1289"/>
   <path class="fil5" d="M373399 1035948c-3871,-647 -7738,-1290 -10964,-1937 -3225,-644 -5804,-1289 -8385,-2579 647,1290 1936,2579 5160,3226 -2579,0 -5160,1290 -6450,1290 1290,645 4514,1288 6450,1288 -2579,1289 -3870,2579 -4513,3870 2577,-644 5160,-1934 7738,-2577 3226,-1293 7097,-1938 10964,-2581z"/>
   <path class="fil5" d="M292139 1039815c-3871,0 -7740,-645 -10964,-1290 -3224,-645 -5804,-1289 -8385,-1934 647,1289 1935,2579 5161,3224 -2580,0 -5161,1290 -6451,1936 1290,645 4514,645 6451,645 -2580,1290 -3871,2580 -3871,3871 2579,-1290 4514,-1934 7738,-3224 2581,-1292 6450,-2581 10321,-3228z"/>
   <path class="fil5" d="M454662 1043686c-3871,-1290 -7093,-1935 -10319,-3224 -2578,-1290 -5804,-2580 -7738,-3871 645,1289 1934,2579 4514,3871 -2580,0 -5161,0 -6451,644 1290,647 3871,1937 6451,1937 -2580,647 -3871,1934 -4514,3224 2579,-645 5160,-1290 7738,-1290 2579,-1291 6448,-1291 10319,-1291z"/>
   <path class="fil5" d="M332770 1037236c-3871,-645 -7738,-1288 -10964,-1935 -3225,-647 -5804,-1290 -8385,-2579 647,1289 1936,2579 5160,3226 -2579,0 -5160,1288 -6450,1288 1290,646 4516,1289 6450,1289 -2579,1290 -3870,2580 -4513,3871 2579,-645 5160,-1934 7738,-2577 3226,-647 7093,-1937 10964,-2583z"/>
   <path class="fil5" d="M414030 1037882c-3871,-646 -7738,-1289 -10963,-2579 -3226,-645 -5805,-1935 -8386,-2578 646,1288 1936,2578 4515,3871 -2579,0 -5160,645 -6450,1288 1290,647 3871,1290 6450,1290 -2579,646 -3870,1936 -4515,3226 2579,-647 5160,-1937 7740,-2580 3871,-648 7741,-1295 11609,-1938z"/>
   <path class="fil6" d="M447565 1015309l7740 -21928 3225 -9030 7740 -4514 7738 -17413 3871 -4515 646 -16123c0,0 -5160,-11611 -13543,-15479 -11609,-5803 -27732,-5160 -27732,-5160 0,0 -3869,-9675 -10318,-13544 -6450,-3871 -14188,-4514 -21928,-4514 -7738,0 -21927,7094 -29667,9028 -3871,1290 -12899,4516 -12899,4516 0,0 -9029,-3871 -12900,-4516 -7738,-1934 -21929,-9028 -29667,-9028 -7740,0 -14833,647 -21928,4514 -6451,3871 -15478,13544 -15478,13544 0,0 -10318,-1290 -17415,3224 -9028,5161 -15478,16768 -15478,16768l647 17414 1289 6449 5804 6450 7738 13544 5161 13542 5803 17414 171551 2 0 -645z"/>
   <path class="fil7" d="M477234 956621l-3226 4514 -8385 18702 -7738 3871 -9675 31603 -172197 -647 -12254 -32246 -7739 -13542 -4515 -4515 -1288 -4514 0 -3225 -647 -10317c0,0 5804,-8387 9675,-10319 3224,-1935 12254,-1935 12254,-1935 0,0 -7094,3871 -9030,6450 -2578,3869 -3224,21282 -3224,21282 0,0 6450,-14833 10317,-17414 3226,-2580 12901,-5161 12901,-5161 0,0 -6450,6450 -7740,10319 -1290,3871 -1290,9675 646,13542 4514,8385 12899,647 12899,647l21929 -3871c0,0 -7740,-5161 -9675,-20639 -647,-4514 1935,-10964 5161,-13543 2577,-1935 5159,-3225 9028,-3871 3870,0 9027,646 12898,1289 3871,647 11611,4514 11611,4514 0,0 -9674,-645 -14188,0 -3226,0 -9030,-645 -11611,1937 -1935,1934 -2579,6450 -1935,9027 1290,4516 9675,10320 9675,10320 0,0 3224,-7740 5803,-9675 3225,-2579 9028,-2579 13542,-2579 4516,0 15480,1934 15480,1934 0,0 -12254,1290 -16768,4516 -2579,1935 -6450,9028 -6450,9028 0,0 24506,0 41921,647 8384,0 15478,5159 16124,645 1290,-4514 1935,-12254 -646,-16125 -4514,-6449 -23863,-9028 -23863,-9028 0,0 9028,-3871 12899,-4514 7093,-647 23864,5804 23864,5804l-5805 -12254c0,0 10319,4514 14190,7740 2578,2577 5161,8385 3871,12252l-3871 21285 38695 9675c0,0 3870,-3225 4515,-5161 645,-7093 -6450,-16123 -11611,-20639 -2579,-1934 -10964,-3224 -10964,-3224 0,0 12254,-5160 17415,-3224 5803,1934 17412,25796 17412,25796 0,0 1937,-10318 647,-14832 -1290,-3226 -7093,-7740 -7093,-7740 0,0 7740,0 10317,1935 3869,2579 6449,15480 6449,15480z"/>
   <path class="fil8" d="M276014 1014664l-14188 -36117c0,0 -8385,-10964 -9675,-16123 -1289,-3871 0,-9029 647,-12900 1288,-3225 6449,-9675 6449,-9675 0,0 -3871,7093 -4514,10964 -647,3225 -647,8385 646,10965 1935,3871 8385,10964 8385,10964 0,0 -1290,-11611 0,-16125 645,-1935 1935,-5161 3224,-6448 647,-1290 3871,-3227 3871,-3227 0,0 -1934,3227 -2579,5161 -645,2579 -645,5804 -645,7740 1290,7093 10318,21927 10318,21927l65783 9029c0,0 -32246,-29021 -39341,-45789 -1290,-3224 -1290,-7740 -647,-10964 1290,-3225 6450,-7739 6450,-7739 0,0 -4513,5159 -5160,7739 -645,3224 -645,7740 647,10317 2579,4516 14188,10964 14188,10964 0,0 3226,-8385 5804,-10964 1289,-1288 3871,-3224 5803,-3869 1290,-647 4516,0 4516,0 0,0 -3226,645 -4516,1288 -1288,647 -2577,2579 -3224,3871 -1290,2579 -1935,10319 -1935,10319l36760 40631 14189 3224c0,0 19992,-34827 20639,-51595 0,-4514 -1290,-11609 -4514,-14831 -3871,-3871 -16768,-5806 -16768,-5806 0,0 14188,1290 19349,4516 2579,1290 3224,7738 6450,7738 2578,-645 3871,-5160 3871,-7738 0,-2579 -3871,-7740 -3871,-7740 0,0 5159,3224 5804,5804 645,1936 645,4514 0,5803 -647,3226 -3871,7740 -5161,10964 -1936,5161 -3224,12254 -4514,17415 -2579,10964 -6450,36117 -6450,36117l49014 -2580 14833 -37406c0,0 -5161,-15478 -9030,-19992 -1289,-1290 -5803,-3871 -5803,-3871 0,0 5160,645 6450,1934 7738,5804 18058,28379 18058,28379 0,0 3870,-14188 2577,-19992 -645,-1936 -3224,-5805 -3224,-5805 0,0 3871,2579 5160,4515 1290,2578 1290,6449 645,9028 0,3871 -2577,12899 -2577,12899l-2581 12901 -7740 2579 -10965 32246 -170908 -645z"/>
   <path class="fil7" d="M256669 930178c0,0 1934,1288 4514,0 2577,-1289 6448,-4515 9674,-5160 5161,-1290 9028,0 9675,1289 1934,2578 2579,7094 5160,9028 1935,2580 8385,5804 8385,5804 0,0 -3871,-7093 -5160,-10964 -647,-2580 -1935,-9028 0,-8385 22571,9674 12898,-9028 17414,-10964 3871,-1935 4514,-3871 8385,-3871 5804,0 8385,1936 13542,3871 8386,2579 17414,16124 25797,16767 5161,647 16768,-9674 21929,-10964 5803,-1289 14188,-4514 19992,-5160 6450,0 15478,1289 21282,3871 4514,1936 12898,3870 14188,9029 647,1290 -1935,5161 -1935,5161 0,0 7739,-3226 11610,-3871 5160,-1290 18057,-1290 18057,-1290l0 -646 -22571 -3225 -7094 -11611 -12904 -5796 -14188 -1290 -10318 3870 -30958 10964 -34827 -12899 -13542 -1290 -12254 3225 -10317 6450 -8387 9028 -11609 646 -7740 3225 -5800 5158z"/>
   <path class="fil8" d="M259893 972744c0,0 3224,-645 8385,-1290 3224,-645 8385,1936 12254,1290 6450,-645 14831,-7094 21928,-7739 7094,-646 23863,7739 29020,7094 18704,-1937 15478,-10964 25155,-10964 4514,0 11609,-6451 15478,-1290 12899,16125 37406,12899 51595,6450 7093,-3226 21282,12252 31603,3871 5803,-5161 13542,1288 13542,1288l-23217 29022 -174134 1289 -11609 -29021z"/>
   <polyline class="fil4 str1" points="447565,1015309 455305,993381 457887,984351 465627,979194 473365,961779 477234,957266 477879,941141 "/>
   <path class="fil4 str1" d="M477879 941141c0,0 -5159,-11609 -13542,-15478 -11611,-5804 -27732,-5159 -27732,-5159 0,0 -3871,-9677 -10318,-13544 -6450,-3871 -14190,-4514 -21928,-4514 -7740,0 -21929,7094 -29669,9028 -3870,1290 -12898,4514 -12898,4514 0,0 -9028,-3871 -12899,-4514 -7740,-1934 -21929,-9028 -29668,-9028 -7739,0 -14832,645 -21929,4514 -6448,3871 -15478,13544 -15478,13544 0,0 -10318,-1290 -17413,3224 -9029,5161 -15478,16768 -15478,16768"/>
   <polyline class="fil4 str1" points="248929,940498 249572,957909 250864,965005 256669,971454 263760,984998 269566,997894 275371,1015309 447565,1015309 "/>
   <path class="fil9" d="M457240 861814c8387,1936 16768,5160 23865,12254 6448,6450 10317,13543 12898,22571 2580,8385 2580,13544 1290,21928 -1290,10965 -7740,21929 -7740,21929l-11609 -1933c0,0 7093,-14833 7738,-21282 647,-7740 647,-10319 -1288,-17414 -1936,-7093 -5160,-12254 -9674,-17415 -4516,-4514 -11611,-7738 -18058,-9027 -5803,-1290 -12900,-1937 -18057,-647 -10318,1936 -16768,5160 -27732,9030 -7740,2577 -14189,3224 -21929,3870 -5160,0 -10317,-646 -16124,-1936 -5159,-1290 -9675,-2579 -9675,-2579l3226 -11609c0,0 4514,1289 9028,1934 5161,1290 10964,1937 12900,1937 7739,-647 12253,-1290 19350,-3225 10317,-3226 17412,-6450 29019,-9029 7094,-1935 14834,-1290 22572,643z"/>
   <path class="fil10" d="M362435 874714l1289 -5803c0,0 4514,1289 9030,1934 5159,1290 10962,1937 12899,1937 7740,-647 12254,-1290 19349,-3227 10317,-3224 17414,-6448 29022,-9027 7738,-1290 15478,-647 23216,1289 8387,1935 16768,5161 23865,12254 6448,6449 10317,13542 12898,22572 2580,8384 2580,13541 1290,21926 -1290,10964 -7740,21929 -7740,21929l-5803 -1290c2579,-5161 7093,-14188 7739,-21282 2580,-17412 -2579,-29666 -9029,-36760 -7092,-7740 -23863,-16767 -37405,-16124 -16125,646 -30958,9674 -49660,12898 -10322,1935 -20639,1935 -30960,-3226z"/>
   <path class="fil11" d="M478523 938563l-2579 0c0,0 7093,-14833 7738,-21282 647,-7740 647,-10319 -1288,-17414 -1936,-7093 -5160,-12254 -9674,-17415 -1937,-1934 -3871,-3224 -6450,-4514 -3871,-1934 -7740,-3224 -11611,-4513 -3225,-647 -6449,-1290 -9675,-1290 -3224,0 -5803,0 -9028,647 -1289,0 -2579,644 -3871,644 -3224,647 -6450,1937 -9674,3226 -3871,1288 -8385,3225 -13544,4514 -7738,2580 -14188,3225 -21928,3871 -645,0 -1935,0 -3224,0 -3871,0 -8385,-1289 -12899,-1936 -5161,-1290 -9675,-2578 -9675,-2578l645 -2579c29669,11609 53530,-3871 74168,-8385 6449,-1290 14832,-647 20639,1288 7092,1936 14189,5805 18703,10964 4514,5161 11609,16768 10964,28379 648,14830 -7737,28373 -7737,28373z"/>
   <path class="fil4 str2" d="M457240 861814c8387,1936 16768,5160 23865,12254 6448,6450 10317,13543 12898,22571 2580,8385 2580,13544 1290,21928 -1290,10965 -7740,21929 -7740,21929"/>
   <line class="fil4 str2" x1="487553" y1="940498" x2="475944" y2= "938563" />
   <path class="fil4 str2" d="M475944 938563c0,0 7093,-14833 7738,-21282 647,-7740 647,-10319 -1288,-17414 -1936,-7093 -5160,-12254 -9674,-17415 -4516,-4514 -11611,-7738 -18058,-9027 -5803,-1290 -12900,-1937 -18057,-647 -10318,1936 -16768,5160 -27732,9030 -7740,2577 -14189,3224 -21929,3870 -5160,0 -10317,-646 -16124,-1936 -5159,-1290 -9675,-2579 -9675,-2579"/>
   <line class="fil4 str2" x1="361145" y1="880518" x2="364371" y2= "869554" />
   <path class="fil4 str2" d="M364371 869554c0,0 4514,1289 9028,1934 5161,1290 10964,1937 12900,1937 7739,-647 12253,-1290 19350,-3225 10317,-3226 17412,-6450 29019,-9029 7740,-1290 15479,-645 23219,1289"/>
   <path class="fil2" d="M488843 927599c0,3871 2579,6448 6450,6448 3871,0 6450,-2577 6450,-6448 0,-3871 -2579,-6450 -6450,-6450 -3224,0 -6450,3224 -6450,6450z"/>
   <path class="fil12" d="M500450 930823l-1288 1290 -2579 1290 -1937 0 -1934 0 -2579 -1937 -1290 -1288 0 -1936 0 -2579 1290 -1290 1289 -1935 1935 -646c0,0 -645,1936 -1288,2579 0,647 0,1936 0,2579 0,645 645,1935 1288,1935 646,647 1289,1290 1936,1936 647,645 1935,645 2579,645 1290,0 2578,-643 2578,-643z"/>
   <path class="fil1" d="M494002 924373c0,1936 1289,3226 3224,3226 1936,0 3224,-1290 3224,-3226 0,-645 -645,-645 -1288,-1288 -646,-647 -1936,-1936 -2579,-1936 -1290,0 -2581,1289 -2581,3224z"/>
   <path class="fil4 str3" d="M488843 927599c0,3871 2579,6448 6450,6448 3871,0 6450,-2577 6450,-6448 0,-3871 -2579,-6450 -6450,-6450 -3224,0 -6450,3224 -6450,6450"/>
   <path class="fil2" d="M492069 912121c0,3871 2577,6448 6448,6448 3871,0 6451,-2577 6451,-6448 0,-3871 -2580,-6450 -6451,-6450 -3871,0 -6448,3224 -6448,6450z"/>
   <path class="fil12" d="M503676 915988l-1290 1290 -2579 1289 -1935 0 -1936 0 -2579 -1934 -1288 -1290 -647 -2579 0 -2580 1290 -1289 1290 -1935 1934 -646c0,0 -645,1936 -1290,2579 0,647 0,1934 0,2579 0,645 647,1935 1290,1935 647,647 1290,1290 1936,1936 645,645 1935,645 2578,645 1290,0 3226,0 3226,0z"/>
   <path class="fil1" d="M497226 909541c0,1935 1290,3225 3224,3225 1936,0 3226,-1290 3226,-3225 0,-646 -647,-646 -1290,-1289 -646,-647 -1936,-1935 -2579,-1935 -1290,0 -2581,1288 -2581,3224z"/>
   <path class="fil4 str3" d="M492069 912121c0,3871 2577,6448 6448,6448 3226,0 6451,-2577 6451,-6448 0,-3871 -2580,-6450 -6451,-6450 -3871,0 -6448,3224 -6448,6450"/>
   <path class="fil2" d="M491422 895996c0,3871 2580,6450 6450,6450 3225,0 6449,-2579 6449,-6450 0,-3871 -2578,-6450 -6449,-6450 -3870,0 -6450,3226 -6450,6450z"/>
   <path class="fil12" d="M503033 899867l-1293 1290 -2578 1289 -1936 0 -1935 0 -2579 -1936 -1290 -1290 0 -2577 0 -2580 1290 -1289 1290 -1937 1291 -645c0,0 -647,1935 -1290,2580 0,645 0,1934 0,2577 0,647 647,1937 1290,1937 647,645 1290,1289 1935,1934 646,647 1936,647 2579,647 1290,0 3226,0 3226,0z"/>
   <path class="fil1" d="M496583 893417c0,1936 1289,3226 3224,3226 1936,0 3226,-1290 3226,-3226 0,-645 -647,-645 -1290,-1290 -646,-645 -1936,-1935 -2579,-1935 -1938,0 -2581,1290 -2581,3225z"/>
   <path class="fil4 str3" d="M491422 895996c0,3871 2580,6450 6450,6450 3225,0 6449,-2579 6449,-6450 0,-3871 -2578,-6450 -6449,-6450 -3870,0 -6450,3226 -6450,6450"/>
   <path class="fil2" d="M484972 881163c0,3871 2579,6450 6450,6450 3224,0 6450,-2579 6450,-6450 0,-3869 -2579,-6449 -6450,-6449 -3869,0 -6450,2580 -6450,6449z"/>
   <path class="fil12" d="M496583 884389l-1290 1289 -2579 1290 -1935 0 -1936 0 -2578 -1936 -646 -1290 -647 -2579 0 -2578 1290 -1290 1289 -1936 1937 -645c0,0 -647,1935 -1290,2580 0,644 0,1934 0,2577 0,647 645,1937 1290,1937 645,644 1288,1289 1934,1934 647,647 1935,647 2580,647 644,0 2581,0 2581,0z"/>
   <path class="fil1" d="M490133 877938c0,1937 1289,3225 3224,3225 1936,0 3226,-1288 3226,-3225 0,-644 -647,-644 -1290,-1289 -647,-645 -1936,-1935 -2579,-1935 -1292,0 -2581,1290 -2581,3224z"/>
   <path class="fil4 str3" d="M484972 881163c0,3871 2579,6450 6450,6450 3224,0 6450,-2579 6450,-6450 0,-3869 -2579,-6449 -6450,-6449 -3869,0 -6450,2580 -6450,6449"/>
   <path class="fil2" d="M473365 868911c0,3871 2579,6448 6450,6448 3224,0 6450,-2577 6450,-6448 0,-3871 -2579,-6451 -6450,-6451 -3871,0 -6450,3225 -6450,6451z"/>
   <path class="fil12" d="M484972 872135l-1290 1290 -2577 1289 -1937 0 -1934 0 -2580 -1936 -1289 -1290 -645 -2577 0 -2580 1288 -1289 1289 -1935 1937 -647c0,0 -647,1935 -1290,2580 0,645 0,1934 0,2577 0,647 647,1937 1290,1937 645,646 1289,1289 1934,1934 647,647 1937,647 2580,647 1289,643 3224,0 3224,0z"/>
   <path class="fil1" d="M478523 865685c0,1936 1290,3226 3225,3226 1934,0 3224,-1290 3224,-3226 0,-645 -645,-645 -1290,-1290 -645,-645 -1934,-1935 -2577,-1935 -1290,0 -2582,1290 -2582,3225z"/>
   <path class="fil4 str3" d="M473365 868911c0,3871 2579,6448 6450,6448 3224,0 6450,-2577 6450,-6448 0,-3871 -2579,-6451 -6450,-6451 -3871,0 -6450,3225 -6450,6451"/>
   <path class="fil2" d="M459176 861171c0,3871 2580,6450 6451,6450 3870,0 6448,-2579 6448,-6450 0,-3871 -2578,-6451 -6448,-6451 -3871,0 -6451,2580 -6451,6451z"/>
   <path class="fil12" d="M470783 864395l-1289 1934 -2580 1288 -1934 0 -1935 0 -2579 -1934 -1290 -1290 -646 -2579 0 -2578 1289 -1290 1290 -1936 1936 -645c0,0 -646,1935 -1289,2578 0,646 0,1936 0,2579 0,647 644,1937 1289,1937 645,644 1288,1289 1935,1934 647,647 1934,647 2579,647 1292,0 3224,-645 3224,-645l0 0z"/>
   <path class="fil1" d="M464337 857946c0,1935 1290,3225 3224,3225 1936,0 3224,-1290 3224,-3225 0,-646 -645,-646 -1288,-1289 -646,-647 -1936,-1937 -2579,-1937 -1938,0 -2581,1290 -2581,3226z"/>
   <path class="fil4 str3" d="M459176 861171c0,3871 2580,6450 6451,6450 3870,0 6448,-2579 6448,-6450 0,-3871 -2578,-6451 -6448,-6451 -3871,0 -6451,2580 -6451,6451"/>
   <path class="fil2" d="M442408 857300c0,3871 2580,6450 6451,6450 3871,0 6448,-2579 6448,-6450 0,-3871 -2577,-6451 -6448,-6451 -3871,0 -6451,2583 -6451,6451z"/>
   <path class="fil12" d="M454016 860526l-1290 1288 -2579 1289 -1935 0 -1935 0 -2579 -1934 -1290 -1290 -646 -2579 0 -2580 1289 -1288 1290 -1936 1936 -647c0,0 -646,1937 -1289,2580 0,646 0,1936 0,2579 0,647 645,1935 1289,1935 645,646 1288,1289 1935,1936 647,647 1935,647 2579,647 1292,0 3225,0 3225,0z"/>
   <path class="fil1" d="M447565 854075c0,1935 1290,3225 3226,3225 1935,0 3225,-1290 3225,-3225 0,-646 -647,-646 -1290,-1289 -645,-647 -1935,-1937 -2579,-1937 -1288,0 -2582,1294 -2582,3226z"/>
   <path class="fil4 str3" d="M442408 856657c0,3871 2580,6450 6451,6450 3871,0 6448,-2579 6448,-6450 0,-3871 -2577,-6451 -6448,-6451 -3871,0 -6451,3226 -6451,6451"/>
   <path class="fil2" d="M425641 857946c0,3871 2579,6449 6450,6449 3224,0 6448,-2578 6448,-6449 0,-3871 -2577,-6450 -6448,-6450 -3871,0 -6450,2579 -6450,6450z"/>
   <path class="fil12" d="M437248 861171l-1290 1289 -2577 1290 -1937 0 -1934 0 -2580 -1936 -1289 -1288 0 -2580 0 -2579 1289 -1290 1290 -1934 1935 -647c0,0 -645,1936 -1290,2579 0,645 0,1935 0,2580 0,645 646,1934 1290,1934 646,647 1289,1290 1936,1937 645,645 1934,645 2577,645 645,643 2580,0 2580,0z"/>
   <path class="fil1" d="M430798 854720c0,1937 1289,3226 3226,3226 1934,0 3224,-1289 3224,-3226 0,-645 -645,-645 -1290,-1288 -645,-646 -1934,-1936 -2577,-1936 -1937,0 -2583,1290 -2583,3224z"/>
   <path class="fil4 str3" d="M425641 857946c0,3871 2579,6449 6450,6449 3224,0 6448,-2578 6448,-6449 0,-3871 -2577,-6450 -6448,-6450 -3871,0 -6450,2579 -6450,6450"/>
   <path class="fil2" d="M379206 869554c0,3871 2578,6450 6449,6450 3871,0 6450,-2579 6450,-6450 0,-3871 -2579,-6451 -6450,-6451 -3871,0 -6449,3226 -6449,6451z"/>
   <path class="fil12" d="M391458 873425l-1288 1289 -2579 1290 -1936 0 -1935 0 -2579 -1936 -1290 -1290 -645 -2578 0 -2579 1288 -1290 1290 -1936 1936 -645c0,0 -647,1935 -1290,2579 0,645 0,1935 0,2578 0,647 647,1936 1290,1936 645,645 1290,1290 1935,1935 646,647 1936,647 2579,647 1290,0 3224,0 3224,0z"/>
   <path class="fil1" d="M385010 866974c0,1937 1289,3226 3224,3226 1936,0 3224,-1289 3224,-3226 0,-645 -645,-645 -1288,-1289 -646,-645 -1936,-1935 -2579,-1935 -1938,0 -2581,1290 -2581,3224z"/>
   <path class="fil4 str3" d="M379849 869554c0,3871 2580,6450 6450,6450 3225,0 6449,-2579 6449,-6450 0,-3871 -2578,-6451 -6449,-6451 -3869,4 -6450,3226 -6450,6451"/>
   <path class="fil2" d="M409516 862460c0,3871 2579,6451 6450,6451 3224,0 6450,-2580 6450,-6451 0,-3871 -2579,-6450 -6450,-6450 -3871,0 -6450,2579 -6450,6450z"/>
   <path class="fil12" d="M421127 865685l-1290 1289 -2579 1290 -1935 0 -1936 0 -2580 -1935 -1288 -1289 -646 -2580 0 -2579 1289 -1290 1290 -1934 1935 -647c0,0 -645,1936 -1290,2579 0,647 0,1937 0,2580 0,645 647,1934 1290,1934 646,647 1289,1290 1936,1937 645,645 1935,645 2578,645 1289,644 3226,0 3226,0z"/>
   <path class="fil1" d="M414676 859236c0,1935 1290,3224 3225,3224 1936,0 3226,-1289 3226,-3224 0,-647 -647,-647 -1290,-1290 -647,-646 -1936,-1936 -2579,-1936 -1939,0 -2582,1290 -2582,3226z"/>
   <path class="fil4 str3" d="M409516 862460c0,3871 2579,6451 6450,6451 3224,0 6450,-2580 6450,-6451 0,-3871 -2579,-6450 -6450,-6450 -3871,0 -6450,2579 -6450,6450"/>
   <path class="fil2" d="M394684 866974c0,3871 2578,6451 6449,6451 3226,0 6450,-2580 6450,-6451 0,-3871 -2579,-6448 -6450,-6448 -3871,0 -6449,2581 -6449,6448z"/>
   <path class="fil12" d="M406292 870200l-1290 1935 -2580 1290 -1934 0 -1936 0 -2578 -1937 -1290 -1288 -646 -2579 0 -2579 1289 -1290 1290 -1935 1935 -646c0,0 -645,1936 -1290,2579 0,645 0,1935 0,2579 0,645 647,1935 1290,1935 646,647 1289,1290 1936,1936 645,645 1934,645 2579,645 1288,0 3225,-645 3225,-645z"/>
   <path class="fil1" d="M399841 863750c0,1935 1290,3224 3226,3224 1935,0 3225,-1289 3225,-3224 0,-647 -647,-647 -1290,-1290 -647,-646 -1935,-1934 -2580,-1934 -1934,0 -2581,1288 -2581,3224z"/>
   <path class="fil4 str3" d="M394684 866974c0,3871 2578,6451 6449,6451 3226,0 6450,-2580 6450,-6451 0,-3871 -2579,-6448 -6450,-6448 -3871,0 -6449,2581 -6449,6448"/>
   <path class="fil9" d="M268921 861814c-8385,1936 -16768,5160 -23863,12254 -6450,6450 -10317,13543 -12899,22571 -2579,8385 -2579,13544 -1289,21928 1289,10965 7738,21929 7738,21929l11611 -1937c0,0 -7094,-14831 -7740,-21281 -645,-7738 -645,-10318 1289,-17413 1937,-7093 5161,-12254 9675,-17414 4514,-4514 11611,-7740 18057,-9028 5804,-1290 12899,-1937 18058,-647 10317,1935 16768,5161 27732,9028 7738,2579 14188,3226 21928,3871 5159,0 10318,-645 16123,-1935 5161,-1289 9675,-2579 9675,-2579l-3224 -11609c0,0 -4514,1288 -9028,1934 -5161,1290 -10964,1937 -12901,1937 -7738,-647 -12254,-1290 -19349,-3226 -10317,-3225 -17412,-6449 -29022,-9028 -7093,-1933 -14831,-1288 -22571,645z"/>
   <path class="fil10" d="M363726 874714l-1288 -5803c0,0 -4515,1289 -9029,1934 -5161,1290 -10965,1937 -12899,1937 -7740,-647 -12254,-1290 -19349,-3227 -10319,-3224 -17415,-6448 -29022,-9027 -7740,-1290 -15478,-647 -23218,1289 -8385,1935 -16768,5161 -23863,12254 -6450,6449 -10317,13542 -12899,22572 -2579,8384 -2579,13541 -1289,21926 1289,10964 7738,21929 7738,21929l5803 -1290c-2577,-5161 -7093,-14188 -7738,-21282 -2579,-17412 2580,-29666 9028,-36760 7093,-7740 23865,-16767 37407,-16124 16124,646 30956,9674 49660,12898 10321,1935 20639,1935 30958,-3226z"/>
   <path class="fil11" d="M247639 938563l2580 -647c0,0 -7094,-14831 -7740,-21281 -645,-7740 -645,-10318 1289,-17415 1937,-7093 5161,-12252 9675,-17412 1936,-1937 3871,-3227 6450,-4514 3871,-1937 7738,-3226 11609,-4516 3226,-645 6451,-1290 9675,-1290 3226,0 5805,0 9029,647 1290,0 2580,647 3871,647 3225,644 6449,1934 9675,3224 3871,1289 8385,3224 13542,4514 7740,2579 14190,3226 21928,3871 647,0 1936,0 2579,0 3871,0 8385,-1290 12899,-1935 5161,-1290 9675,-2579 9675,-2579l-645 -2580c-29669,11611 -53528,-3871 -74167,-8385 -6450,-1289 -14833,-646 -20638,1290 -7094,1935 -14191,5804 -18705,10964 -4513,5161 -11609,16768 -10964,28377 -2,15477 8383,29020 8383,29020z"/>
   <path class="fil4 str2" d="M268921 861814c-8385,1936 -16768,5160 -23863,12254 -6450,6450 -10317,13543 -12899,22571 -2579,8385 -2579,13544 -1289,21928 1289,10965 7738,21929 7738,21929"/>
   <line class="fil4 str2" x1="238608" y1="940498" x2="250219" y2= "938563" />
   <path class="fil4 str2" d="M250219 938563c0,0 -7094,-14833 -7740,-21282 -645,-7740 -645,-10319 1289,-17414 1937,-7093 5161,-12254 9675,-17415 4514,-4514 11611,-7738 18057,-9027 5804,-1290 12899,-1937 18058,-647 10317,1936 16768,5160 27732,9030 7738,2577 14188,3224 21928,3870 5159,0 10318,-646 16123,-1936 5161,-1290 9675,-2579 9675,-2579"/>
   <line class="fil4 str2" x1="365016" y1="880518" x2="361792" y2= "869554" />
   <path class="fil4 str2" d="M361792 869554c0,0 -4514,1289 -9028,1934 -5161,1290 -10964,1937 -12901,1937 -7738,-647 -12254,-1290 -19349,-3225 -10317,-3226 -17412,-6450 -29022,-9029 -7738,-1290 -15478,-645 -23216,1289"/>
   <path class="fil2" d="M237318 927599c0,3871 -2577,6448 -6448,6448 -3871,0 -6451,-2577 -6451,-6448 0,-3871 2580,-6450 6451,-6450 3871,0 6448,3224 6448,6450z"/>
   <path class="fil12" d="M225711 930823l1290 1290 2579 1290 1934 0 1937 0 2579 -1937 1288 -1288 647 -2579 0 -2579 -1290 -1290 -1934 -1292 -1937 -646c0,0 647,1936 1290,2579 0,647 0,1936 0,2579 0,645 -645,1935 -1290,1935 -645,647 -1290,1290 -1934,1936 -647,645 -1937,645 -2580,645 -1289,0 -2579,-643 -2579,-643z"/>
   <path class="fil1" d="M232161 924373c0,1936 -1290,3226 -3224,3226 -1936,0 -3226,-1290 -3226,-3226 0,-645 647,-645 1290,-1288 646,-647 1936,-1936 2579,-1936 1290,0 2581,1289 2581,3224z"/>
   <path class="fil4 str3" d="M237318 927599c0,3871 -2577,6448 -6448,6448 -3226,0 -6451,-2577 -6451,-6448 0,-3871 2580,-6450 6451,-6450 3224,0 6448,3224 6448,6450"/>
   <path class="fil2" d="M234094 912121c0,3871 -2580,6448 -6450,6448 -3871,0 -6449,-2577 -6449,-6448 0,-3871 2578,-6450 6449,-6450 3870,0 6450,3224 6450,6450z"/>
   <path class="fil12" d="M222487 915988l1289 1290 2580 1289 1934 0 1937 0 2577 -1934 1290 -1290 647 -2579 0 -2580 -1290 -1289 -1290 -1935 -1934 -646c0,0 644,1936 1287,2579 0,647 0,1934 0,2579 0,645 -644,1935 -1287,1935 -647,647 -1290,1290 -1937,1936 -1289,645 -2579,645 -3224,645 -645,0 -2579,0 -2579,0z"/>
   <path class="fil1" d="M228937 909541c0,1935 -1290,3225 -3226,3225 -1935,0 -3224,-1290 -3224,-3225 0,-646 646,-646 1289,-1289 645,-647 1935,-1935 2580,-1935 1291,0 2581,1288 2581,3224z"/>
   <path class="fil4 str3" d="M234094 912121c0,3871 -2580,6448 -6450,6448 -3871,0 -6449,-2577 -6449,-6448 0,-3871 2578,-6450 6449,-6450 3870,0 6450,3224 6450,6450"/>
   <path class="fil2" d="M234741 895996c0,3871 -2580,6450 -6451,6450 -3224,0 -6450,-2579 -6450,-6450 0,-3871 2579,-6450 6450,-6450 3871,0 6451,3226 6451,6450z"/>
   <path class="fil12" d="M223130 899867l1289 1290 2580 1289 1934 0 1937 0 2579 -1936 1288 -1290 647 -2577 0 -2580 -1290 -1289 -1290 -1937 -1934 -645c0,0 644,1935 1289,2580 0,645 0,1934 0,2577 0,647 -646,1937 -1289,1937 -647,645 -1290,1289 -1937,1934 -645,647 -1934,647 -2577,647 -1290,0 -3226,0 -3226,0z"/>
   <path class="fil1" d="M229580 893417c0,1936 -1290,3226 -3224,3226 -1937,0 -3226,-1290 -3226,-3226 0,-645 646,-645 1289,-1290 647,-645 1937,-1935 2580,-1935 1938,0 2581,1290 2581,3225z"/>
   <path class="fil4 str3" d="M235385 895996c0,3871 -2577,6450 -6448,6450 -3226,0 -6450,-2579 -6450,-6450 0,-3871 2579,-6450 6450,-6450 3224,0 6448,3226 6448,6450"/>
   <path class="fil2" d="M241189 881163c0,3871 -2578,6450 -6448,6450 -3871,0 -6451,-2579 -6451,-6450 0,-3869 2580,-6449 6451,-6449 3870,0 6448,2580 6448,6449z"/>
   <path class="fil12" d="M229580 884389l1290 1289 2579 1290 1935 0 1934 0 2579 -1936 1290 -1290 647 -2579 0 -2578 -1933 -1291 -1290 -1937 -1936 -646c0,0 647,1936 1290,2579 0,647 0,1936 0,2579 0,647 -647,1935 -1290,1935 -645,647 -1290,1290 -1934,1936 -647,645 -1937,645 -2580,645 -647,4 -2581,4 -2581,4z"/>
   <path class="fil1" d="M236030 877938c0,1937 -1289,3225 -3226,3225 -1934,0 -3224,-1288 -3224,-3225 0,-644 647,-644 1290,-1289 644,-645 1934,-1935 2579,-1935 1292,0 2581,1290 2581,3224z"/>
   <path class="fil4 str3" d="M241189 881163c0,3871 -2578,6450 -6448,6450 -3227,0 -6451,-2579 -6451,-6450 0,-3869 2580,-6449 6451,-6449 3867,0 6448,2580 6448,6449"/>
   <path class="fil2" d="M252798 868911c0,3871 -2579,6448 -6450,6448 -3871,0 -6451,-2577 -6451,-6448 0,-3871 2580,-6451 6451,-6451 3871,0 6450,3225 6450,6451z"/>
   <path class="fil12" d="M241189 872135l1290 1290 2579 1289 1936 0 1935 0 2579 -1936 1290 -1290 645 -2577 0 -2580 -1290 -1289 -1934 -1292 -1937 -647c0,0 647,1937 1290,2580 0,646 0,1934 0,2579 0,645 -645,1935 -1290,1935 -645,646 -1288,1289 -1934,1936 -647,645 -1937,645 -2580,645 -644,0 -2579,-643 -2579,-643z"/>
   <path class="fil1" d="M247639 865685c0,1936 -1289,3226 -3224,3226 -1936,0 -3226,-1290 -3226,-3226 0,-645 647,-645 1290,-1290 646,-645 1936,-1935 2579,-1935 1290,0 2581,1290 2581,3225z"/>
   <path class="fil4 str3" d="M252798 868911c0,3871 -2579,6448 -6450,6448 -3224,0 -6451,-2577 -6451,-6448 0,-3871 2580,-6451 6451,-6451 3871,0 6450,3225 6450,6451"/>
   <path class="fil2" d="M266986 861171c0,3871 -2579,6450 -6450,6450 -3871,0 -6450,-2579 -6450,-6450 0,-3871 2579,-6451 6450,-6451 3871,0 6450,2580 6450,6451z"/>
   <path class="fil12" d="M255379 864395l1290 1290 2578 1289 1936 0 1934 0 2580 -1934 1289 -1290 645 -2579 0 -2580 -1291 -645 -1290 -1936 -1933 -643c0,0 647,1936 1290,2579 0,645 0,1935 0,2580 0,645 -647,1934 -1290,1934 -644,647 -1289,1290 -1934,1935 -647,647 -1936,647 -2580,647 -1291,-2 -3224,-647 -3224,-647z"/>
   <path class="fil1" d="M261826 857946c0,1935 -1290,3225 -3224,3225 -1937,0 -3226,-1290 -3226,-3225 0,-646 646,-646 1289,-1289 647,-647 1937,-1937 2580,-1937 1938,0 2581,1290 2581,3226z"/>
   <path class="fil4 str3" d="M267631 861171c0,3871 -2577,6450 -6448,6450 -3226,0 -6450,-2579 -6450,-6450 0,-3871 2579,-6451 6450,-6451 3224,0 6448,2580 6448,6451"/>
   <path class="fil2" d="M283754 857300c0,3871 -2579,6450 -6450,6450 -3871,0 -6450,-2579 -6450,-6450 0,-3871 2579,-6451 6450,-6451 3871,0 6450,2583 6450,6451z"/>
   <path class="fil12" d="M272147 860526l1290 1288 2577 1289 1937 0 1934 0 2580 -1934 1289 -1290 645 -2579 0 -2580 -1934 -1288 -1290 -1936 -1935 0c0,0 645,1936 1288,2579 0,645 0,1935 0,2580 0,645 -645,1934 -1288,1934 -646,647 -1289,1290 -1936,1937 -645,645 -1935,645 -2579,645 -643,-645 -2578,-645 -2578,-645z"/>
   <path class="fil1" d="M278596 854075c0,1935 -1290,3225 -3225,3225 -1934,0 -3224,-1290 -3224,-3225 0,-646 645,-646 1290,-1289 645,-647 1934,-1937 2577,-1937 1290,0 2582,1294 2582,3226z"/>
   <path class="fil4 str3" d="M283754 856657c0,3871 -2579,6450 -6450,6450 -3871,0 -6450,-2579 -6450,-6450 0,-3871 2579,-6451 6450,-6451 3871,0 6450,3226 6450,6451"/>
   <path class="fil2" d="M300522 857946c0,3871 -2579,6449 -6450,6449 -3224,0 -6450,-2578 -6450,-6449 0,-3871 2579,-6450 6450,-6450 3871,0 6450,2579 6450,6450z"/>
   <path class="fil12" d="M288915 861171l1290 1289 2577 1290 1937 0 1934 0 2579 -1936 1290 -1288 645 -2580 0 -2579 -1288 -1290 -1290 -1934 -1936 -647c0,0 647,1936 1290,2579 0,645 0,1935 0,2580 0,645 -647,1934 -1290,1934 -645,647 -1290,1290 -1934,1937 -647,645 -1937,645 -2580,645 -1290,643 -3224,0 -3224,0z"/>
   <path class="fil1" d="M295363 854720c0,1937 -1289,3226 -3224,3226 -1934,0 -3224,-1289 -3224,-3226 0,-645 645,-645 1290,-1288 644,-646 1934,-1936 2577,-1936 1937,0 2581,1290 2581,3224z"/>
   <path class="fil4 str3" d="M300522 857946c0,3871 -2579,6449 -6450,6449 -3224,0 -6450,-2578 -6450,-6449 0,-3871 2579,-6450 6450,-6450 3871,0 6450,2579 6450,6450"/>
   <path class="fil2" d="M346957 869554c0,3871 -2580,6450 -6451,6450 -3869,0 -6448,-2579 -6448,-6450 0,-3871 2579,-6451 6448,-6451 3871,0 6451,3226 6451,6451z"/>
   <path class="fil12" d="M334703 873425l1289 1289 2580 1290 1934 0 1937 0 2579 -1936 1290 -1290 645 -2578 0 -2579 -1290 -1290 -1290 -1936 -1934 -645c0,0 646,1935 1289,2579 0,645 0,1935 0,2578 0,647 -646,1936 -1289,1936 -647,645 -1290,1290 -1937,1935 -645,647 -1934,647 -2577,647 -1290,0 -3226,0 -3226,0z"/>
   <path class="fil1" d="M341153 866974c0,1937 -1290,3226 -3224,3226 -1937,0 -3226,-1289 -3226,-3226 0,-645 646,-645 1289,-1289 647,-645 1937,-1935 2580,-1935 1938,0 2581,1290 2581,3224z"/>
   <path class="fil4 str3" d="M346957 869554c0,3871 -2580,6450 -6451,6450 -3224,0 -6448,-2579 -6448,-6450 0,-3871 2579,-6451 6448,-6451 3226,4 6451,3226 6451,6451"/>
   <path class="fil2" d="M316647 862460c0,3871 -2579,6451 -6450,6451 -3871,0 -6451,-2580 -6451,-6451 0,-3871 2580,-6450 6451,-6450 3871,0 6450,2579 6450,6450z"/>
   <path class="fil12" d="M305036 865685l1290 1289 2579 1290 1935 0 1936 0 2578 -1935 1289 -1289 647 -2580 0 -2579 -1290 -1290 -1289 -1934 -1935 -647c0,0 645,1936 1288,2579 0,647 0,1937 0,2580 0,645 -645,1934 -1288,1934 -647,647 -1290,1290 -1936,1937 -645,645 -1935,645 -2580,645 -1289,644 -3224,0 -3224,0z"/>
   <path class="fil1" d="M311486 859236c0,1935 -1289,3224 -3226,3224 -1934,0 -3224,-1289 -3224,-3224 0,-647 647,-647 1290,-1290 645,-646 1934,-1936 2579,-1936 1937,0 2581,1290 2581,3226z"/>
   <path class="fil4 str3" d="M316647 862460c0,3871 -2579,6451 -6450,6451 -3226,0 -6451,-2580 -6451,-6451 0,-3871 2580,-6450 6451,-6450 3871,0 6450,2579 6450,6450"/>
   <path class="fil2" d="M331478 866974c0,3871 -2579,6451 -6450,6451 -3224,0 -6448,-2580 -6448,-6451 0,-3871 2577,-6448 6448,-6448 3871,0 6450,2581 6450,6448z"/>
   <path class="fil12" d="M319871 870200l1290 1288 2577 1290 1937 0 1934 0 2580 -1935 1289 -1289 647 -2580 0 -2579 -1290 -1288 -1289 -1936 -1937 0c0,0 647,1936 1290,2579 0,645 0,1935 0,2579 0,645 -645,1935 -1290,1935 -645,647 -1288,1290 -1934,1936 -647,645 -1937,645 -2580,645 -1289,0 -3224,-645 -3224,-645z"/>
   <path class="fil1" d="M326321 863750c0,1935 -1289,3224 -3226,3224 -1934,0 -3224,-1289 -3224,-3224 0,-647 645,-647 1290,-1290 645,-646 1934,-1934 2577,-1934 1937,0 2583,1288 2583,3224z"/>
   <path class="fil4 str3" d="M332125 866974c0,3871 -2579,6451 -6450,6451 -3224,0 -6450,-2580 -6450,-6451 0,-3871 2579,-6448 6450,-6448 3224,0 6450,2581 6450,6448"/>
   <path class="fil10" d="M347603 840532c1935,-1935 3871,-3871 5161,-5804 1934,-2579 3224,-5160 3871,-8385 -3226,647 -5806,1935 -8387,3871 -1934,1935 -3871,3871 -5804,5161l0 -27732c1937,1934 3871,3871 5804,5160 2579,1935 5161,3225 8387,3871 -647,-3226 -1937,-5803 -3871,-8386 -1937,-1935 -3871,-3871 -5161,-5804l30957 -2c-1935,1935 -3871,3871 -5161,5804 -1935,2579 -3224,5161 -3871,8385 3226,-645 5804,-1935 8385,-3871 1936,-1935 3871,-3871 5803,-5161l0 27732c-1934,-1934 -3869,-3871 -5803,-5158 -2578,-1937 -5159,-3227 -8385,-3871 647,3224 1936,5803 3871,8384 1936,1935 3871,3871 5161,5804l-30957 2z"/>
   <path class="fil4 str4" d="M347603 840532c1935,-1935 3871,-3871 5161,-5804 1934,-2579 3224,-5160 3871,-8385 -3226,647 -5806,1935 -8387,3871 -1934,1935 -3871,3871 -5804,5161l0 -27732c1937,1934 3871,3871 5804,5160 2579,1935 5161,3225 8387,3871 -647,-3226 -1937,-5803 -3871,-8386 -1937,-1935 -3871,-3871 -5161,-5804l30957 -2c-1935,1935 -3871,3871 -5161,5804 -1935,2579 -3224,5161 -3871,8385 3226,-645 5804,-1935 8385,-3871 1936,-1935 3871,-3871 5803,-5161l0 27732c-1934,-1934 -3869,-3871 -5803,-5158 -2578,-1937 -5159,-3227 -8385,-3871 647,3224 1936,5803 3871,8384 1936,1935 3871,3871 5161,5804l-30957 2z"/>
   <path class="fil9" d="M354697 836665c1934,-4516 3870,-9030 5160,-13544 -4516,1290 -9674,2579 -14190,5161l0 -14189c4516,2578 9030,3869 14190,5159 -1290,-4514 -2579,-9675 -5160,-13542l16123 -3c-1935,4515 -3871,9029 -5159,13543 4514,-1290 9674,-2579 14188,-5160l0 14188c-4514,-2578 -9029,-3871 -14188,-5159 1288,4514 2577,9675 5159,13542l-16123 4z"/>
   <path class="fil2" d="M370820 821185c0,4515 -3225,7740 -7739,7740 -4514,0 -7740,-3225 -7740,-7740 0,-4514 3226,-7738 7740,-7738 4514,0 7739,3869 7739,7738z"/>
   <path class="fil12" d="M356631 825700l1290 1935 2579 1290 2580 0 2577 0 2579 -1935 1290 -1936 645 -2580 4 -3224 -1290 -1934 -1936 -1937 -1935 -646c0,0 1290,1936 1290,3226 0,644 0,1934 0,3224 0,647 -647,1936 -1290,2579 -647,645 -1934,1935 -2579,1935 0,3 -1290,3 -2578,3 -1290,0 -3226,0 -3226,0z"/>
   <path class="fil1" d="M364371 817960c0,1937 -1936,3871 -4514,3871 -2579,0 -4516,-1934 -4516,-3871 0,-1289 647,-1289 1937,-1934 645,-647 1934,-1936 3224,-1936 2579,0 3869,1289 3869,3870z"/>
   <path class="fil4 str5" d="M370820 821185c0,4515 -3225,7740 -7739,7740 -4514,0 -7740,-3225 -7740,-7740 0,-4514 3226,-7738 7740,-7738 4514,0 7739,3869 7739,7738"/>
   <path class="fil13" d="M380494 857946c0,9675 -7738,17413 -17413,17413 -9674,0 -17414,-7738 -17414,-17413 0,-9674 7740,-17414 17414,-17414 9675,0 17413,7740 17413,17414z"/>
   <path class="fil11" d="M361792 841179c-8385,0 -14834,6448 -14834,14831 0,8385 6451,14833 14834,14833 8384,0 14833,-6450 14833,-14833 0,-7738 -7093,-14831 -14833,-14831z"/>
   <path class="fil9" d="M359857 841179c-7093,0 -12900,5803 -12900,12898 0,7094 5803,12901 12900,12901 7092,0 12899,-5806 12899,-12901 0,-7095 -5804,-12898 -12899,-12898z"/>
   <path class="fil10" d="M357921 841179c-5161,644 -10318,5803 -10964,10964 -1290,5803 5160,10964 10964,10964 6450,0 11611,-5161 11611,-10964 0,-5807 -5161,-10964 -11611,-10964z"/>
   <path class="fil4 str6" d="M380494 857946c0,9675 -7738,17413 -17413,17413 -9674,0 -17414,-7738 -17414,-17413 0,-9674 7740,-17414 17414,-17414 9675,0 17413,7740 17413,17414"/>
   <polygon class="fil9" points="359210,839242 359210,854075 345024,854075 345024,861171 381139,861171 381139,854075 366952,854075 366952,839242 "/>
   <polygon class="fil10" points="344377,854075 344377,857300 363081,857300 363081,839242 359210,839242 359210,854075 "/>
   <polygon class="fil11" points="344377,861171 381784,861171 381784,859881 345024,859881 "/>
   <polygon class="fil4 str7" points="359210,839242 359210,854075 345024,854075 345024,861171 381784,861171 381784,854075 366952,854075 366952,839242 "/>
   <path class="fil14" d="M357278 871488l11607 0c3224,0 5804,2580 5804,5806l0 53527c0,3225 -2580,5804 -5804,5804l-11607 2c-3226,0 -5804,-2580 -5804,-5804l-4 -53529c0,-2580 2582,-5806 5808,-5806z"/>
   <path class="fil11" d="M357278 871488l11607 0c3224,0 5804,2580 5804,5806l0 32246 -23219 6448 0 -38694c0,-3226 2582,-5806 5808,-5806z"/>
   <path class="fil9" d="M357278 871488l11607 0c3224,0 5804,2580 5804,5806l0 19349 -23219 6448 0 -25796c0,-3227 2582,-5807 5808,-5807z"/>
   <path class="fil10" d="M357278 871488l11607 0c3224,0 5804,2580 5804,5806l0 6448 -23219 6450 0 -12898c0,-3226 2582,-5806 5808,-5806z"/>
   <line class="fil4 str2" x1="357278" y1="871488" x2="368885" y2= "871488" />
   <path class="fil4 str2" d="M368885 871488c3224,0 5804,2580 5804,5806"/>
   <line class="fil4 str2" x1="374689" y1="877294" x2="374689" y2= "931466" />
   <path class="fil4 str2" d="M374690 931466c0,3226 -2577,5804 -5803,5804"/>
   <line class="fil4 str2" x1="368885" y1="937273" x2="357278" y2= "937273" />
   <path class="fil4 str2" d="M357278 937273c-3226,0 -5804,-2579 -5804,-5803"/>
   <line class="fil4 str2" x1="351474" y1="931466" x2="351474" y2= "877294" />
   <path class="fil4 str2" d="M351470 877294c0,-3226 2580,-5806 5804,-5806"/>
   <path class="fil9" d="M350827 871488l0 0c1937,0 3871,1290 3871,3226l0 59333c0,1937 -1934,3226 -3871,3226 -1934,0 -3870,-1289 -3870,-3226l0 -59333c0,-1289 1936,-3226 3870,-3226z"/>
   <path class="fil10" d="M347603 909541c0,0 1290,-1936 2580,-8384 644,-3226 3869,-7740 3869,-7740l0 -19349 -1935 -1935 -3224 0 -1936 1292 646 36116z"/>
   <path class="fil4 str8" d="M350827 871488c1937,0 3871,1290 3871,3226"/>
   <line class="fil4 str8" x1="354697" y1="874714" x2="354697" y2= "934047" />
   <path class="fil4 str8" d="M354697 934047c0,1937 -1937,3226 -3871,3226 -1937,0 -3871,-1289 -3871,-3226"/>
   <line class="fil4 str8" x1="346957" y1="934047" x2="346957" y2= "874714" />
   <path class="fil4 str8" d="M346957 874714c0,-1936 1936,-3226 3870,-3226"/>
   <path class="fil9" d="M375335 871488c1935,0 3871,1290 3871,3226l0 59333c0,1937 -1936,3226 -3871,3226 -1936,0 -3871,-1289 -3871,-3226l0 -59333c645,-1289 1935,-3226 3871,-3226z"/>
   <path class="fil10" d="M372109 906317c0,0 647,-6450 2580,-12254 646,-3226 4514,-7093 4514,-7093l0 -12899 -1935 -1936 -3226 0 -1935 1290 2 32892z"/>
   <path class="fil4 str8" d="M375335 871488c1935,0 3871,1290 3871,3226"/>
   <line class="fil4 str8" x1="379206" y1="874714" x2="379206" y2= "934047" />
   <path class="fil4 str8" d="M379206 934047c0,1937 -1936,3226 -3871,3226"/>
   <path class="fil4 str8" d="M375335 937273c-1936,0 -3871,-1289 -3871,-3226"/>
   <line class="fil4 str8" x1="372109" y1="934047" x2="372109" y2= "874714" />
   <path class="fil4 str8" d="M372109 874714c0,-1936 1937,-3226 3871,-3226"/>
   <path class="fil2" d="M369532 873425c0,3870 -2580,6450 -6451,6450 -3224,0 -6450,-2580 -6450,-6450 0,-3871 2579,-6451 6450,-6451 3225,0 6451,2580 6451,6451z"/>
   <path class="fil12" d="M357921 876649l1289 1289 2580 1290 1934 0 1937 0 2577 -1934 1290 -1290 647 -2579 0 -2580 -1290 -1290 -1290 -1934 -1934 -647c0,0 645,1937 1288,2580 0,646 0,1934 0,2579 0,645 -645,1935 -1288,1935 -647,646 -1290,1289 -1937,1936 -644,645 -1934,645 -2579,645 -1288,0 -3224,0 -3224,0z"/>
   <path class="fil1" d="M364371 870200c0,1935 -1290,3225 -3226,3225 -1935,0 -3224,-1290 -3224,-3225 0,-646 646,-646 1289,-1289 647,-647 1935,-1937 2580,-1937 1291,0 2581,1290 2581,3226z"/>
   <path class="fil4 str3" d="M369532 873425c0,3870 -2580,6450 -6451,6450 -3224,0 -6450,-2580 -6450,-6450 0,-3871 2579,-6451 6450,-6451 3871,0 6451,2580 6451,6451"/>
   <path class="fil2" d="M369532 886323c0,3871 -2580,6451 -6451,6451 -3224,0 -6450,-2580 -6450,-6451 0,-3871 2579,-6448 6450,-6448 3225,0 6451,2577 6451,6448z"/>
   <path class="fil12" d="M357921 889546l1289 1289 2580 1290 1934 0 1937 0 2577 -1934 1290 -1290 647 -2580 0 -2579 -1290 -1290 -1290 -1934 -1934 -647c0,0 645,1937 1288,2580 0,646 0,1934 0,2579 0,645 -645,1934 -1288,1934 -647,647 -1290,1290 -1937,1937 -644,645 -1934,645 -2579,645 -1288,0 -3224,0 -3224,0z"/>
   <path class="fil1" d="M364371 883099c0,1935 -1290,3224 -3226,3224 -1935,0 -3224,-1289 -3224,-3224 0,-647 646,-647 1289,-1290 647,-646 1935,-1934 2580,-1934 1291,0 2581,1288 2581,3224z"/>
   <path class="fil4 str3" d="M369532 885678c0,3871 -2580,6449 -6451,6449 -3224,0 -6450,-2578 -6450,-6449 0,-3870 2579,-6450 6450,-6450 3871,0 6451,3224 6451,6450"/>
   <path class="fil2" d="M369532 898577c0,3871 -2580,6450 -6451,6450 -3224,0 -6450,-2579 -6450,-6450 0,-3871 2579,-6450 6450,-6450 3225,0 6451,3226 6451,6450z"/>
   <path class="fil12" d="M357921 902446l1289 1290 2580 1288 1934 0 1937 0 2577 -1935 1290 -1289 647 -2580 0 -2577 -1290 -1290 -1290 -1936 -1934 -645c0,0 645,1934 1288,2577 0,647 0,1937 0,2580 0,646 -645,1936 -1288,1936 -647,645 -1290,1288 -1937,1935 -644,646 -1934,646 -2579,646 -1288,0 -3224,0 -3224,0z"/>
   <path class="fil1" d="M364371 895996c0,1935 -1290,3224 -3226,3224 -1935,0 -3224,-1289 -3224,-3224 0,-647 646,-647 1289,-1290 647,-646 1935,-1934 2580,-1934 1291,0 2581,1291 2581,3224z"/>
   <path class="fil4 str3" d="M369532 898577c0,3871 -2580,6450 -6451,6450 -3224,0 -6450,-2579 -6450,-6450 0,-3871 2579,-6450 6450,-6450 3871,0 6451,3226 6451,6450"/>
   <path class="fil2" d="M369532 911474c0,3871 -2580,6450 -6451,6450 -3224,0 -6450,-2579 -6450,-6450 0,-3871 2579,-6450 6450,-6450 3225,0 6451,3226 6451,6450z"/>
   <path class="fil12" d="M357921 915345l1289 1290 2580 1289 1934 0 1937 0 2577 -1936 1290 -1290 647 -2577 0 -2580 -1290 -1289 -1290 -1935 -1934 -646c0,0 645,1934 1288,2579 0,645 0,1934 0,2577 0,647 -645,1937 -1288,1937 -647,646 -1290,1290 -1937,1934 -644,647 -1934,647 -2579,647 -1288,0 -3224,0 -3224,0z"/>
   <path class="fil1" d="M364371 908895c0,1936 -1290,3226 -3226,3226 -1935,0 -3224,-1290 -3224,-3226 0,-645 646,-645 1289,-1290 647,-645 1935,-1934 2580,-1934 1291,0 2581,1289 2581,3224z"/>
   <path class="fil4 str3" d="M369532 911474c0,3871 -2580,6450 -6451,6450 -3224,0 -6450,-2579 -6450,-6450 0,-3871 2579,-6450 6450,-6450 3871,0 6451,3226 6451,6450"/>
   <path class="fil2" d="M369532 924373c0,3871 -2580,6450 -6451,6450 -3224,0 -6450,-2579 -6450,-6450 0,-3869 2579,-6449 6450,-6449 3225,0 6451,3225 6451,6449z"/>
   <path class="fil12" d="M357921 928242l1289 1290 2580 1289 1934 0 1937 0 2577 -1936 1290 -1290 647 -2577 0 -2580 -1290 -1289 -1290 -1935 -1934 -647c0,0 645,1937 1288,2580 0,645 0,1934 0,2579 0,645 -645,1935 -1288,1935 -647,646 -1290,1289 -1937,1934 -644,647 -1934,647 -2579,647 -1288,0 -3224,0 -3224,0z"/>
   <path class="fil1" d="M364371 921149c0,1936 -1290,3224 -3226,3224 -1935,0 -3224,-1288 -3224,-3224 0,-645 646,-645 1289,-1290 647,-645 1935,-1935 2580,-1935 1291,645 2581,1935 2581,3225z"/>
   <path class="fil4 str3" d="M369532 924373c0,3871 -2580,6450 -6451,6450 -3224,0 -6450,-2579 -6450,-6450 0,-3869 2579,-6449 6450,-6449 3871,0 6451,3225 6451,6449"/>
   <path class="fil15" d="M477234 965005c-5804,13542 -10964,27088 -15478,40631l-98675 -2 -98674 0c-4514,-13543 -9674,-27732 -15478,-40632 0,0 12254,17414 21282,21283 5160,2578 11611,3225 16768,1288 7093,-2577 16124,-14831 16124,-14831 0,0 8385,9674 14189,12254 5160,2577 11611,2577 17414,1934 5161,0 10965,-645 14832,-3224 6450,-4514 12900,-19349 12900,-19349 0,0 6449,11609 10965,16125 3869,3869 9027,6448 14831,7091 5161,1290 10964,647 16125,-1288 7093,-2579 18057,-12900 18057,-12900 0,0 7739,9674 12899,11611 5161,2577 11609,3224 16768,1934 5804,-1289 10317,-5803 14831,-9674 3869,-3223 10320,-12251 10320,-12251z"/>
   <polygon class="fil9" points="318581,985641 318581,1004990 437894,1004990 439184,988867 423704,976613 410162,986287 390813,989511 381139,986934 363081,968873 355341,981773 341153,988222 325675,988867 "/>
   <polygon class="fil9" points="283111,1004990 281818,990156 292782,986934 303746,977258 316000,986287 319871,988222 320514,1005634 "/>
   <path class="fil13" d="M435313 985641l0 0c5159,2579 11609,3226 16768,1936 5804,-1290 10318,-5804 14832,-9675 3870,-3226 9674,-12253 9674,-12253 -5804,13543 -10964,27089 -15478,40630l-26441 0 0 -645 645 -19993zm-147045 20638l-23861 0c-4514,-13541 -9674,-27732 -15478,-40630 0,0 12254,17414 21282,21281 5160,2580 11611,3226 16768,1290l1289 18059z"/>
   <polygon class="fil11" points="362435,970809 364371,1006279 407581,1006926 407581,986934 397909,990156 383720,988867 369532,978547 "/>
   <polygon class="fil16" points="406936,1002412 406936,987577 423704,977902 435958,987577 435958,1005634 406292,1005634 "/>
   <polygon class="fil11" points="277951,988222 279240,1006279 291492,1006279 290205,987577 286336,988867 "/>
   <polygon class="fil10" points="297943,1006279 297943,983063 303103,975970 309554,983063 310197,1006926 "/>
   <path class="fil13" d="M362435 964359c0,0 -6449,14833 -12899,19349 -3869,3226 -9673,3226 -14833,3226 -5804,0 -12252,0 -17413,-1936 -5804,-2580 -14188,-12254 -14188,-12254 0,0 -9030,12900 -16125,14833 -5161,1934 -11611,1290 -16768,-1290 -9030,-3871 -21282,-21282 -21282,-21282 2578,5161 4514,10318 6449,16123 0,0 4515,5161 7740,7094 3224,2579 7093,3871 10964,4516 3871,644 7738,644 11609,0 3871,-647 7740,-2580 10964,-5161 2579,-1290 5804,-5804 5804,-5804 0,0 4514,3871 7740,5161 2579,1934 5803,3224 9028,3869 3870,647 7739,647 10964,647 3871,0 8385,0 12254,-1290 3224,-645 5803,-1935 8384,-3871 3225,-1934 9030,-7738 11611,-10964 1935,1936 7094,8386 10318,10319 2579,1935 6450,3224 9674,3871 3871,645 8385,1288 12254,1288 3871,0 7738,0 10965,-645 3224,-647 5803,-1936 9027,-3871 2580,-1289 5804,-3871 5804,-3871 0,0 3871,3225 6450,4514 3225,1937 7094,3871 10964,5161 3871,647 7739,647 11610,0 3870,-647 7740,-2580 10964,-4514 3224,-1936 7740,-7740 7740,-7740 1934,-5161 3871,-10964 6448,-16123 0,0 -12252,17413 -21282,21282 -5160,2577 -11609,3224 -16767,1289 -7094,-2579 -16125,-14833 -16125,-14833 0,0 -8385,9675 -14189,12254 -5160,2579 -11609,2579 -17412,1935 -5161,0 -10965,-645 -14834,-3225 -5162,-3222 -11612,-18057 -11612,-18057z"/>
   <path class="fil4 str2" d="M477234 965005c-5804,13542 -10964,27088 -15478,40631"/>
   <polyline class="fil4 str2" points="461111,1006279 435313,1006279 363081,1006279 287625,1006279 264407,1006279 "/>
   <path class="fil4 str2" d="M264407 1006279c-4514,-13541 -9674,-27732 -15478,-40630 0,0 12254,17414 21282,21281 5160,2580 11611,3226 16768,1290 7093,-2579 16124,-14832 16124,-14832 0,0 8385,9675 14189,12253 5160,2579 11611,2579 17414,1936 5161,0 10965,-647 14832,-3226 6450,-4514 12900,-19349 12900,-19349 0,0 6449,11611 10965,16125 3869,3871 9027,6450 14831,7093 5161,1290 10964,647 16125,-1290 7093,-2579 18057,-12898 18057,-12898 0,0 7739,9674 12899,11609 5161,2579 11609,3226 16768,1936 5804,-1290 10317,-5804 14831,-9675 3871,-3226 9677,-12253 9677,-12253"/>
   <path class="fil9" d="M363081 972744c0,0 -4514,7093 -7093,9029 -3871,3225 -6450,5161 -10964,7094 -5161,1289 -11609,2577 -16768,1934 -5161,0 -10318,-1934 -14831,-3871 -3871,-1934 -10320,-7093 -10320,-7093 -3224,3871 -7093,6450 -10317,9030 -4514,2577 -9028,2577 -14189,2577 -9674,-645 -19349,-6448 -26442,-19349 -4516,-11609 -10320,-22571 -17415,-34827 7740,-2579 17415,-4514 27732,-4514 -3871,11609 -8384,23218 -7093,32893 8385,-6451 11611,-15478 14189,-23865l10319 35472c-5806,-1290 -2580,-2579 -18704,-5161 3224,5804 10317,13544 18704,14189 5159,646 9674,-1290 12899,-3871 2579,-1935 4514,-5161 4514,-8385 0,-1934 0,-3871 0,-5804 0,-1289 -1290,-2579 -2580,-2579 -1288,0 -1288,1936 -1934,2579 -647,1937 646,4514 0,6451 -647,2577 -1937,4514 -3871,5803 -1935,1290 -5804,1290 -5804,1290l1290 -5161c645,-3870 -2580,-6450 -3226,-10317 -645,-2579 -645,-5161 0,-7093 646,-2580 2579,-5161 5160,-5804 647,-647 1937,-647 2580,-647 1289,0 3871,647 3871,647 0,0 -647,-3871 -647,-5805 0,-2578 2579,-7739 3871,-10318 1936,-3871 5803,-7738 5803,-7738 647,645 3871,3871 6451,7738 1289,2579 3224,5804 3224,8385 647,1936 0,7093 0,7093 0,0 3871,-1934 5161,-1934 646,0 1936,0 3226,0 2577,644 4514,3224 5803,5803 1290,1935 645,5161 645,7094 -645,3870 -2579,6450 -1290,10317l1937 5161c0,0 -4514,0 -5804,-647 -1936,-1290 -3871,-3224 -4514,-5159 -646,-1936 0,-4516 -1936,-6450 -647,-647 -1290,-1936 -2580,-1290 -1289,0 -1934,1935 -1934,3224l0 5161c0,1290 645,3224 1290,4514 1934,3226 5160,5161 8384,6450 3871,1290 7094,1937 10965,1937 3224,0 9028,-647 12254,-1290 3870,-1290 5803,-3226 9027,-5804 1935,-1289 2580,-3871 3225,-5805 646,-2578 646,-6449 646,-6449 -3871,1290 -7093,3225 -10317,5804 -3226,2579 -6450,5804 -9030,8385l0 -42567c3871,4515 7093,8385 10964,11611 3225,2579 5161,3870 8385,5160 -645,-3226 -1290,-5803 -3871,-9030 -3224,-4513 -6448,-9674 -10964,-14831 7740,-1290 15480,-1290 22571,-1290 7740,0 15480,645 22574,1290 -3871,4514 -7740,9675 -10964,14831 -2580,3227 -2580,5804 -3871,9030 3224,-1290 5160,-1936 8384,-5160 3871,-3226 7094,-7094 10965,-11611l0 42567c-2580,-3224 -5804,-5804 -9030,-8385 -3224,-2579 -6448,-4514 -10318,-5804 0,0 0,4514 647,6449 645,1936 1935,4516 3224,5805 3225,2578 5161,4514 9028,5804 3226,1290 9030,1290 12254,1290 3871,0 7093,-647 10964,-1937 3225,-1289 6451,-3224 8385,-6450 647,-1290 1290,-2578 1290,-4514l0 -5161c0,-1289 -645,-3224 -1935,-3224 -1289,0 -1936,647 -2579,1290 -1290,1934 -647,4514 -1936,6450 -645,2578 -1935,3869 -4514,5159 -1935,1290 -5804,647 -5804,647l1936 -5161c1288,-3871 -1289,-6450 -1289,-10317 -647,-2580 -647,-5161 645,-7094 1289,-2579 3226,-4514 5803,-5803 647,-647 1937,0 3226,0 1290,0 5161,1934 5161,1934 0,0 0,-4514 0,-7093 645,-2578 1934,-5804 3224,-8385 2579,-3871 6450,-7093 6450,-7738 645,645 3871,3871 5804,7738 1290,2579 3871,7740 3871,10318 0,1936 -647,5805 -647,5805 0,0 2580,-647 3871,-647 647,0 1935,0 2579,647 2578,1288 4514,3224 5161,5804 645,2577 645,5158 0,7093 -647,3871 -4516,6448 -3226,10317l1290 5161c0,0 -4514,0 -5804,-1290 -1934,-1289 -3224,-3226 -3871,-5803 -646,-1937 647,-4514 0,-6451 0,-1289 -646,-3224 -1934,-2579 -1290,0 -2580,1936 -2580,2579 0,1937 0,3871 0,5804 0,3224 1935,5804 4514,8385 3224,3226 7093,4516 12899,3871 8387,-645 15480,-8385 18704,-14189 -16125,3225 -12899,4514 -18704,5161l10319 -35472c3225,9030 5804,17414 14189,23865 1289,-9675 -2580,-20639 -7094,-32893 10318,647 19349,1935 27732,4514 -7093,12254 -12253,23218 -17414,34827 -7093,12254 -16768,18704 -26442,19349 -5161,0 -9675,0 -14189,-2577 -3871,-1937 -7738,-4516 -10317,-9030 0,0 -6451,5804 -10320,7093 -4514,1937 -9674,3871 -14831,3871 -5161,0 -12254,-645 -16768,-1934 -5161,-1290 -7740,-3226 -10964,-7094 -3886,-1936 -8400,-9029 -8400,-9029z"/>
   <path class="fil9" d="M446922 984998l0 0c8385,-647 15478,-8385 18705,-14189 -16125,3224 -12901,4514 -18705,5161l10318 -35472c3226,9029 5805,17414 14190,23863 1290,-9675 -2579,-20637 -7093,-32891 10317,645 19349,1934 27732,4514 -7093,12254 -12254,23218 -17415,34827 -7093,12254 -16767,18704 -26442,19349l0 647 -1290 -5809zm-168971 6450c-9675,-647 -19349,-6450 -26443,-19349 -4514,-11611 -10319,-22572 -17414,-34829 7740,-2578 17414,-4514 27732,-4514 -3871,11611 -8385,23218 -7093,32893 8384,-6451 11610,-15479 14188,-23863l10319 35470c-5803,-1290 -2579,-2580 -18704,-5161 3224,5804 10318,13544 18704,14190l-1289 5163z"/>
   <path class="fil9" d="M327609 991448c-5158,0 -10317,-1937 -14831,-3871 -3871,-1936 -10318,-7093 -10318,-7093 -3226,3871 -7093,6450 -10319,9027 -4514,2580 -9028,2580 -14188,2580l0 1934 1289 -7738c5161,647 9675,-1289 12899,-3871 2579,-1934 4516,-5160 4516,-8384 0,-1937 0,-3871 0,-5804 0,-1290 -1290,-2579 -2580,-2579 -1289,0 -1289,1934 -1936,2579 -645,1934 647,4514 0,6448 -645,2580 -1935,4516 -3871,5806 -1934,1288 -5804,1288 -5804,1288l1290 -5159c647,-3871 -2579,-6450 -3224,-10319 -647,-2578 -647,-5161 0,-7094 645,-2577 2579,-5160 5160,-5803 645,-645 1935,-645 2578,-645 1290,0 3871,645 3871,645 0,0 -645,-3871 -645,-5804 0,-2579 2578,-7738 3871,-10318 1935,-3870 5804,-7740 5804,-7740 644,647 3871,3871 6448,7740 1290,2580 3226,5804 3226,8385 645,1935 0,7094 0,7094 0,0 3871,-1937 5161,-1937 645,0 1934,0 3224,0 2579,647 4514,3226 5804,5806 1289,1934 646,5158 646,7093 -646,3869 -2579,6448 -1289,10318l1934 5160c0,0 -4514,0 -5804,-647 -1934,-1289 -3870,-3224 -4513,-5160 -647,-1935 0,-4514 -1937,-6449 -645,-646 -1288,-1936 -2577,-1289 -1290,0 -1937,1934 -1937,3224l0 5161c0,1289 647,3224 1290,4513 1936,3225 5161,5161 8385,6451 3871,1289 7093,1934 10964,1934l-2587 4518z"/>
   <polygon class="fil9" points="363081,958555 369532,965649 372109,977902 381139,983708 394038,986934 406292,984998 415966,978547 417901,972099 427573,972099 429510,979837 439827,986287 448859,986934 459823,981127 466270,972744 472720,975323 466270,983063 458530,988867 453373,990156 448859,991448 443698,991448 439184,990801 435313,989511 430155,986287 423059,980484 417256,984998 411452,988222 403712,990801 395974,991448 386944,990156 378560,988222 371466,983063 365661,976613 363081,972744 360502,976613 354697,983063 346957,988222 339218,990156 330189,991448 322451,990801 314711,988222 308907,984998 303103,980484 296008,986287 290849,989511 286979,990801 282465,991448 277304,991448 272790,990156 267631,988867 259893,983063 253443,975323 259893,972744 266340,981127 277304,986934 286336,986287 296653,979837 298589,972099 308260,972099 309554,978547 319871,984998 332125,986934 345024,983708 354052,977902 356631,965005 "/>
   <path class="fil10" d="M363081 930178c-7093,0 -11611,645 -17414,1288 12900,17415 11611,18704 12900,25155 -4515,-647 -9029,-2580 -11610,-4516 -3871,-2578 -5804,-5804 -9028,-9028l645 29022c3226,-2580 5803,-5161 9674,-7740 2579,-1290 5804,-3224 10319,-3871 0,9030 -1289,16768 -9029,21928 -2580,1935 -5804,3225 -9028,3871 -3226,647 -6450,1290 -9675,1290 -3226,0 -7093,0 -9674,-1290 -2580,-646 -5161,-1936 -7740,-3871 -2579,-1934 -5161,-5160 -5804,-7740l-1289 -5158c0,0 646,-3871 1289,-5804 647,-1290 1290,-2579 2580,-3226 1289,-645 3224,0 3871,647 1289,1289 1934,2579 2579,4514 645,1934 0,3224 645,4513 646,1290 646,2580 1936,3226 645,645 2578,1288 2578,1288 0,0 -645,-2577 -1290,-3224 0,-1290 0,-1934 647,-3871 0,-1934 1289,-3224 1289,-5160 0,-1290 647,-3225 647,-4514 0,-1935 -647,-3225 -1290,-4514 -1289,-1290 -2579,-2580 -4515,-2580 -2578,0 -8385,3225 -8385,3225 0,-3869 0,-8385 -1290,-12252 -1288,-3871 -3224,-7094 -6448,-10320 -1290,1290 -2580,3226 -3226,4516 -1935,2577 -2578,4514 -3225,6448 -1289,4516 -646,7740 0,12254 0,0 -4514,-2579 -7738,-1934 -1290,0 -3226,1288 -3871,2577 -646,1290 -1289,2580 -1289,3871 0,1937 0,3871 1289,5161 645,1936 1935,3224 2578,5160 647,647 647,1935 647,3225 0,1289 -647,3226 -647,3226 4516,-1290 5160,-5161 4516,-9675 0,-1290 -647,-2579 0,-3871 644,-1936 1287,-1936 2577,-2579 647,-647 1937,-647 3226,0 1935,647 3224,2579 3871,4514 0,0 645,3871 645,6450 0,1935 -1290,5161 -1290,5161 -1289,3871 -6448,7738 -10317,9028 -5161,1936 -10964,1936 -16125,-647 -3871,-1935 -7093,-4514 -10318,-7738 -2579,-2580 -5160,-9030 -5160,-9030 6450,-1934 12900,0 18704,2579 -2579,-7093 -4516,-14188 -5804,-21928 -6450,12254 -11611,15480 -16767,18058 -1290,-7739 -1937,-17413 5158,-32891 -7093,0 -14188,1288 -21926,4514 -647,-647 -1290,-1937 -1290,-2580 7738,-2579 17413,-4514 27732,-4514 -3871,11609 -8387,23217 -7093,32893 8385,-6450 11609,-15480 14188,-23865l10318 35472c-5804,-1289 -2580,-2579 -18703,-5160 3225,5803 10318,13543 18703,14188 5160,647 9674,-1290 12900,-3871 2578,-1934 4514,-5160 4514,-8385 0,-1934 0,-3871 0,-5803 0,-1290 -1289,-2580 -2579,-2580 -1290,0 -1290,1937 -1935,2580 -646,1934 645,4514 0,6450 -646,2578 -1936,4514 -3871,5804 -1936,1289 -5803,1289 -5803,1289 0,0 645,-3226 1288,-5160 646,-3871 -2578,-6451 -3225,-10320 -646,-2577 -646,-5158 0,-7093 647,-2578 2580,-5159 5161,-5804 645,-644 1935,-644 2579,-644 1288,0 3871,644 3871,644 0,0 -646,-3870 -646,-5803 0,-2578 2579,-7738 3871,-10318 1934,-3871 5803,-7740 5803,-7740 647,647 3871,3871 6450,7740 1290,2580 3225,5804 3225,8385 646,1936 0,7093 0,7093 0,0 3871,-1934 5160,-1934 645,0 1935,0 3224,0 2580,645 4514,3224 5804,5803 1290,1935 647,5161 647,7094 -647,3871 -2580,6448 -1290,10317 647,1935 1935,5161 1935,5161 0,0 -4514,0 -5804,-647 -1935,-1289 -3871,-3224 -4514,-5160 -645,-1935 0,-4514 -1934,-6449 -647,-646 -1290,-1936 -2580,-1289 -1290,0 -1936,1934 -1936,3224 0,1936 0,5160 0,5160 0,1290 646,3225 1289,4514 1937,3226 5161,5161 8385,6451 3871,1289 7094,1934 10965,1934 3226,0 9029,-645 12253,-1288 3871,-1289 5804,-3226 9030,-5805 1935,-1288 2578,-3871 3224,-5804 647,-2577 647,-6448 647,-6448 -3871,1289 -7093,3224 -10319,5803 -3225,2578 -6449,5804 -9028,8385l0 -42567c3871,4514 7093,8385 10964,11611 3224,2577 5161,3871 8385,5159 -647,-3225 -1290,-5804 -3871,-9028 -3224,-4514 -6450,-9675 -10964,-14832 7740,-1289 15478,-1289 22571,-1289 7740,0 15478,644 22572,1289 -3871,4514 -7739,9675 -10965,14832 -2577,3224 -2577,5803 -3870,9028 3226,-1288 5160,-1935 8384,-5159 3871,-3226 7094,-7093 10965,-11611l0 42567c-2578,-3224 -5804,-5803 -9028,-8385 -3225,-2579 -6451,-4514 -10318,-5803 0,0 0,4514 645,6448 647,1937 1936,4516 3226,5804 3224,2579 5159,4516 9028,5805 3224,1288 9028,1288 12254,1288 3871,0 7093,-645 10964,-1934 3224,-1290 6448,-3225 8385,-6451 645,-1289 1290,-2579 1290,-4514 0,0 0,-3224 0,-5160 0,-1290 -647,-3224 -1937,-3224 -1290,0 -1934,644 -2577,1289 -1290,1935 -647,4514 -1937,6449 -646,2579 -1934,3871 -4514,5160 -1936,1290 -5803,647 -5803,647 0,0 1289,-3226 1934,-5161 1290,-3871 -1289,-6450 -1289,-10317 -645,-2580 -645,-5161 646,-7094 1290,-2579 3224,-4513 5804,-5803 647,-647 1936,0 3224,0 1290,0 5161,1934 5161,1934 0,0 0,-4514 0,-7093 646,-2579 1936,-5804 3226,-8385 2577,-3871 6448,-7093 6448,-7740 647,647 3871,3871 5804,7740 1289,2580 3871,7740 3871,10318 0,1936 -645,5803 -645,5803 0,0 2577,-644 3871,-644 645,0 1934,0 2577,644 2580,1290 4516,3226 5161,5804 647,2579 647,5161 0,7093 -645,3871 -4514,6451 -3224,10320 645,1934 1289,5160 1289,5160 0,0 -4515,0 -5803,-1289 -1937,-1290 -3226,-3226 -3871,-5804 -647,-1936 645,-4516 0,-6450 0,-1290 -647,-3225 -1937,-2580 -1289,0 -2579,1937 -2579,2580 0,1934 0,3871 0,5803 0,3225 1936,5804 4516,8385 3224,3226 7093,4514 12899,3871 8384,-645 15478,-8385 18704,-14188 -16125,3224 -12901,4514 -18704,5160l10317 -35472c3226,9030 5804,17415 14190,23865 1288,-9676 -2579,-20639 -7093,-32893 10318,645 19349,1935 27732,4514 -647,647 -1290,1935 -1290,2580 -7093,-3226 -14190,-3871 -21928,-4514 6450,15478 6450,25152 5161,32891 -5161,-2578 -10320,-5804 -16768,-18058 -1290,7093 -3226,14190 -5804,21928 5804,-2579 12252,-4513 18703,-2579 0,0 -2580,5805 -5161,9030 -2579,3224 -6449,5803 -10318,7738 -5160,2579 -10964,2579 -16124,647 -3225,-1290 -9028,-5161 -10318,-9028 0,0 -1290,-3226 -1290,-5161 0,-1936 647,-6450 647,-6450 645,-1935 1935,-3871 3871,-4514 1288,-647 1934,-647 3224,0 1290,647 1935,1290 2580,2579 644,1290 0,2578 0,3871 -647,4514 0,7738 4513,9675 0,0 -646,-1937 -646,-3226 0,-1290 0,-1935 646,-3225 647,-1936 1935,-3224 2580,-5160 645,-1935 1290,-3224 1290,-5161 0,-1289 -647,-3224 -1290,-3871 -647,-1289 -2580,-1934 -3871,-2577 -2579,-647 -7740,1934 -7740,1934 647,-5160 1290,-7738 0,-12254 -645,-1934 -1935,-3871 -3224,-6448 -647,-1290 -1937,-3226 -3226,-4516 -3225,3226 -5159,7093 -6449,10320 -1289,3870 -1289,8384 -1289,12252 0,0 -5804,-3869 -8385,-3225 -1937,0 -3226,1290 -4514,2580 -1290,1289 -1290,2579 -1290,4514 0,1289 0,3224 645,4514 0,1936 1290,3226 1290,5160 0,1290 646,1937 646,3871 0,1290 -1289,3224 -1289,3224 0,0 1934,-644 2579,-1288 1288,-646 1288,-1936 1935,-3226 646,-1934 0,-3224 646,-4513 645,-1935 1290,-3225 2578,-4514 1289,-647 2579,-1290 3871,-647 1289,647 1936,1936 2579,3226 647,1288 1290,5804 1290,5804l-1290 5158c-647,2580 -3224,5806 -5804,7740 -2579,1935 -5160,3225 -7740,3871 -3224,647 -6448,1290 -9674,1290 -3224,0 -6449,0 -9675,-1290 -3224,-646 -5803,-2579 -9027,-3871 -7740,-5160 -9675,-12898 -9028,-21928 4514,1290 7738,2579 10317,3871 3871,2579 6451,5160 9675,7740l645 -29022c-3225,3224 -5159,6450 -9028,9028 -2580,1936 -7094,3871 -11609,4516 1288,-5806 0,-7740 12898,-25155 -8403,0 -12918,-1288 -20012,-1288z"/>
   <path class="fil13" d="M366952 961135l0 0 0 -647 645 0c4516,1290 7740,2579 10319,3871 3225,1936 5804,4514 9028,6450l647 -25797c-2579,2579 -4514,5160 -7740,7740 -2579,1934 -7738,3870 -12254,4514l-1288 0 0 -1290c645,-2578 645,-5161 1935,-8385 1289,-3224 4514,-7738 10317,-16125 -5158,-645 -9028,-1288 -16123,-1288 -6450,0 -10964,645 -16124,1288 5803,7740 8384,12901 10317,16125 1290,3224 1290,5161 1936,8385l0 1290 -1289 0c-4514,-645 -9675,-2580 -12254,-4514 -3224,-1937 -5161,-5161 -7740,-7094l647 25796c2579,-1935 5160,-4514 9027,-6449 2580,-1936 5806,-3226 10320,-3870l645 0 -2 0 -1290 1289c-3871,1290 -6448,2578 -9028,3871 -3871,2578 -6450,5159 -9674,7738l0 0 0 -1289 -647 -29020 0 -1937 1290 1290c3224,3224 5160,6450 9028,9028 1936,1290 6450,3226 10319,3871 -647,-2578 -647,-3871 -1936,-7093 -1290,-3225 -3871,-7739 -10318,-16768l-647 -1290 1290 0c5804,-645 10319,-1288 17415,-1288 7093,0 11609,645 17412,1288l1290 0 -645 1290c-6450,8386 -9030,13543 -10319,16768 -1290,2579 -1290,4515 -1935,7093 3871,-645 8385,-2578 10318,-3871 3226,-2578 5803,-5804 9029,-9028l1288 -1290 0 1937 -645 29020 8 1289 -1290 -645c-3224,-2579 -5804,-5160 -9674,-7739 -2580,-1290 -5161,-2580 -9028,-3871l-2580 -643zm-58692 12253l0 0 -645 -3226c0,0 0,-644 0,-1934 0,-1290 645,-2579 645,-3226 647,-645 647,-1288 1290,-1935 647,-646 647,-646 1290,-1289 1289,-647 2579,0 3224,646 1290,645 1936,2578 2579,3871 0,645 0,1288 647,1935 0,646 0,1936 645,2579 646,1290 646,2579 2579,3871 1290,645 2580,1290 2580,1290l1289 645 -646 -1935c0,0 -645,-2579 -645,-3226 0,-645 0,-1288 0,-1288 0,-647 0,-1290 645,-1936 0,-1290 1289,-3225 1289,-5161 0,-1290 647,-3224 647,-4514 0,-1934 -647,-3224 -1936,-4514 -1290,-1936 -2580,-2579 -5161,-3226 -1935,0 -3871,647 -5804,1937 -1289,646 -1289,646 -1934,1289 0,-3871 0,-7740 -1290,-10964 -1290,-3871 -3224,-7093 -6450,-10964l-1284 0 -647 647c-1288,1934 -2578,3224 -3224,4513 -1935,2580 -2580,4514 -3224,6451 -1290,4514 -647,7091 0,11609 -647,0 -647,-647 -1290,-647 -1290,-645 -3871,-1288 -5161,-645 -1934,645 -3224,1290 -4514,2580 -1289,1288 -1289,3224 -1936,4514 0,1934 0,3870 1290,5803 646,1935 1936,3224 2579,5161 647,645 647,1934 647,2577 0,1290 -647,3226 -647,3226l-647 1290 1290 -647c2579,-646 3871,-1934 4514,-3870 647,-1935 647,-3871 0,-6451 0,-1288 -645,-2577 0,-3224 0,-647 647,-1290 647,-1290 0,0 646,-645 1289,-645 647,-646 1935,0 2580,0 1289,645 3224,2578 3224,3871l0 0c0,0 647,3869 647,5804l1934 645c0,-2580 -646,-6449 -646,-6449 -645,-1936 -1935,-3871 -4514,-5160 -1290,-647 -2578,-647 -3871,0 -645,645 -1290,645 -1935,1289 -647,645 -647,1288 -1290,1935 -646,1290 0,2579 0,3871 647,1934 647,3871 0,5161 -646,1289 -1289,1934 -2579,2579 0,-647 647,-1290 647,-1936 0,-1290 0,-2580 -647,-3225 -645,-1936 -1934,-3226 -2579,-5160 -645,-1290 -1288,-3225 -645,-5161 0,-1290 645,-2579 1290,-3871 644,-1289 1934,-1934 3224,-1934 1289,0 3224,0 4514,645 1289,646 2579,1289 2579,1289l1290 647 0 -1290c-647,-5160 -1290,-7093 0,-11611 646,-1934 1289,-3871 3224,-6448 647,-1290 1936,-2580 2579,-3871 2580,3224 4514,6448 5804,9674 1290,3225 1290,8385 647,12254l0 1288 1289 -645c0,0 1288,-646 3225,-1936 1934,-645 3870,-1290 4514,-1290 1936,0 2579,647 3870,2580 647,1289 1290,1936 1290,3871 0,1289 0,3226 -647,4514 0,1289 -1289,3226 -1289,5160 0,647 0,1290 -645,1937 0,644 0,1289 0,1934 0,647 0,1290 645,1936 -645,0 -645,0 -645,-646 -647,-647 -1290,-1935 -1936,-3224 0,-647 -645,-1290 -645,-1937 0,-645 0,-1934 -647,-2579 -645,-1935 -1290,-3869 -3224,-4514 -1290,-1290 -3226,-1290 -4514,-645 -647,0 -1936,645 -1936,1290 -645,645 -645,1288 -1290,1934 -645,647 -645,2580 -645,3871 0,1290 -647,2580 -647,2580l0 0 0 0 647 3224 645 0 2588 -1928zm-50303 -3226l0 0c5803,-1289 11611,0 17414,2580l1935 646 -645 -1936c-2579,-7093 -4514,-14188 -5804,-21282l-646 -1932 -1290 1934c-5804,11611 -10964,14833 -15478,16768 -1290,-7093 -1290,-16768 5160,-30956l647 -1290 -1290 0c-7093,0 -14833,1290 -21928,4514l647 1290c6448,-3225 13541,-3871 19992,-3871 -5804,14833 -5804,24508 -4514,31603l0 646 645 -646c4514,-1935 9674,-5804 16124,-16768 1290,5804 3225,12254 5161,18057 -5804,-2579 -11611,-3870 -17414,-1936l-645 0 645 647 0 0 1284 1932zm212183 0l0 0 645 -644 -645 0c-6450,-1937 -12253,-647 -17414,1934 1936,-5803 3871,-12254 5161,-18057 5803,10964 10964,14188 16124,16767l645 647 0 -647c1290,-7093 1290,-17412 -4514,-31603 7094,647 13544,1290 19992,3871l647 -1289c-7093,-3225 -14831,-3871 -21928,-4514l-1290 0 647 1289c6450,14189 6450,23863 5160,30957 -4514,-1935 -9030,-5804 -15478,-16768l-1940 -3867 -647 1934c-1289,7094 -3224,14189 -5803,21282l-647 1936 1936 -646c5804,-2578 10965,-3871 17413,-2578l0 0 1936 -4zm-44499 2582l0 0c0,-2578 646,-6449 646,-6449 645,-1936 1935,-3871 4514,-5160 1290,-647 2580,-647 3871,0 645,644 1290,644 1935,1289 646,645 646,1290 1289,1935 647,1290 0,2579 0,3871 -646,1936 -646,3871 0,5160 647,1290 1290,1935 2580,2580 0,-647 -647,-1290 -647,-1937 0,-1289 0,-2579 647,-3224 645,-1936 1934,-3226 2579,-5160 645,-1290 1288,-3225 645,-5161 0,-1290 -645,-2579 -1290,-3871 -645,-1290 -1934,-1935 -3224,-1935 -1290,0 -3224,0 -4514,645 -1290,647 -2579,1290 -2579,1290l-1290 647 0 -1290c647,-5161 1290,-7093 0,-11611 -647,-1934 -1935,-3869 -3224,-6448 -647,-1290 -1937,-2580 -2580,-3871 -2579,3224 -4514,6450 -5803,9674 -1290,3224 -1290,8385 -1290,12254l0 1288 -1290 -645c0,0 -1289,-646 -3224,-1936 -1936,-645 -3871,-1288 -4514,-1288 -1936,0 -2579,645 -3871,2578 -646,1289 -1289,1936 -1289,3870 0,1290 0,3226 0,4514 0,1290 1289,3226 1289,5161 0,647 0,1290 645,1936 0,645 0,1290 0,1935 0,647 0,1290 -645,1936 645,0 645,0 645,-646 647,-647 1290,-1935 1937,-3225 0,-646 644,-1289 644,-1936 0,-645 0,-1935 647,-2578 647,-1936 1290,-3871 3224,-4515 1290,-1290 3226,-1290 4516,-645 645,0 1935,645 1935,1289 646,645 646,1288 1289,1935 645,647 645,2579 645,3871 0,1291 0,2579 0,2579l0 0 0 0 -1288 3871 -1300 -1288 1289 -3871c0,0 0,-1289 0,-1934 0,-1290 -645,-2579 -645,-3226 -646,-645 -646,-1288 -1289,-1935 -647,-646 -647,-646 -1290,-1289 -1290,-647 -2579,0 -3224,646 -1290,645 -1937,2578 -2580,3871 0,645 0,1288 -646,1935 0,646 0,1936 -645,2579 -647,1290 -647,2579 -2579,3871 -1290,645 -2580,1290 -2580,1290l-1290 645 647 -1935c0,0 645,-2579 645,-3226 0,-645 0,-1288 0,-1288 0,-647 -645,-1290 -645,-1936 0,-1290 -1290,-3225 -1290,-5161 0,-1290 -646,-3224 0,-4514 0,-1934 647,-3224 1935,-4514 1290,-1936 2579,-2579 5161,-3226 1936,0 3870,647 5803,1937 1290,646 1290,646 1937,1289 0,-3871 0,-7740 1289,-10964 1290,-3871 3224,-7093 6449,-10964l646 -647 647 647c1288,1934 2578,3224 3224,4514 1935,2579 2580,4514 3871,6450 1290,4514 647,7093 0,11609 647,0 647,-645 1290,-645 1290,-646 3871,-1289 5160,-646 1935,646 3225,1289 4514,2579 1290,1290 1290,3224 1935,4514 0,1936 0,3871 -1290,5804 -645,1936 -1934,3226 -2577,5160 -647,647 -647,1936 -647,2580 0,1289 647,3224 647,3224l645 1289 -1290 -646c-2578,-645 -3871,-1935 -4514,-3871 -645,-1935 -645,-3869 0,-6449 0,-1289 647,-2579 0,-3226 0,-644 -645,-1288 -645,-1288 0,0 -647,-646 -1290,-646 -646,-647 -1936,0 -2579,0 -1290,646 -3224,2579 -3224,3871 -1303,2583 -1946,5164 -3235,6454z"/>
   <path class="fil17" d="M363081 932760c-3224,0 -8384,644 -10964,644 0,0 5161,9030 7093,13544 1290,3224 3871,10318 3871,10318l0 -24506z"/>
   <path class="fil17" d="M341153 958555c0,-2579 -647,-6450 -647,-9028 0,0 3871,4514 7740,5804 2580,1290 10318,3224 10318,3224l-17411 0z"/>
   <path class="fil17" d="M385010 958555c0,-2579 645,-6450 645,-9028 0,0 -3871,4514 -7739,5804 -2579,1290 -10319,3224 -10319,3224l17413 0z"/>
   <path class="fil11" d="M340510 959198c0,2580 -647,6451 -647,9030 0,0 3871,-4514 7740,-5804 2580,-1289 10318,-3226 10318,-3226l-17411 0z"/>
   <path class="fil11" d="M385010 959198c0,2580 645,6451 645,9030 0,0 -3871,-4514 -7739,-5804 -2579,-1289 -10319,-3226 -10319,-3226l17413 0z"/>
   <path class="fil17" d="M301814 935337l646 32893 -3871 -5804c-1289,-1934 -4515,-3871 -7093,-3224 -1936,0 -3871,645 -4514,2577 -1290,1937 -1290,6451 -1290,6451 0,0 -1289,-1290 -1936,-2580 -645,-1289 -645,-3224 0,-4514 0,-1289 647,-1934 1290,-2579 646,-645 1936,-1288 2579,-1288 3224,-647 9028,2578 9028,2578 0,0 -1290,-7738 -1290,-10964 1290,-5163 6451,-13546 6451,-13546z"/>
   <path class="fil11" d="M424349 935337l-647 32893 3871 -5804c1290,-1934 4514,-3871 7094,-3224 1936,0 3871,645 4514,2577 1289,1937 1289,6451 1289,6451 0,0 1290,-1290 1937,-2580 644,-1289 644,-3224 0,-4514 0,-1289 -647,-1934 -1290,-2579 -647,-645 -1936,-1288 -2579,-1288 -3225,-647 -9028,2578 -9028,2578 0,0 1288,-7738 1288,-10964 -1288,-5163 -6449,-13546 -6449,-13546z"/>
   <path class="fil10" d="M240544 942430c3224,-1289 7738,-2577 10318,-3871 0,0 -1935,9675 -1935,14191 0,3871 645,10964 645,10964l-9028 -21284z"/>
   <path class="fil11" d="M485619 942430c-3225,-1289 -7740,-2577 -10318,-3871 0,0 1935,9675 1935,14191 0,3871 -645,10964 -645,10964l9028 -21284z"/>
   <path class="fil4 str2" d="M363081 972744c0,0 -4514,7093 -7093,9029 -3871,3225 -6450,5161 -10964,7094 -5161,1289 -11609,2577 -16768,1934 -5161,0 -10318,-1934 -14831,-3871 -3871,-1934 -10320,-7093 -10320,-7093 -3224,3871 -7093,6450 -10317,9030 -4514,2577 -9028,2577 -14189,2577 -9674,-645 -19349,-6448 -26442,-19349 -4516,-11609 -10320,-22571 -17415,-34827 7740,-2579 17415,-4514 27732,-4514 -3871,11609 -8384,23218 -7093,32893 8385,-6451 11611,-15478 14189,-23865"/>
   <line class="fil4 str2" x1="269566" y1="941141" x2="279240" y2= "976613" />
   <path class="fil4 str2" d="M279240 976613c-5803,-1290 -2579,-2580 -18704,-5161 3224,5804 10318,13544 18704,14189 5159,646 9675,-1290 12899,-3871 2580,-1935 4514,-5159 4514,-8385 0,-1935 0,-3871 0,-5804 0,-1289 -1290,-2579 -2579,-2579 -1288,0 -1288,1936 -1935,2579 -647,1937 647,4514 0,6451 -647,2579 -1934,4513 -3871,5803 -1934,1290 -5803,1290 -5803,1290"/>
   <line class="fil4 str2" x1="282465" y1="981127" x2="283754" y2= "975970" />
   <path class="fil4 str2" d="M283754 975970c645,-3871 -2579,-6451 -3226,-10320 -645,-2577 -645,-5158 0,-7093 647,-2578 2580,-5159 5161,-5804 647,-644 1936,-644 2579,-644 1290,0 3871,644 3871,644 0,0 -647,-3870 -647,-5803 0,-2580 2580,-7738 3871,-10318 1937,-3871 5804,-7740 5804,-7740 647,647 3871,3871 6450,7740 1290,2580 3225,5804 3225,8385 646,1936 0,7093 0,7093 0,0 3870,-1934 5160,-1934 647,0 1936,0 3226,0 2578,645 4514,3224 5804,5803 1289,1935 645,5159 645,7094 -645,3871 -2578,6448 -1290,10317"/>
   <line class="fil4 str2" x1="324385" y1="973388" x2="326321" y2= "978547" />
   <path class="fil4 str2" d="M326321 978547c0,0 -4515,0 -5805,-645 -1935,-1289 -3869,-3226 -4514,-5160 -645,-1937 0,-4514 -1934,-6450 -647,-645 -1290,-1935 -2580,-1290 -1290,0 -1934,1936 -1934,3226"/>
   <line class="fil4 str2" x1="309554" y1="966938" x2="309554" y2= "972099" />
   <path class="fil4 str2" d="M309554 972099c0,1289 644,3224 1288,4514 1936,3224 5160,5160 8386,6450 3871,1288 7093,1935 10964,1935 3225,0 9028,-647 12252,-1290 3871,-1290 5804,-3224 9030,-5804 1935,-1289 2578,-3871 3224,-5803 647,-2580 647,-6451 647,-6451 -3871,1290 -7093,3226 -10319,5804 -3225,2579 -6449,5804 -9028,8387"/>
   <line class="fil4 str2" x1="335992" y1="979194" x2="335349" y2= "936627" />
   <path class="fil4 str2" d="M335349 936627c3871,4514 7094,8385 10965,11611 3224,2577 5160,3871 8384,5160 -646,-3226 -1289,-5805 -3871,-9029 -3224,-4514 -6450,-9675 -10964,-14832 7740,-1290 15478,-1290 22572,-1290 7740,0 15478,645 22571,1290 -3871,4514 -7738,9675 -10964,14832 -2578,3224 -2578,5803 -3871,9029 3226,-1289 5161,-1936 8387,-5160 3871,-3226 7093,-7094 10964,-11611"/>
   <line class="fil4 str2" x1="390813" y1="936627" x2="390170" y2= "979194" />
   <path class="fil4 str2" d="M390170 979194c-2579,-3224 -5805,-5804 -9029,-8385 -3225,-2579 -6451,-4514 -10318,-5804 0,0 0,4514 645,6449 647,1936 1936,4516 3226,5804 3224,2579 5161,4515 9028,5805 3224,1288 9030,1288 12254,1288 3871,0 7093,-645 10964,-1935 3224,-1289 6450,-3224 8385,-6450 647,-1290 1290,-2578 1290,-4514"/>
   <line class="fil4 str2" x1="416609" y1="972099" x2="416609" y2= "966938" />
   <path class="fil4 str2" d="M416609 966938c0,-1289 -645,-3224 -1934,-3224 -1290,0 -1937,645 -2580,1288 -1290,1936 -647,4516 -1936,6450 -645,2580 -1935,3871 -4514,5161 -1935,1289 -5804,645 -5804,645"/>
   <line class="fil4 str2" x1="399841" y1="978547" x2="401778" y2= "973388" />
   <path class="fil4 str2" d="M401778 973388c1289,-3870 -1290,-6450 -1290,-10319 -647,-2577 -647,-5160 645,-7093 1289,-2578 3226,-4514 5803,-5804 647,-645 1937,0 3226,0 1290,0 5161,1937 5161,1937 0,0 0,-4516 0,-7094 645,-2579 1935,-5803 3224,-8385 2580,-3870 6451,-7093 6451,-7740 644,647 3870,3871 5803,7740 1290,2578 3871,7739 3871,10318 0,1935 -647,5804 -647,5804 0,0 2580,-647 3871,-647 647,0 1937,0 2580,647 2579,1289 4514,3224 5160,5803 645,2580 645,5161 0,7094 -646,3870 -4515,6450 -3226,10317"/>
   <line class="fil4 str2" x1="442408" y1="975970" x2="443698" y2= "981127" />
   <path class="fil4 str2" d="M443698 981127c0,0 -4514,0 -5804,-1290 -1936,-1290 -3226,-3224 -3870,-5804 -647,-1934 644,-4514 0,-6450 0,-1288 -647,-3224 -1937,-2578 -1289,0 -2577,1935 -2577,2578 0,1936 0,3871 0,5805 0,3225 1934,5804 4514,8385 3224,3225 7093,4514 12898,3871 8385,-646 15478,-8386 18705,-14190 -16125,3226 -12901,4516 -18705,5161"/>
   <line class="fil4 str2" x1="446922" y1="976613" x2="456597" y2= "941141" />
   <path class="fil4 str2" d="M456597 941141c3226,9029 5803,17414 14188,23864 1290,-9674 -2577,-20638 -7093,-32892 10319,647 19351,1934 27732,4514 -7093,12254 -12252,23218 -17413,34827 -7093,12254 -16767,18704 -26442,19349 -5161,0 -9675,0 -14188,-2578 -3871,-1936 -7740,-4514 -10320,-9029 0,0 -6448,5803 -10317,7093 -4514,1936 -9675,3871 -14834,3871 -5158,0 -12252,-645 -16767,-1935 -5159,-1289 -7739,-3226 -10963,-7093 -2579,-2579 -7093,-9030 -7093,-9030"/>
   <path class="fil2" d="M370175 958555c0,3871 -3226,7094 -7094,7094 -3871,0 -7093,-3225 -7093,-7094 0,-3871 3224,-7093 7093,-7093 3871,-2 7094,3222 7094,7093z"/>
   <path class="fil12" d="M357278 962424l1289 1935 2578 1290 1936 0 2580 0 2577 -1935 1290 -1936 647 -2580 0 -2577 -1290 -1937 -1290 -1934 -1934 -647c0,0 1288,1935 1288,2579 0,645 0,1935 0,2578 0,647 -645,1936 -1288,2579 -647,647 -1937,1290 -2580,1937 -646,645 -1936,645 -3224,645 -647,648 -2579,3 -2579,3z"/>
   <path class="fil1" d="M364371 955331c0,1935 -1936,3871 -3871,3871 -1936,0 -3871,-1936 -3871,-3871 0,-1290 645,-1290 1290,-1936 645,-645 1934,-1935 2578,-1935 2584,645 3874,1935 3874,3871z"/>
   <path class="fil4 str9" d="M370175 958555c0,3871 -3226,7094 -7094,7094 -3871,0 -7093,-3225 -7093,-7094 0,-3871 3224,-7093 7093,-7093 3871,-2 7094,3222 7094,7093"/>
   <path class="fil2" d="M259893 968230c0,3871 -3224,7093 -7093,7093 -3871,0 -7093,-3224 -7093,-7093 0,-3871 3224,-7094 7093,-7094 3869,-1 7093,3223 7093,7094z"/>
   <path class="fil12" d="M246994 972099l1288 1934 2580 1290 1936 0 2578 0 2579 -1935 1290 -1936 646 -2579 0 -2578 -1289 -1290 -1933 -1936 -1936 -645c0,0 1289,1935 1289,2578 0,647 0,1936 0,2579 0,647 -646,1937 -1289,2580 -647,644 -1935,1289 -2580,1934 -645,647 -1934,647 -3224,647 0,2 -1935,-643 -1935,-643z"/>
   <path class="fil1" d="M254086 965005c0,1935 -1935,3871 -3869,3871 -1937,0 -3871,-1936 -3871,-3871 0,-1289 645,-1289 1288,-1936 646,-645 1936,-1934 2579,-1934 2585,644 3873,1934 3873,3870z"/>
   <path class="fil4 str9" d="M259893 968230c0,3871 -3224,7093 -7093,7093 -3871,0 -7093,-3224 -7093,-7093 0,-3869 3224,-7094 7093,-7094 3869,-1 7093,3223 7093,7094"/>
   <path class="fil2" d="M466270 968230c0,3871 3224,7093 7093,7093 3871,0 7093,-3224 7093,-7093 0,-3871 -3226,-7094 -7093,-7094 -3869,-1 -7093,3223 -7093,7094z"/>
   <path class="fil12" d="M479168 972099l-1289 1934 -2578 1290 -1936 0 -2580 0 -2577 -1935 -1290 -1936 -647 -2579 0 -2578 1290 -1290 1290 -1936 1934 -645c0,0 -1288,1935 -1288,2578 0,647 0,1936 0,2579 0,647 645,1937 1288,2580 647,644 1937,1289 2580,1934 646,647 1936,647 3226,647 643,2 2577,-643 2577,-643z"/>
   <path class="fil1" d="M472075 965005c0,1935 1936,3871 3871,3871 1936,0 3871,-1936 3871,-3871 0,-1289 -645,-1289 -1290,-1936 -645,-645 -1934,-1934 -2577,-1934 -2585,644 -3875,1934 -3875,3870z"/>
   <path class="fil4 str9" d="M466914 968230c0,3871 3226,7093 7094,7093 3871,0 7093,-3224 7093,-7093 0,-3869 -3867,-7095 -7736,-7095 -3871,0 -6451,3224 -6451,7095"/>
   <polygon class="fil9" points="296008,969519 311486,968230 313421,971454 311486,975323 296008,975970 293429,972744 "/>
   <polygon class="fil10" points="296008,969519 311486,968230 313421,971454 293429,972744 "/>
   <polygon class="fil4 str2" points="296008,968873 311486,968230 313421,971454 311486,975323 296008,975970 293429,972744 "/>
   <polygon class="fil9" points="430155,969519 414676,968230 412742,971454 414676,975323 430155,975970 432734,972744 "/>
   <polygon class="fil18" points="430155,969519 414676,968230 412742,971454 432734,972744 "/>
   <polygon class="fil4 str2" points="430155,968873 415319,968230 412742,971454 414676,975323 430155,975970 432734,972744 "/>
   <path class="fil13" d="M266340 1028851c0,0 10964,-645 30311,-1935 19349,-1289 39986,-1936 50306,-1936 1936,0 30311,0 32246,0 10319,0 31602,647 50307,1936 19349,1290 30309,1935 30309,1935l6451 -30310c0,0 -69008,-6450 -103189,-6450 -34827,0 -103188,6450 -103188,6450l6447 30310z"/>
   <polygon class="fil19" points="350183,992738 377270,992738 377270,1024983 351470,1024983 "/>
   <polygon class="fil11" points="274082,997251 352117,992738 352117,1023694 276014,1026918 "/>
   <polygon class="fil9" points="280528,996605 332770,992738 334060,1024337 282465,1026918 "/>
   <polygon class="fil10" points="287625,995962 317292,994025 318581,1025628 303746,1025628 289560,1026273 "/>
   <path class="fil13" d="M346957 1021757c-10965,0 -31603,647 -50949,1937 -12254,645 -18704,1934 -30958,3224l1290 2579c12254,-1289 18057,-1289 30311,-1936 19349,-1288 39986,-1934 50306,-1934 1936,0 30311,0 32246,0 10319,0 31602,646 50307,1934 19349,1290 30956,1936 30956,1936l645 -2579c0,0 -11609,-1935 -30956,-3224 -19350,-1290 -40631,-1937 -50949,-1937 -1936,0 -30958,0 -32249,0z"/>
   <path class="fil16" d="M296008 995315c-19349,1290 -36117,3226 -36117,3226l1288 5161c0,0 16125,-1937 35472,-3226 19349,-1290 39986,-1290 50306,-1290 1936,0 30311,0 32246,0 10319,0 31602,647 50950,1936 19349,1290 35470,3225 35470,3225l647 -5161c0,0 -17415,-1935 -36760,-3224 -19351,-1290 -40633,-2580 -50950,-2580 -1935,0 -34183,0 -32246,0 -16768,-1 -33536,1290 -50306,1933z"/>
   <path class="fil4 str2" d="M362435 992738c34827,0 69007,1934 103835,5803"/>
   <line class="fil4 str2" x1="466270" y1="998541" x2="459823" y2= "1028851" />
   <path class="fil4 str2" d="M459823 1028851c-34182,-3224 -61914,-3871 -96742,-3871"/>
   <path class="fil4 str2" d="M363726 992738c-34827,0 -69006,1934 -103833,5803"/>
   <line class="fil4 str2" x1="259893" y1="998541" x2="266340" y2= "1028851" />
   <path class="fil4 str2" d="M266340 1028851c34182,-3224 61914,-3871 96741,-3871"/>
   <path class="fil9" d="M296008 994025l0 0 0 0c-12254,647 -26442,1937 -38696,3871 -1936,1937 -1936,3871 1290,5806 11609,-1937 25795,-2580 38049,-3226 16768,-645 33536,-1290 50306,-1935l32249 0c10318,0 30956,645 50305,1935 18703,1289 38050,3226 38050,3226 3224,-1937 3224,-3871 1290,-5806 0,0 -19349,-2577 -38696,-3871 -19350,-1287 -40631,-1934 -50949,-1934l-32249 0c-16768,0 -34179,647 -50949,1934z"/>
   <path class="fil10" d="M470140 999186c0,-645 -646,-1290 -1289,-1935 0,0 -19349,-2579 -38696,-3870 -19350,-1290 -40631,-1937 -50949,-1937l-32249 4c-16768,0 -34181,645 -50949,1934l0 0 0 -1c-12254,644 -26442,1934 -38696,3224 -647,1289 -1290,1289 -1290,1936 14189,-1290 26443,-2579 40631,-3871 21928,-1289 45790,-1289 66428,-1936 20639,0 41274,647 61268,1936 15478,1935 30956,3224 45791,4516z"/>
   <path class="fil13" d="M256669 1001765c645,647 1288,647 1934,1290 11611,-1936 25796,-2579 38050,-3224 16768,-647 33536,-1290 50305,-1937l32248 0c10318,0 30956,647 50305,1937 18703,1288 38050,3224 38050,3224 1290,-647 1290,-647 1936,-1290 -36761,-5160 -70299,-5803 -105124,-5803 -34184,-647 -72881,1289 -107704,5803z"/>
   <polyline class="fil4 str10" points="296008,993381 296008,994025 296008,994025 "/>
   <path class="fil4 str10" d="M296008 994025c-12254,647 -26442,1937 -38696,3226 -1936,1935 -1936,3871 1290,5804 11609,-1936 25795,-2579 38049,-3224 16768,-647 33536,-1290 50306,-1937"/>
   <line class="fil4 str10" x1="346957" y1="997251" x2="379206" y2= "997251" />
   <path class="fil4 str10" d="M379206 997251c10318,0 30956,645 50305,1935 18703,1290 38050,3226 38050,3226 3224,-1936 3224,-3871 1290,-5804 0,0 -19349,-2579 -38696,-3870 -19350,-1290 -40631,-1937 -50949,-1937"/>
   <line class="fil4 str10" x1="379206" y1="992091" x2="346957" y2= "992091" />
   <path class="fil4 str10" d="M346957 992091c-16768,0 -34181,647 -50949,1934"/>
   <path class="fil9" d="M300522 1024983l0 0 0 0c-11611,645 -24508,1935 -36117,3871 -1936,1935 -1936,3871 1290,5804 10964,-1936 23863,-2579 35470,-3226 15478,-645 30956,-1288 46435,-1935l29670 0c9029,0 29022,647 46434,1935 17415,1290 35472,3226 35472,3226 3224,-1936 2580,-3871 1290,-5804 0,0 -18058,-2579 -36117,-3871 -18057,-1289 -37406,-1936 -47081,-1936l-29665 0c-15478,0 -30956,1290 -47081,1936z"/>
   <path class="fil10" d="M462400 1030787c0,-647 -644,-1290 -1289,-1936 0,0 -18056,-2578 -36117,-3871 -18058,-1288 -37407,-1935 -47081,-1935l-29665 2c-15478,0 -31601,647 -47081,1936l0 0 0 0c-11609,645 -24506,1935 -36117,3225 -645,1289 -1290,1289 -1290,1936 13544,-1290 24508,-2579 37407,-3871 20639,-1290 42567,-1290 61914,-1936 19349,0 38697,646 57399,1936 14188,1288 28379,2578 41920,4514z"/>
   <path class="fil13" d="M264407 1032722c647,646 647,646 1936,1289 10963,-1934 23863,-2579 35471,-3224 15478,-647 30956,-1290 46434,-1936l29665 0c9030,0 29022,646 46436,1936 17413,1290 35470,3224 35470,3224 647,-644 1290,-644 1290,-1289 -34182,-5161 -65139,-5804 -98029,-5804 -30955,0 -66427,1290 -98673,5804z"/>
   <polyline class="fil4 str11" points="301167,1024983 301167,1024983 300522,1024983 "/>
   <path class="fil4 str11" d="M300522 1024983c-11611,645 -24508,1935 -36117,3225 -1936,1936 -1936,3871 1290,5803 10964,-1934 23863,-2579 35470,-3224 15478,-647 30956,-1290 46435,-1290"/>
   <line class="fil4 str11" x1="348248" y1="1028851" x2="377913" y2= "1028851" />
   <path class="fil4 str11" d="M377913 1028851c9030,0 29022,0 46436,1289 17413,1290 35470,3227 35470,3227 3226,-1937 2580,-3871 1290,-5806 0,0 -18058,-2578 -36117,-3869 -18057,-1290 -37406,-1290 -47081,-1290"/>
   <line class="fil4 str11" x1="377913" y1="1023694" x2="348248" y2= "1023694" />
   <path class="fil4 str11" d="M348248 1023694c-15478,0 -31601,645 -47081,1289"/>
   <rect class="fil9" x="342445" y="999832" width="41275" height="20639"/>
   <polygon class="fil10" points="342443,999831 383720,999831 342443,1020468 "/>
   <polygon class="fil11" points="383720,1004345 383720,1020468 350827,1020468 "/>
   <line class="fil4 str12" x1="343732" y1="999831" x2="382430" y2= "999831" />
   <path class="fil4 str12" d="M382430 999831c647,0 1290,645 1290,1288"/>
   <line class="fil4 str12" x1="383720" y1="1001119" x2="383720" y2= "1019823" />
   <path class="fil4 str12" d="M383720 1019823c0,645 -647,1290 -1290,1290"/>
   <line class="fil4 str12" x1="382430" y1="1020468" x2="343732" y2= "1020468" />
   <path class="fil4 str12" d="M343732 1020468c-646,0 -1289,-645 -1289,-1288"/>
   <line class="fil4 str12" x1="342443" y1="1019823" x2="342443" y2= "1001119" />
   <path class="fil4 str12" d="M342443 1001119c0,-645 646,-1288 1289,-1288"/>
   <path class="fil20" d="M349538 1002412l27732 0c1290,0 2579,645 2579,1935l0 11610c0,1288 -1289,1935 -2579,1935l-27732 -2c-1290,0 -2580,-646 -2580,-1936l0 -11609c-1,-1290 1290,-1933 2580,-1933z"/>
   <path class="fil4 str13" d="M349538 1002412l27732 0c1290,0 2579,645 2579,1935l0 11610c0,1288 -1289,1935 -2579,1935l-27732 -2c-1290,0 -2580,-646 -2580,-1936l0 -11609c-1,-1290 1290,-1933 2580,-1933z"/>
   <path class="fil21" d="M378560 1017244c-647,646 -1290,646 -1935,646l-27732 0c-647,0 -1290,0 -1936,-646 0,0 0,-645 0,-1290l0 -11609c0,-647 0,-647 646,-1290 645,-643 31603,14189 30957,14189z"/>
   <path class="fil4 str13" d="M378560 1017244c-647,646 -1290,646 -1935,646l-27732 0c-647,0 -1290,0 -1936,-646 0,0 0,-645 0,-1290l0 -11609c0,-647 0,-647 646,-1290 645,-643 31603,14189 30957,14189z"/>
   <path class="fil22" d="M378560 1017244c-647,646 -1290,646 -1935,646l-27732 0c-647,0 -1290,0 -1936,-646 0,0 0,-645 0,-1290l0 -11609c0,-647 0,-647 646,-1290 0,0 8385,3224 16123,7093 7740,3225 14834,7096 14834,7096z"/>
   <path class="fil4 str14" d="M378560 1017244c-647,646 -1290,646 -1935,646l-27732 0c-647,0 -1290,0 -1936,-646 0,0 0,-645 0,-1290l0 -11609c0,-647 0,-647 646,-1290 0,0 8385,3224 16123,7093 7740,3225 14834,7096 14834,7096z"/>
   <path class="fil23" d="M378560 1003055c646,647 646,647 646,1290l0 11609c0,646 0,646 -646,1290 -647,646 -1290,646 -1935,646l-27732 0c-647,0 -1290,0 -1936,-646 0,0 30956,-14832 31603,-14189z"/>
   <path class="fil4 str15" d="M378560 1003055c646,647 646,647 646,1290l0 11609c0,646 0,646 -646,1290 -647,646 -1290,646 -1935,646l-27732 0c-647,0 -1290,0 -1936,-646 0,0 30956,-14832 31603,-14189z"/>
   <path class="fil24" d="M378560 1017244c-647,646 -1290,646 -1935,646l-27732 0c-647,0 -1290,0 -1936,-646 0,0 7740,-3871 15478,-7739 646,0 16771,7739 16125,7739z"/>
   <path class="fil4 str15" d="M378560 1017244c-647,646 -1290,646 -1935,646l-27732 0c-647,0 -1290,0 -1936,-646 0,0 7740,-3871 15478,-7739 646,0 16771,7739 16125,7739z"/>
   <line class="fil4 str13" x1="349538" y1="1002412" x2="376625" y2= "1002412" />
   <path class="fil4 str13" d="M376625 1002412c1288,0 2578,645 2578,1935"/>
   <line class="fil4 str13" x1="379206" y1="1004345" x2="379206" y2= "1015954" />
   <path class="fil4 str13" d="M379206 1015954c0,1290 -1290,1936 -2579,1936"/>
   <line class="fil4 str13" x1="376625" y1="1017890" x2="349538" y2= "1017890" />
   <path class="fil4 str13" d="M349538 1017890c-1290,0 -2580,-646 -2580,-1936"/>
   <line class="fil4 str13" x1="346957" y1="1015954" x2="346957" y2= "1004345" />
   <path class="fil4 str13" d="M346957 1004345c0,-1290 1289,-1937 2579,-1937"/>
   <rect class="fil25" x="354053" y="1006282" width="18057" height="7739"/>
   <rect class="fil4 str15" x="354053" y="1006282" width="18057" height="7739"/>
   <path class="fil9" d="M302457 1003702l10964 -1290c4514,-647 9030,2578 9674,6449l0 646c647,3871 -2579,7738 -7093,8385l-10964 1290c-4514,646 -9028,-2580 -9675,-6451l0 -644c-644,-3871 2580,-7742 7094,-8385z"/>
   <path class="fil4 str16" d="M302457 1003702l10964 -1290c4514,-647 9030,2578 9674,6449l0 646c647,3871 -2579,7738 -7093,8385l-10964 1290c-4514,646 -9028,-2580 -9675,-6451l0 -644c-644,-3871 2580,-7742 7094,-8385z"/>
   <path class="fil26" d="M303103 1006279l10318 -1289c3871,-645 7093,1936 7740,5160 645,3226 -1936,5804 -5804,6450l-10319 1290c-3871,645 -7093,-1936 -7738,-5160 -4,-3225 2579,-6451 5803,-6451z"/>
   <path class="fil27" d="M314068 1009505c0,645 -647,2578 -1290,3225 -1936,1289 -4514,1934 -7093,1934 -3871,647 -7094,-1288 -7094,-3871 0,-1288 647,-3224 1935,-3869 1289,-647 2579,-1290 4516,-1290 2577,0 6448,0 8384,1290 642,645 642,1935 642,2581z"/>
   <line class="fil4 str17" x1="303103" y1="1006279" x2="314068" y2= "1004990" />
   <path class="fil4 str17" d="M314068 1004990c3870,-645 7093,1936 7738,5160"/>
   <path class="fil4 str17" d="M321161 1010150c645,3226 -1936,5804 -5804,6450"/>
   <line class="fil4 str17" x1="316000" y1="1016599" x2="305683" y2= "1017890" />
   <path class="fil4 str17" d="M305683 1017890c-3871,645 -7094,-1936 -7740,-5160"/>
   <path class="fil4 str17" d="M297943 1012730c-647,-3225 1936,-5804 5803,-6451"/>
   <path class="fil28" d="M308260 1010150c0,1290 -1289,1937 -3224,2580 -1934,0 -3871,-647 -3871,-1937 0,-1288 1290,-1934 3224,-2577 1939,0 3871,643 3871,1934z"/>
   <polygon class="fil9" points="263760,1024983 279885,1012083 260536,1004990 259893,1015954 "/>
   <polygon class="fil4 str18" points="263760,1024983 279885,1012083 260536,1004990 259893,1015954 "/>
   <polygon class="fil29" points="263117,1022404 274725,1012730 260536,1008216 257957,1015954 "/>
   <polygon class="fil30" points="263117,1022404 274725,1012730 257957,1015954 "/>
   <line class="fil4 str19" x1="274725" y1="1012730" x2="257957" y2= "1015954" />
   <polygon class="fil4 str20" points="263117,1022404 274725,1012730 260536,1008216 257312,1015309 "/>
   <path class="fil2" d="M335992 1004990c0,1936 -1289,3226 -3224,3226 -1936,0 -3224,-1290 -3224,-3226 0,-1935 1288,-3225 3224,-3225 1935,-646 3224,1290 3224,3225z"/>
   <path class="fil12" d="M329546 1006926l646 645 1288 646 1290 0 1290 0 1289 -1289 647 -645 645 -1290 0 -1289 -645 -647 -647 -645 -1289 -647c0,0 646,647 646,1290 0,647 0,647 0,1290 0,645 0,645 -646,1289 0,645 -645,645 -1290,1290 -645,0 -1290,0 -1290,0 -645,2 -1934,2 -1934,2z"/>
   <path class="fil1" d="M333415 1003055c0,1290 -647,1935 -1937,1935 -1289,0 -1934,-645 -1934,-1935 0,-647 645,-647 645,-647 646,0 646,-644 1289,-644 1292,-645 1937,648 1937,1291z"/>
   <path class="fil4 str21" d="M335992 1004990c0,1936 -1289,3226 -3224,3226 -1936,0 -3224,-1290 -3224,-3226 0,-1935 1288,-3225 3224,-3225 1935,-646 3224,1290 3224,3225"/>
   <path class="fil2" d="M336639 1015954c0,1936 -1290,3226 -3224,3226 -1937,0 -3226,-1290 -3226,-3226 0,-1935 1289,-3224 3226,-3224 1934,-647 3224,1289 3224,3224z"/>
   <path class="fil12" d="M330189 1017890l646 645 1290 647 1290 0 1288 0 1289 -1290 647 -647 645 -1288 0 -1289 -645 -647 -647 -645 -1289 -646c0,0 646,646 646,1289 0,645 0,645 0,1290 0,645 0,645 -646,1290 0,645 -645,645 -1288,1288 -647,0 -1290,0 -1290,0 -647,3 -1936,3 -1936,3z"/>
   <path class="fil1" d="M334060 1014019c0,1290 -645,1935 -1935,1935 -1290,0 -1936,-645 -1936,-1935 0,-646 646,-646 646,-646 645,0 645,-645 1290,-645 1290,2 1935,645 1935,1291z"/>
   <path class="fil4 str21" d="M336639 1015954c0,1936 -1290,3226 -3224,3226 -1937,0 -3226,-1290 -3226,-3226 0,-1935 1289,-3224 3226,-3224 1934,-647 3224,1289 3224,3224"/>
   <path class="fil2" d="M289560 1007569c0,1936 -1290,3224 -3224,3224 -1937,0 -3225,-1288 -3225,-3224 0,-1935 1288,-3224 3225,-3224 1289,-643 3224,1289 3224,3224z"/>
   <path class="fil12" d="M283111 1009505l645 645 1290 647 1290 0 1289 0 1290 -1290 645 -646 646 -1290 -1 -1292 -1290 -645 -647 -646 -1289 -647c0,0 646,647 646,1290 0,646 0,646 0,1290 0,646 0,646 -646,1289 0,647 -645,647 -1290,1290 -645,0 -1290,0 -1290,0 -645,5 -1288,5 -1288,5z"/>
   <path class="fil1" d="M286336 1005634c0,1290 -647,1935 -1937,1935 -1288,0 -1934,-645 -1934,-1935 0,-646 646,-646 646,-646 645,0 645,-647 1288,-647 1290,-639 1937,649 1937,1293z"/>
   <path class="fil4 str21" d="M289560 1007569c0,1936 -1290,3224 -3224,3224 -1937,0 -3225,-1288 -3225,-3224 0,-1935 1288,-3224 3225,-3224 1289,-643 3224,1289 3224,3224"/>
   <path class="fil2" d="M290205 1018533c0,1935 -1290,3224 -3226,3224 -1935,0 -3225,-1289 -3225,-3224 0,-1934 1290,-3224 3225,-3224 1289,-645 3226,1290 3226,3224z"/>
   <path class="fil12" d="M283754 1020468l645 646 1290 647 1290 0 1289 0 1290 -1290 647 -646 644 -1290 0 -1290 -644 -645 -1290 -646 -1290 -645c0,0 645,645 645,1290 0,645 0,645 0,1288 0,646 0,646 -645,1289 0,647 -646,647 -1289,1290 -647,0 -1290,0 -1290,0 -647,2 -1292,2 -1292,2z"/>
   <path class="fil1" d="M286979 1016599c0,1288 -645,1934 -1935,1934 -1290,0 -1936,-646 -1936,-1934 0,-647 646,-647 646,-647 645,0 645,-647 1290,-647 1292,4 1935,649 1935,1294z"/>
   <path class="fil4 str21" d="M290205 1018533c0,1935 -1290,3224 -3226,3224 -1935,0 -3225,-1289 -3225,-3224 0,-1934 1290,-3224 3225,-3224 1289,-645 3226,1290 3226,3224"/>
   <path class="fil9" d="M423704 1003702l-10962 -1290c-4516,-647 -9030,2578 -9675,6449l0 646c-646,3871 2578,7738 7092,8385l10964 1290c4516,646 9030,-2580 9675,-6451l0 -644c646,-3871 -2578,-7742 -7094,-8385z"/>
   <path class="fil4 str16" d="M423704 1003702l-10962 -1290c-4516,-647 -9030,2578 -9675,6449l0 646c-646,3871 2578,7738 7092,8385l10964 1290c4516,646 9030,-2580 9675,-6451l0 -644c646,-3871 -2578,-7742 -7094,-8385z"/>
   <path class="fil26" d="M423059 1006279l-10317 -1289c-3871,-645 -7093,1936 -7740,5160 -647,3226 1934,5804 5803,6450l10318 1290c3871,645 7093,-1936 7740,-5160 2,-3225 -2579,-6451 -5804,-6451z"/>
   <path class="fil27" d="M412095 1009505c0,645 647,2578 1290,3225 1934,1289 4514,1934 7093,1934 3871,647 7093,-1288 7093,-3871 0,-1288 -646,-3224 -1936,-3869 -641,-645 -2576,-645 -4508,-645 -2580,0 -6451,0 -8385,1290 -647,0 -647,1290 -647,1936z"/>
   <line class="fil4 str17" x1="423059" y1="1006279" x2="412095" y2= "1004990" />
   <path class="fil4 str17" d="M412095 1004990c-3871,-645 -7093,1936 -7740,5160"/>
   <path class="fil4 str17" d="M405002 1010150c-647,3226 1934,5804 5803,6450"/>
   <line class="fil4 str17" x1="410162" y1="1016599" x2="421127" y2= "1017890" />
   <path class="fil4 str17" d="M421127 1017890c3871,645 7093,-1936 7738,-5160"/>
   <path class="fil4 str17" d="M428220 1012730c645,-3225 -1936,-5804 -5804,-6451"/>
   <path class="fil28" d="M417901 1010150c0,1290 1289,1937 3226,2580 1934,0 3871,-647 3871,-1937 0,-1288 -1290,-1934 -3226,-2577 -1937,0 -3871,643 -3871,1934z"/>
   <polygon class="fil9" points="462400,1024983 446922,1012083 466270,1004990 466270,1015954 "/>
   <polygon class="fil4 str18" points="462400,1024983 446922,1012083 466270,1004990 466270,1015954 "/>
   <polygon class="fil29" points="463045,1022404 451436,1012730 465627,1008216 468204,1015954 "/>
   <polygon class="fil30" points="463045,1022404 451436,1012730 468204,1015954 "/>
   <line class="fil4 str19" x1="451436" y1="1012730" x2="468851" y2= "1015954" />
   <polygon class="fil4 str20" points="463045,1022404 451436,1012730 465627,1008216 468851,1015309 "/>
   <path class="fil2" d="M390170 1004990c0,1936 1288,3226 3225,3226 1934,0 3224,-1290 3224,-3226 0,-1935 -1290,-3225 -3224,-3225 -1937,-646 -3225,1290 -3225,3225z"/>
   <path class="fil12" d="M396617 1006926l-647 645 -1289 646 -1288 0 -1290 0 -1290 -1289 0 -649 -646 -1289 0 -1288 646 -647 645 -647 1290 -644c0,0 -645,644 -645,1289 0,645 0,645 0,1288 0,647 0,647 645,1290 0,646 647,646 1290,1290 646,0 1289,0 1289,0 0,5 1290,5 1290,5z"/>
   <path class="fil1" d="M392748 1003055c0,1290 647,1935 1936,1935 1290,0 1935,-645 1935,-1935 0,-647 -645,-647 -645,-647 -647,0 -647,-644 -1290,-644 -1291,-645 -1936,648 -1936,1291z"/>
   <path class="fil4 str21" d="M390170 1004990c0,1936 1288,3226 3225,3226 1934,0 3224,-1290 3224,-3226 0,-1935 -1290,-3225 -3224,-3225 -1937,-646 -3225,1290 -3225,3225"/>
   <path class="fil2" d="M389524 1015954c0,1936 1289,3226 3224,3226 1936,0 3226,-1290 3226,-3226 0,-1935 -1290,-3224 -3226,-3224 -1935,-647 -3224,1289 -3224,3224z"/>
   <path class="fil12" d="M395974 1017890l-647 645 -1289 645 -1290 0 -1290 0 -1288 -1290 -646 -646 -647 -1290 0 -1290 647 -645 646 -646 1288 -645c0,0 -645,645 -645,1288 0,646 0,646 0,1289 0,647 0,647 645,1290 0,647 647,647 1290,1290 647,0 1290,0 1290,0 646,5 1936,5 1936,5z"/>
   <path class="fil1" d="M392103 1014019c0,1290 645,1935 1935,1935 1289,0 1936,-645 1936,-1935 0,-646 -647,-646 -647,-646 -646,0 -646,-645 -1289,-645 -1290,2 -1935,645 -1935,1291z"/>
   <path class="fil4 str21" d="M389524 1015954c0,1936 1289,3226 3224,3226 1936,0 3226,-1290 3226,-3226 0,-1935 -1290,-3224 -3226,-3224 -1935,-647 -3224,1289 -3224,3224"/>
   <path class="fil2" d="M436605 1007569c0,1936 1289,3224 3224,3224 1936,0 3226,-1288 3226,-3224 0,-1935 -1290,-3224 -3226,-3224 -1291,-643 -3224,1289 -3224,3224z"/>
   <path class="fil12" d="M443051 1009505l-644 645 -1290 647 -1290 0 -1289 0 -1290 -1290 0 -648 0 -1290 0 -1290 646 -645 645 -646 1290 -647c0,0 -645,647 -645,1290 0,646 0,646 0,1290 0,646 0,646 645,1289 0,647 647,647 1290,1290 646,0 1289,0 1289,0 0,5 643,5 643,5l0 0z"/>
   <path class="fil1" d="M439827 1005634c0,1290 645,1935 1935,1935 1289,0 1936,-645 1936,-1935 0,-646 -647,-646 -647,-646 -644,0 -644,-647 -1289,-647 -1290,-639 -1935,649 -1935,1293z"/>
   <path class="fil4 str21" d="M436605 1007569c0,1936 1289,3224 3224,3224 1936,0 3226,-1288 3226,-3224 0,-1935 -1290,-3224 -3226,-3224 -1291,-643 -3224,1289 -3224,3224"/>
   <path class="fil2" d="M435958 1018533c0,1935 1290,3224 3226,3224 1935,0 3224,-1289 3224,-3224 0,-1934 -1289,-3224 -3224,-3224 -1290,-645 -3226,1290 -3226,3224z"/>
   <path class="fil12" d="M442408 1020468l-646 646 -1290 647 -1288 0 -1290 0 -646 -648 -645 -647 -647 -1290 0 -1289 647 -645 645 -647 1290 -645c0,0 -647,645 -647,1288 0,647 0,647 0,1290 0,646 0,646 647,1289 0,647 646,647 1289,1290 645,0 1290,0 1290,0 645,-639 1291,-639 1291,-639l0 0z"/>
   <path class="fil1" d="M439184 1016599c0,1288 645,1934 1935,1934 1289,0 1936,-646 1936,-1934 0,-647 -647,-647 -647,-647 -646,0 -646,-647 -1289,-647 -1292,4 -1935,649 -1935,1294z"/>
   <path class="fil4 str21" d="M435958 1018533c0,1935 1290,3224 3226,3224 1935,0 3224,-1289 3224,-3224 0,-1934 -1289,-3224 -3224,-3224 -1290,-645 -3226,1290 -3226,3224"/>
  </g>
 </g>
</svg>
