<?xml version="1.0" encoding="UTF-8" standalone="no"?>
<svg width="200px" height="200px" viewBox="0 0 200 200" version="1.1" xmlns="http://www.w3.org/2000/svg" xmlns:xlink="http://www.w3.org/1999/xlink" xmlns:sketch="http://www.bohemiancoding.com/sketch/ns">
    <!-- Generator: Sketch 3.2.2 (9983) - http://www.bohemiancoding.com/sketch -->
    <title>clinical-genomics-logo-orange-small</title>
    <desc>Created with Sketch.</desc>
    <defs>
        <path id="path-1" d="M101,200 C156.228478,200 201,155.228478 201,100 C201,44.7715223 156.228478,5.68434189e-14 101,5.68434189e-14 C45.7715223,5.68434189e-14 1,44.7715223 1,100 C1,155.228478 45.7715223,200 101,200 Z"></path>
    </defs>
    <g id="logos" stroke="none" stroke-width="1" fill="none" fill-rule="evenodd" sketch:type="MSPage">
        <g id="clinical-genomics-logo-orange-small" sketch:type="MSArtboardGroup">
            <g id="logo-color" sketch:type="MSLayerGroup" transform="translate(99.292893, 100.000000) rotate(-315.000000) translate(-99.292893, -100.000000) translate(-1.207107, -0.500000)">
                <mask id="mask-2" sketch:name="Oval 16" fill="white">
                    <use xlink:href="#path-1"></use>
                </mask>
                <use id="Oval-16" fill="#EF7C00" sketch:type="MSShapeGroup" xlink:href="#path-1"></use>
                <g id="DNA" mask="url(#mask-2)" fill="#FFFFFF" sketch:type="MSShapeGroup">
                    <g transform="translate(-19.000000, -23.000000)" id="Rectangle-7">
                        <rect x="0.207106781" y="67.5" width="137" height="20"></rect>
                        <rect x="52.2071068" y="106.5" width="123" height="20"></rect>
                        <rect x="117.207107" y="170.5" width="102" height="20"></rect>
                        <rect transform="translate(165.207107, 173.000000) rotate(-270.000000) translate(-165.207107, -173.000000) " x="98.7071068" y="163" width="133" height="20"></rect>
                        <rect transform="translate(127.207107, 129.000000) rotate(-270.000000) translate(-127.207107, -129.000000) " x="65.7071068" y="119" width="123" height="20"></rect>
                        <rect transform="translate(62.207107, 63.500000) rotate(-270.000000) translate(-62.207107, -63.500000) " x="-0.792893219" y="53.5" width="126" height="20"></rect>
                    </g>
                </g>
                <g id="Shadows" mask="url(#mask-2)" fill="#EF7C00" sketch:type="MSShapeGroup">
                    <g transform="translate(53.000000, 39.000000)" id="Rectangle-12">
                        <rect transform="translate(3.707107, 16.000000) rotate(-270.000000) translate(-3.707107, -16.000000) " x="-11.7928932" y="12.5" width="31" height="7"></rect>
                        <rect transform="translate(68.707107, 54.000000) rotate(-270.000000) translate(-68.707107, -54.000000) " x="53.2071068" y="50.5" width="31" height="7"></rect>
                        <rect transform="translate(106.707107, 119.000000) rotate(-270.000000) translate(-106.707107, -119.000000) " x="91.2071068" y="115.5" width="31" height="7"></rect>
                    </g>
                </g>
            </g>
        </g>
    </g>
</svg>